<?xml version="1.0"?>
<svg xmlns="http://www.w3.org/2000/svg" xmlns:xlink="http://www.w3.org/1999/xlink" version="1.1" id="Capa_1" x="0px" y="0px" viewBox="0 0 513.088 513.088" style="enable-background:new 0 0 513.088 513.088;" xml:space="preserve" width="512px" height="512px" class=""><g><path style="fill:#FFD15C;" d="M243.852,307.222c0,0,12.8,27.733,18.133,40.533c3.2,7.467,4.267,13.867,5.333,17.067  c0,2.133-1.067,5.333-2.133,6.4c-5.333,6.4-19.2,25.6-19.2,50.133c0,0-6.4,27.733-13.867,40.533  c-6.4,11.733,21.333,35.2,21.333,35.2l9.6-2.133c1.067,0,1.067-1.067,0-1.067l0,0c-1.067-2.133-4.267-7.467-4.267-13.867  c0-7.467-3.2-11.733-2.133-17.067c1.067-5.333,11.733-29.867,17.067-38.4c5.333-8.533,16-28.8,18.133-38.4  c0,0,14.933-17.067,12.8-28.8c-1.067-11.733-3.2-42.667-3.2-42.667L243.852,307.222z" data-original="#FFD15C" class=""/><g>
	<path style="fill:#F5B54C;" d="M253.452,497.088l3.2-1.067l-2.133-3.2c-3.2-4.267-7.467-20.267-10.667-29.867   c-1.067-3.2-2.133-5.333-2.133-6.4c-1.067-2.133-2.133-6.4-3.2-11.733c-2.133,6.4-4.267,12.8-7.467,18.133   C224.652,474.688,253.452,497.088,253.452,497.088z" data-original="#F5B54C"/>
	<path style="fill:#F5B54C;" d="M251.318,323.222c1.067-5.333,2.133-10.667,3.2-13.867l-10.667-1.067   C243.852,307.222,247.052,314.688,251.318,323.222z" data-original="#F5B54C"/>
</g><path style="fill:#344A5E;" d="M263.052,492.822c0,0,0,1.067-4.267,2.133c-4.267,0-9.6-2.133-9.6-2.133s1.067,11.733,6.4,14.933  c5.333,2.133,16,1.067,17.067-1.067c1.067-2.133,2.133-6.4,1.067-6.4c-1.067-1.067-6.4-1.067-7.467-2.133  C265.185,497.088,263.052,492.822,263.052,492.822z" data-original="#344A5E"/><path style="fill:#FFD15C;" d="M218.252,475.755c0,0-1.067-9.6,1.067-12.8c0,0,1.067-9.6-2.133-14.933  c-3.2-6.4-13.867-39.467-12.8-55.467c0-16,5.333-27.733,5.333-27.733s5.333-11.733,0-27.733c-5.333-16-11.733-36.267-11.733-43.733  s8.533-6.4,8.533-6.4l46.933,17.067c0,0-6.4,25.6-8.533,41.6c-2.133,16-5.333,20.267-5.333,27.733c0,7.467-2.133,43.733-3.2,53.333  c-1.067,9.6,2.133,24.533,4.267,29.867c2.133,5.333,8.533,30.933,12.8,37.333c4.267,6.4,4.267,6.4,4.267,6.4  s-14.933,2.133-21.333-1.067C228.918,497.088,219.318,478.955,218.252,475.755z" data-original="#FFD15C" class=""/><g>
	<polygon style="fill:#E8EAE8;" points="338.785,133.355 301.452,146.155 307.852,164.288 323.852,163.222  " data-original="#E8EAE8" class=""/>
	<path style="fill:#E8EAE8;" d="M202.252,78.955h-8.533l-5.333,12.8l9.6,38.4c0,0,23.467,11.733,24.533,9.6   c1.067-2.133,5.333-24.533,5.333-26.667C227.852,110.955,202.252,78.955,202.252,78.955z" data-original="#E8EAE8" class=""/>
</g><g>
	<path style="fill:#425A6B" d="M218.252,73.622c4.267-8.533,7.467-17.067,8.533-26.667c0-1.067,0-2.133,1.067-3.2   c1.067-1.067,2.133-2.133,4.267-1.067c2.133,0,4.267,2.133,5.333,4.267c1.067,2.133,1.067,5.333,1.067,7.467   c0,6.4-1.067,12.8-4.267,18.133c-1.067,2.133-3.2,5.333-4.267,7.467c-2.133,2.133-4.267,3.2-7.467,3.2   c-3.2,0-5.333-1.067-7.467-3.2" data-original="#425A6B" class=""/>
	<path style="fill:#425A6B" d="M269.452,44.822c-3.2-3.2-7.467-4.267-10.667-4.267c-12.8,0-22.4,14.933-22.4,34.133   s9.6,34.133,22.4,34.133c4.267,0,7.467-1.067,10.667-4.267C272.652,82.155,273.718,60.822,269.452,44.822z" data-original="#425A6B" class=""/>
</g><path style="fill:#FFD15C;" d="M264.118,36.288c0,0,0,14.933-7.467,22.4c0,0-4.267,14.933,5.333,24.533  c9.6,10.667,10.667,10.667,10.667,10.667s-4.267,13.867-4.267,14.933c-1.067,0-26.667,5.333-26.667,4.267  c-1.067-1.067-20.267-41.6-20.267-41.6s9.6-4.267,10.667-13.867c0,0-5.333-9.6-6.4-17.067c-1.067-6.4,1.067-19.2,1.067-19.2  l9.6-13.867h25.6l5.333,13.867L264.118,36.288z" data-original="#FFD15C" class=""/><path style="fill:#F5B54C;" d="M255.585,58.688L255.585,58.688c0,0-6.4,6.4-13.867,7.467c-7.467,1.067-9.6,5.333-4.267,6.4  c3.2,1.067-6.4,4.267-14.933,4.267c-1.067-3.2-2.133-5.333-2.133-5.333s9.6-4.267,10.667-13.867c0,0,5.333,5.333,13.867,3.2  C253.452,59.755,255.585,58.688,255.585,58.688z" data-original="#F5B54C"/><path style="fill:#E8EAE8;" d="M222.518,77.888c3.2,2.133,7.467,4.267,7.467,6.4c0,0,6.4,6.4,14.933,11.733  c8.533,5.333,12.8,14.933,12.8,14.933s-1.067-8.533,5.333-12.8c5.333-5.333,6.4-11.733,6.4-11.733s25.6,12.8,25.6,27.733  s-3.2,27.733-3.2,27.733s-5.333,51.2-4.267,58.667s3.2,11.733,3.2,11.733s-32-5.333-44.8-8.533c-13.867-3.2-41.6-7.467-41.6-7.467  s-1.067-6.4,1.067-14.933c2.133-8.533,0-48,0-48l1.067-10.667c0,0,6.4-36.267-11.733-41.6c0,0,6.4-1.067,11.733-4.267  c5.333-3.2,10.667-4.267,10.667-4.267L222.518,77.888L222.518,77.888z" data-original="#E8EAE8" class=""/><path style="fill:#FFD15C;" d="M245.985,154.688l27.733-6.4l3.2,20.267c-10.667,3.2-20.267,2.133-32,6.4L245.985,154.688z" data-original="#FFD15C" class=""/><path style="fill:#F3F3F3;" d="M212.918,75.755l8.533,10.667c0,0,2.133-3.2,5.333-4.267c1.067,0,2.133,0,3.2,1.067l1.067,1.067  c1.067,0-5.333-9.6-7.467-12.8c-2.133-4.267-2.133-4.267-2.133-4.267L212.918,75.755z" data-original="#F3F3F3"/><g>
	<path style="fill:#425A6B" d="M247.052,7.488c6.4,0,10.667,4.267,12.8,10.667c2.133,7.467,2.133,13.867,2.133,21.333   c0,5.333-1.067,11.733,1.067,16c2.133,3.2,6.4,6.4,5.333,9.6c0,4.267-4.267,6.4-7.467,10.667c-2.133,3.2-3.2,8.533-2.133,12.8   c1.067,14.933,12.8,27.733,26.667,30.933c-6.4-3.2-10.667-7.467-12.8-13.867c6.4,2.133,12.8,7.467,16,14.933   c3.2,6.4,3.2,14.933,0,21.333c8.533-14.933,9.6-34.133,3.2-49.067c-5.333-11.733-13.867-21.333-16-33.067   c-1.067-8.533,2.133-18.133,1.067-26.667c-1.067-16-12.8-29.867-28.8-33.067c0,0-9.6-1.067-20.267,11.733   c-9.6,13.867-13.867,13.867-11.733,22.4c1.067,8.533,7.467,10.667,3.2,20.267c-4.267,9.6-9.6,13.867-11.733,23.467   c-2.133,13.867,17.067,29.867,6.4,46.933c0,0,19.2-4.267,14.933-18.133c-1.067-5.333-3.2-9.6-5.333-13.867   c-3.2-6.4-4.267-13.867-3.2-21.333c0-1.067,1.067-2.133,1.067-3.2c2.133-4.267,5.333-7.467,5.333-13.867c0-6.4-2.133-16-1.067-22.4   c1.067-6.4,5.333-18.133,12.8-23.467C242.785,8.555,244.918,7.488,247.052,7.488z" data-original="#425A6B" class=""/>
	<path style="fill:#425A6B" d="M259.852,55.488c0,0-4.267,9.6-6.4,11.733c-5.333,7.467-5.333,17.067-2.133,25.6   c3.2,8.533,10.667,13.867,19.2,17.067c-6.4-10.667-8.533-23.467-5.333-35.2c1.067-3.2,2.133-5.333,3.2-8.533   c1.067-3.2,1.067-6.4,1.067-8.533c-1.067-3.2-2.133-5.333-5.333-6.4" data-original="#425A6B" class=""/>
</g><path style="fill:#F3F3F3;" d="M255.585,176.022l-24.533,4.267c0,0-18.133,4.267-22.4,5.333c-4.267,1.067-19.2,0-24.533-3.2  c-6.4-3.2-8.533-10.667-7.467-16c1.067-5.333-1.067-16-2.133-21.333c-1.067-5.333,2.133-19.2,3.2-23.467  c1.067-4.267,2.133-24.533,6.4-34.133s12.8-8.533,12.8-8.533c11.733,3.2,12.8,22.4,12.8,33.067l0,0c0,3.2-1.067,12.8-2.133,17.067  v1.067v1.067v3.2l1.067,22.4c3.2-2.133,20.267-4.267,20.267-4.267l27.733-4.267C253.452,153.622,255.585,176.022,255.585,176.022z" data-original="#F3F3F3"/><path style="fill:#425A6B" d="M250.252,151.488l46.933-22.4l26.667,33.067l14.933-29.867l-13.867,29.867  c0,1.067-1.067,1.067-1.067,1.067l-46.933,21.333L250.252,151.488z" data-original="#67C5B8" class="active-path" data-old_color="#67C5B8"/><path style="fill:#FFD15C;" d="M302.518,172.822l-9.6-12.8c-1.067-1.067-2.133-1.067-3.2-1.067l-1.067,1.067  c0,2.133,7.467,13.867,7.467,13.867l0,0l-6.4-9.6l-3.2-6.4c-1.067-1.067-2.133-2.133-3.2-1.067c-1.067,0-1.067,1.067-1.067,2.133  c1.067,3.2,3.2,7.467,4.267,8.533c0,1.067,4.267,7.467,4.267,7.467s-4.267-5.333-5.333-7.467c-1.067-2.133-3.2-7.467-5.333-7.467  c-1.067-1.067-3.2,1.067-3.2,2.133c0,1.067,3.2,7.467,4.267,7.467c0,1.067,4.267,6.4,4.267,6.4l-6.4-8.533l-1.067-1.067  c-1.067,0-1.067,0-2.133,1.067v1.067l7.467,10.667c0,0,2.133,3.2,3.2,4.267s5.333,1.067,7.467,1.067c2.133,0,9.6-3.2,10.667-5.333  c1.067-2.133,4.267-7.467,6.4-9.6c2.133-2.133,8.533,0,8.533-5.333L302.518,172.822z" data-original="#FFD15C" class=""/><g>
	<path style="fill:#425A6B" d="M204.385,192.022c0,0,28.8,2.133,44.8,6.4c14.933,5.333,39.467,4.267,39.467,4.267   s6.4,16,6.4,37.333c0,22.4,8.533,76.8,8.533,76.8s-33.067-5.333-53.333-4.267s-64-3.2-64-3.2s4.267-48,4.267-61.867   C189.452,235.755,192.652,206.955,204.385,192.022z" data-original="#425A6B" class=""/>
	<path style="fill:#425A6B" d="M219.318,462.955c0,0-1.067,4.267,1.067,10.667c2.133,6.4,7.467,22.4,13.867,24.533   c6.4,2.133,21.333,1.067,19.2-3.2c0,0,6.4,7.467,9.6,8.533c2.133,1.067,1.067,9.6-1.067,9.6s-28.8,0-30.933-4.267   c-2.133-4.267-4.267-14.933-6.4-17.067v16h-3.2c0,0-2.133-16-6.4-25.6C208.652,470.422,219.318,462.955,219.318,462.955z" data-original="#425A6B" class=""/>
	<path style="fill:#425A6B" d="M219.318,33.088v1.067c0,1.067,1.067,2.133,1.067,4.267c0,2.133,1.067,4.267,1.067,6.4   c0,1.067,0,2.133,0,3.2c0,1.067,0,2.133-1.067,3.2c0,1.067,0,1.067-1.067,2.133c0,0,0,1.067-1.067,1.067   c-1.067,1.067-1.067,2.133-2.133,3.2c-1.067,1.067-1.067,2.133-2.133,2.133c-1.067,1.067-1.067,1.067-2.133,2.133   c0,1.067-1.067,2.133-2.133,2.133c-1.067,1.067-1.067,1.067-1.067,1.067s0,0,1.067-1.067c1.067-1.067,2.133-1.067,3.2-3.2   c1.067-1.067,1.067-1.067,2.133-2.133c1.067-1.067,1.067-1.067,2.133-2.133c1.067-1.067,1.067-2.133,2.133-3.2   c0,0,0-1.067,1.067-1.067v-1.067c0-1.067,0-2.133,0-3.2c0-1.067,0-2.133,0-3.2c0-2.133-1.067-4.267-1.067-5.333   c0-2.133-1.067-3.2-1.067-4.267c0-1.067,0-1.067,0-1.067L219.318,33.088z" data-original="#425A6B" class=""/>
</g><path style="fill:#F5B54C;" d="M255.585,58.688L255.585,58.688c0,0-6.4,6.4-13.867,7.467c-7.467,1.067-9.6,5.333-4.267,6.4  c3.2,1.067-6.4,4.267-14.933,4.267c-1.067-3.2-2.133-5.333-2.133-5.333s9.6-4.267,10.667-13.867c0,0,5.333,5.333,13.867,3.2  C253.452,59.755,255.585,58.688,255.585,58.688z" data-original="#F5B54C"/></g> </svg>
