<?xml version="1.0"?>
<svg xmlns="http://www.w3.org/2000/svg" enable-background="new 0 0 110 110" height="512px" viewBox="0 0 110 110" width="512px"><g transform="matrix(1.26961 0 0 1.26961 -14.8284 -14.8284)"><path d="m48.276466 34.48938h13.503925v18.37162h-13.503925z" fill="#f7be56" data-original="#F7BE56"/><path d="m65.913353 85.6449814v-35.5697174l-2.1691475-1.1879425-8.7157669 1.7242355-8.7157708-1.7242355-.3730163.2042732v36.5533867z" fill="#d5d6db" data-original="#D5D6DB"/><path d="m77.4790802 57.278595c-1.0381622-1.1424179-2.2597809-2.1055489-3.6148605-2.8477211l-8.6973953-4.765625-1.4217949-.7797127-.829731.1626358c-.5711823 4.5738564-2.7684669 20.1466064-7.8801956 35.2940979-5.1116791-15.1433182-7.3131371-30.7119408-7.8843231-35.2899208l-.8380814-.1668129-1.4009132.7671814-8.7224083 4.7781563c-1.355072.7421722-2.5766945 1.7053032-3.6107254 2.8477211-2.3223782 2.5558167-3.6065502 5.8830376-3.6065502 9.3353043v16.4071503c0 2.7307281 2.2136936 4.9444275 4.9444256 4.9444275h42.224678c2.7307281 0 4.9444199-2.2136993 4.9444199-4.9444275v-16.4071504c-.0000001-3.4522667-1.2841722-6.7794876-3.6065446-9.3353042z" fill="#2f4859" data-original="#2F4859"/><path d="m58.6529045 53.7946854-1.809906-3.1349106-1.8145599-.0482178-1.8053055.0482178-1.8099594 3.1349106 1.7740402 3.0727081-1.7740402 22.1475906 3.6198654 6.8157578 3.6198654-6.5654144-1.7744827-22.3970986z" fill="#e56353" data-original="#E56353"/><path d="m61.7803917 45.4388733-6.7519608 5.1726875 5.612156 7.2417641 3.1036109-8.965992z" fill="#ebf0f3" data-original="#EBF0F3"/><path d="m48.2764664 45.4388733 6.7519645 5.1726875-5.6121559 7.2417641-3.1036148-8.965992z" fill="#ebf0f3" data-original="#EBF0F3"/><path d="m65.6337814 60.6057892-.4669724-10.9405441-2.0930595-1.9554558s-.0500298.4711456-.1584396 1.3383675c-.5712051 4.5738602-2.7684975 20.1466141-7.8802032 35.2941132-5.1116829-15.1433259-7.3131485-30.7119294-7.8843537-35.28994-.1084099-.8672485-.1630173-1.3504333-.1630173-1.3504333l-2.0759583 1.9508286-.0125198.0125198-.4669724 10.9405441 1.8887558 1.8929062-.6962852 3.1896133c1.5468369 7.0129547 9.408493 20.1424408 9.408493 20.1424408s7.8612213-13.1294861 9.4080582-20.1424408l-.6962852-3.1896133z" fill="#3a556a" data-original="#3A556A"/><g fill="#fcd462"><ellipse cx="65.165" cy="31.357" rx="2.668" ry="1.279" transform="matrix(.072 -.997 .997 .072 29.226 94.111)" data-original="#FCD462"/><ellipse cx="44.84" cy="31.357" rx="1.279" ry="2.668" transform="matrix(.997 -.072 .072 .997 -2.128 3.288)" data-original="#FCD462"/><path d="m64.9333344 34.1624413-.3979721-11.7470875-1.3928757-3.7876034-8.1400642-2.1957169-8.1400642 2.1957169-1.3928757 3.7876034-.3979683 11.7470875s-.4642868 2.8544273.5969505 4.9403572 2.0561485 3.0384598 3.4490242 4.4285545c1.3928795 1.3900948 3.2136154 1.8211288 5.8849335 1.9075203 2.6713181-.0863914 4.492054-.5174255 5.8849335-1.9075203 1.3928757-1.3900948 2.3877869-2.3426247 3.4490242-4.4285545 1.0612411-2.0859299.5969543-4.9403572.5969543-4.9403572z" data-original="#FCD462"/></g><path d="m64.4744339 33.8281021s.4124069-5.4117222 1.8525467-9.2820015.0801086-4.739399-1.5221252-7.054142-8.1360168-7.2106524-13.3689995-5.5610762-3.3593941 4.7247248-3.3593941 4.7247248-1.7844353-.8871698-3.2819328.0476189c-1.4974976.9347897-1.956974 4.5971622-1.2959709 7.6207333.6609993 3.0235729 1.8617401 9.0655594 1.8617401 9.0655594l.9700699.0412598s-1.7231827-3.755209-.4145889-8.8167858c1.3085976-5.0615768 3.704937-5.7085133 7.4636421-4.1133137 0 0 2.7498283-1.8176022 5.1432076-.9669361s5.1329918 3.5571537 5.1329918 3.5571537.4877663 5.668293.4347725 6.9141464c-.0529861 1.2458534-.1775208 4.1736069-.1775208 4.1736069z" fill="#3a556a" data-original="#3A556A"/><path d="m85.2112656 61.084446-4.0944977 33.0691948c-.0921021.7269287-.8557663 1.3158188-1.6931076 1.3158188h-48.8400421c-.8465519 0-1.6011143-.5888901-1.6929932-1.3158188l-.0552597-.4140167-4.0485611-32.6551781c-.1196194-.9753265.588892-1.7758293 1.5734863-1.7758293h57.2776031c.9936906-.0000001 1.7020875.8005027 1.573372 1.7758293z" fill="#e6e9ef" data-original="#E6E9EF" class="active-path"/><path d="m72.0811081 59.3086166c-1.9782867 5.0514603-5.8979034 10.7102356-11.6027298 16.2769623-9.4956131 9.256424-21.5493011 15.9181061-31.643013 18.1540451l-4.0485611-32.655178c-.1196194-.9753265.588892-1.7758293 1.5734863-1.7758293h45.7208176z" fill="#ebf0f3" data-original="#EBF0F3"/><path d="m81.4552994 95.2694626h-52.9227486c-.8650856 0-1.5662975.7012634-1.5662975 1.5662994 0 .8650818.7012119 1.5663528 1.5662975 1.5663528h52.9227486c.8650818 0 1.5664062-.7012711 1.5664062-1.5663528 0-.865036-.7013244-1.5662994-1.5664062-1.5662994z" fill="#d5d6db" data-original="#D5D6DB"/></g> </svg>
