<?xml version="1.0"?>
<svg xmlns="http://www.w3.org/2000/svg" xmlns:xlink="http://www.w3.org/1999/xlink" version="1.1" id="Capa_1" x="0px" y="0px" viewBox="0 0 512.6 512.6" style="enable-background:new 0 0 512.6 512.6;" xml:space="preserve" width="512px" height="512px"><g><path style="fill:#FFD15C;" d="M291.484,34.734l-2.133,12.8c0,0-6.4,16-9.6,20.267c0,0-2.133,7.467,2.133,10.667  c2.133,3.2,8.533,7.467,8.533,7.467l-25.6,42.667l-20.267,3.2l-10.667-40.533l5.333-8.533c0,0,7.467-3.2,8.533-6.4  c1.067-3.2,1.067-13.867,1.067-13.867s-3.2-10.667-3.2-14.933s1.067-11.733,1.067-11.733l3.2-13.867c0,0,3.2-11.733,16-10.667  c12.8,1.067,22.4,5.333,22.4,5.333s2.133,6.4,2.133,7.467C290.418,25.134,291.484,34.734,291.484,34.734z" data-original="#FFD15C"/><path style="fill:#425A6B;" d="M247.751,39c0,0,1.067-9.6,2.133-9.6c2.133,0,3.2-5.333,3.2-7.467c1.067-2.133,4.267-6.4,10.667-6.4  c7.467,1.067,23.467,6.4,24.533,7.467s0,6.4-1.067,7.467c-1.067,1.067-1.067,4.267,0,6.4c1.067,2.133,0,10.667,0,10.667l4.267,1.067  c0,0,3.2-16,3.2-20.267s2.133-19.2-14.933-26.667c-16-6.4-26.667,7.467-29.867,10.667C247.751,16.6,245.618,27.267,247.751,39  L247.751,39z" data-original="#425A6B"/><g>
	
		<ellipse transform="matrix(0.4001 -0.9165 0.9165 0.4001 127.8719 295.1435)" style="fill:#FFD15C;" cx="289.38" cy="49.898" rx="7.467" ry="3.2" data-original="#FFD15C"/>
	
		<ellipse transform="matrix(-0.0564 -0.9984 0.9984 -0.0564 217.3539 289.7781)" style="fill:#FFD15C;" cx="245.609" cy="42.18" rx="7.467" ry="3.2" data-original="#FFD15C"/>
</g><path style="fill:#F5B54C;" d="M259.484,88.067c7.467,1.067,11.733,1.067-6.4,6.4c-7.467,2.133-13.867,3.2-18.133,3.2l-2.133-7.467  l5.333-8.533c0,0,7.467-3.2,8.533-6.4c1.067-3.2,1.067-13.867,1.067-13.867s4.267,8.533,8.533,10.667  c4.267,2.133,14.933,2.133,22.4-5.333c-1.067,2.133-6.4,10.667-19.2,13.867C252.018,83.8,252.018,88.067,259.484,88.067z" data-original="#F5B54C"/><path style="fill:#E8EAE8;" d="M205.084,136.067l13.867,23.467l-1.067,10.667h76.8c0-12.8,5.333-26.667,5.333-26.667  c0,1.067,1.067,6.4,1.067,6.4c5.333-7.467,29.867-1.067,29.867-1.067s-2.133-18.133-5.333-28.8s-9.6-18.133-12.8-20.267  c-3.2-2.133-24.533-16-24.533-16s-7.467,9.6-11.733,18.133s-24.533,25.6-24.533,25.6s-2.133,0-6.4-10.667s-5.333-35.2-5.333-35.2  h-1.067c-4.267,2.133-17.067,5.333-25.6,7.467s-10.667,9.6-12.8,14.933c-1.067,5.333-3.2,29.867-3.2,29.867  C201.884,133.934,204.018,136.067,205.084,136.067z" data-original="#E8EAE8"/><path style="fill:#425A6B;" d="M290.418,85.934L290.418,85.934c0,0-7.467,9.6-11.733,18.133s-23.467,24.533-25.6,26.667  l-1.067,1.067h-2.133c-3.2,0-5.333-2.133-9.6-13.867c-4.267-9.6-5.333-28.8-5.333-35.2c1.067,0,2.133-1.067,3.2-1.067h1.067  c0,0,1.067,24.533,5.333,35.2s6.4,10.667,6.4,10.667s19.2-17.067,24.533-25.6C279.751,93.4,287.218,83.8,287.218,83.8  S288.284,84.867,290.418,85.934z" data-original="#425A6B"/><path style="fill:#67C5B8;" d="M291.484,85.934c0,0-16,28.8-18.133,36.267c-2.133,7.467-9.6,27.733-9.6,27.733l-29.867-2.133  c0,0-6.4-19.2-5.333-39.467c1.067-21.333,2.133-23.467,2.133-23.467l-10.667,3.2l-1.067,27.733l1.067,34.133c0,0-6.4,9.6-8.533,12.8  c-3.2,4.267-4.267,50.133-4.267,58.667c0,7.467-10.667,65.067-13.867,77.867c-3.2,12.8-6.4,57.6-6.4,57.6V391  c0,4.267,29.867,4.267,29.867,0l3.2-7.467c0,0,12.8-6.4,16-16c3.2-9.6,16-44.8,16-44.8s0,13.867,2.133,21.333s6.4,30.933,6.4,30.933  l6.4,7.467c11.733,3.2,22.4,5.333,32,2.133c0,0,2.133-17.067,6.4-24.533s-3.2-29.867-5.333-33.067  c-1.067-4.267,8.533-14.933,10.667-33.067c1.067-19.2,1.067-44.8,0-53.333s-13.867-57.6-13.867-76.8  c-4.267-5.333-17.067-11.733-17.067-11.733s-1.067-12.8,5.333-25.6c6.4-12.8,17.067-33.067,17.067-33.067L291.484,85.934z" data-original="#67C5B8"/><g>
	<path style="fill:#344A5E;" d="M284.018,453.934c0,0,7.467,7.467,3.2,16c-4.267,8.533-4.267,8.533-5.333,6.4   C282.951,476.334,284.018,453.934,284.018,453.934" data-original="#344A5E"/>
	<path style="fill:#344A5E;" d="M263.751,478.467c0,0-2.133,7.467,3.2,12.8c4.267,4.267,23.467,1.067,25.6-1.067   c2.133-2.133,1.067-8.533-1.067-11.733c-1.067-3.2-7.467-6.4-7.467-6.4L263.751,478.467z" data-original="#344A5E"/>
</g><path style="fill:#425A6B;" d="M265.884,382.467c0,0,24.533,3.2,32,2.133c0,0-4.267,35.2-7.467,42.667  c-3.2,7.467-5.333,11.733-5.333,17.067c0,5.333,1.067,24.533,3.2,27.733c2.133,3.2,5.333,10.667,1.067,12.8  c-3.2,2.133-11.733,3.2-19.2,2.133c-4.267-1.067-6.4-4.267-6.4-8.533c0-1.067,0-3.2,0-4.267c0-4.267,0-5.333-1.067-9.6  c-1.067-4.267-1.067-17.067,0-21.333c1.067-4.267,0-26.667-1.067-34.133C261.618,400.6,263.751,385.667,265.884,382.467z" data-original="#425A6B"/><path style="fill:#344A5E;" d="M154.951,483.8c0,0-1.067,2.133,1.067,4.267c2.133,2.133,13.867,3.2,20.267,1.067  c7.467-1.067,11.733-5.333,12.8-8.533c1.067-3.2,5.333-5.333,5.333-5.333v3.2l13.867-3.2c0,0,2.133-3.2,1.067-5.333  s-5.333-3.2-5.333-3.2S159.218,479.534,154.951,483.8z" data-original="#344A5E"/><path style="fill:#425A6B;" d="M215.751,389.934c0,0-2.133,26.667-4.267,34.133c-2.133,7.467-3.2,18.133-4.267,23.467  c-1.067,5.333,3.2,12.8,3.2,17.067c0,4.267,0,4.267,0,4.267s-7.467,2.133-12.8,3.2s-6.4,2.133-9.6,6.4  c-3.2,4.267-22.4,11.733-33.067,4.267c0,0,0-3.2,4.267-5.333s19.2-10.667,20.267-23.467c1.067-13.867,4.267-57.6,7.467-64  C195.484,393.134,205.084,393.134,215.751,389.934z" data-original="#425A6B"/><path style="fill:#48B9A5;" d="M248.818,293.934c0-7.467-3.2-7.467-5.333-14.933c0,0,0,10.667,0,11.733l0,0v11.733  c0,1.067,0,2.133,0,2.133c1.067,6.4,2.133,21.333,2.133,33.067c3.2-8.533,5.333-14.933,5.333-14.933  S249.884,300.334,248.818,293.934z" data-original="#48B9A5"/><path style="fill:#FFD15C;" d="M301.084,148.867c0,0,5.333,30.933,7.467,35.2c2.133,4.267,2.133,4.267,0,8.533  c-2.133,4.267-12.8,29.867-17.067,36.267c-3.2,6.4-10.667,16-12.8,19.2c-1.067,3.2-12.8,10.667-16,13.867  c-3.2,3.2-10.667,16-10.667,16s0,4.267,4.267,3.2c0,0-2.133,4.267,0,6.4c2.133,1.067,4.267,0,4.267,0s-4.267,4.267-3.2,6.4  c2.133,3.2,6.4-2.133,7.467-2.133c0,0-1.067,5.333,4.267,3.2c0,0,5.333-8.533,7.467-10.667c2.133-2.133,5.333-5.333,7.467-8.533  c2.133-3.2,5.333-7.467,6.4-10.667c1.067-3.2,9.6-16,11.733-19.2c2.133-3.2,19.2-27.733,21.333-33.067  c2.133-5.333,6.4-11.733,6.4-11.733s2.133-6.4,1.067-13.867c-1.067-7.467-5.333-43.733-5.333-43.733S307.484,135,301.084,148.867z" data-original="#FFD15C"/><path style="fill:#E8EAE8;" d="M323.484,120.067c-3.2-10.667-9.6-18.133-12.8-20.267l-1.067-1.067V131.8h-10.667v11.733l0,0  c0,1.067,1.067,6.4,1.067,6.4c5.333-7.467,29.867-1.067,29.867-1.067S326.684,130.734,323.484,120.067z" data-original="#E8EAE8"/><path style="fill:#FFD15C;" d="M202.951,133.934l9.6,23.467c-1.067,3.2-1.067,6.4-1.067,7.467  c-1.067,3.2-8.533,17.067-13.867,17.067c-4.267,0-9.6-7.467-9.6-11.733c-1.067-4.267-4.267-13.867-1.067-20.267  c3.2-6.4,4.267-17.067,5.333-18.133c1.067-1.067,1.067-19.2,1.067-21.333s2.133-2.133,4.267-2.133c2.133,0,11.733,0,12.8,1.067  c1.067,1.067-1.067,5.333-1.067,5.333v6.4l1.067,6.4c0,0,4.267,1.067,1.067,4.267c0,0,0,0-1.067,0  C208.284,132.867,204.018,132.867,202.951,133.934C201.884,132.867,201.884,132.867,202.951,133.934L202.951,133.934z" data-original="#FFD15C"/><polygon style="fill:#F26F5A;" points="201.884,132.867 332.018,461.4 338.418,459.267 210.418,130.734 " data-original="#F26F5A"/><path style="fill:#CED6E0" d="M357.618,483.8c0,0-23.467,25.6-29.867,28.8c0,0,7.467-8.533,2.133-13.867l12.8-10.667l-11.733-25.6  l6.4-2.133l7.467,25.6l11.733-10.667C356.551,475.267,358.684,479.534,357.618,483.8z" data-original="#CED6E0" class="active-path" data-old_color="#CED6E0"/></g> </svg>
