<?xml version="1.0" encoding="iso-8859-1"?>
<!-- Generator: Adobe Illustrator 19.0.0, SVG Export Plug-In . SVG Version: 6.00 Build 0)  -->
<svg version="1.1" id="Capa_1" xmlns="http://www.w3.org/2000/svg" xmlns:xlink="http://www.w3.org/1999/xlink" x="0px" y="0px"
	 viewBox="0 0 510.949 510.949" style="enable-background:new 0 0 510.949 510.949;" xml:space="preserve">
<path style="fill:#E8EAE8;" d="M184.332,502.844c-2.133,2.133-5.333,3.2-7.467,4.267c-3.2,0-6.4,0-8.533-1.067
	c-33.067-5.333-66.133-6.4-100.267-3.2l0,0c0-4.267,3.2-9.6,7.467-10.667c4.267-2.133,9.6-2.133,13.867-2.133
	c18.133,0,37.333,1.067,55.467,1.067c10.667,0,20.267,0,30.933,1.067c3.2,0,7.467,0,9.6,3.2
	C186.465,496.444,186.465,500.711,184.332,502.844z"/>
<path style="fill:#ACB2BA;" d="M187.532,488.978c-4.267-3.2-9.6-3.2-13.867-3.2c-29.867,0-60.8,4.267-90.667,0
	c-4.267-1.067-8.533-1.067-12.8,0s-7.467,5.333-9.6,8.533c-2.133,4.267-2.133,8.533-2.133,12.8l1.067,1.067
	c36.267-2.133,73.6-2.133,109.867,2.133c5.333,1.067,11.733,1.067,16-2.133c3.2-2.133,5.333-6.4,5.333-9.6
	C192.865,495.378,190.732,491.111,187.532,488.978z M182.199,502.844c-2.133,2.133-4.267,2.133-7.467,2.133
	c-2.133,0-5.333-1.067-7.467-1.067c-5.333-1.067-10.667-1.067-16-2.133c-12.8-1.067-26.667-1.067-39.467-2.133
	c-14.933,0-28.8,0-43.733,2.133l0,0c0-4.267,3.2-7.467,7.467-9.6c4.267-2.133,8.533-2.133,11.733-2.133
	c29.867-1.067,59.733,0,88.533,2.133c3.2,0,6.4,1.067,7.467,3.2C185.399,497.511,184.332,500.711,182.199,502.844z"/>
<polygon style="fill:#425A6B;" points="239.799,293.778 244.065,298.044 144.865,463.378 139.532,460.178 "/>
<ellipse style="fill:#F5B54C;" cx="253.665" cy="279.911" rx="5.333" ry="6.4"/>
<path style="fill:#FFD15C;" d="M255.799,270.311l-8.533-2.133c-1.067-2.133-2.133-6.4-2.133-11.733c0-4.267,2.133-9.6,5.333-22.4
	c3.2-12.8,3.2-29.867,2.133-36.267c0-6.4,1.067-14.933,2.133-20.267s2.133-22.4,2.133-22.4s-21.333-9.6-25.6-1.067
	c-4.267,8.533-3.2,22.4-3.2,29.867c0,7.467,0,13.867-1.067,17.067c-1.067,3.2-2.133,28.8-2.133,32c0,4.267,4.267,19.2,4.267,25.6
	c0,6.4,0,12.8,0,14.933s1.067,14.933,1.067,14.933s0,1.067,0,2.133c0,1.067,7.467,8.533,7.467,8.533s2.133,1.067,5.333,1.067
	c3.2,0,2.133-3.2,2.133-3.2s1.067,0,2.133,0c2.133-1.067,2.133-2.133,2.133-2.133s1.067,1.067,3.2-1.067
	c1.067-2.133,1.067-3.2,1.067-3.2c1.067,0,1.067,0,2.133-1.067c1.067,3.2,3.2,3.2,3.2,3.2l1.067-5.333l2.133-2.133
	c1.067-1.067,1.067-2.133,1.067-3.2l-2.133-8.533C260.065,272.444,257.932,271.378,255.799,270.311z M255.799,284.178l-2.133-2.133
	c-6.4-3.2-3.2-7.467-3.2-7.467l4.267,5.333L255.799,284.178C255.799,283.111,255.799,284.178,255.799,284.178z"/>
<path style="fill:#344A5E;" d="M447.799,491.111c0,0,3.2,0,3.2-1.067l1.067-1.067c0,0,0-2.133-1.067-4.267
	c-1.067-2.133-3.2-6.4-4.267-8.533c-1.067-2.133-3.2-5.333-4.267-11.733c-1.067-6.4,1.067-19.2-5.333-20.267
	c-6.4-1.067-6.4-1.067-6.4-1.067l-14.933,7.467c0,0-2.133,9.6-2.133,13.867c0,3.2,0,5.333,0,5.333s5.333,7.467,5.333,10.667
	c0,2.133,0,4.267,2.133,7.467C423.265,491.111,443.532,496.444,447.799,491.111z"/>
<path style="fill:#425A6B;" d="M452.065,490.044c1.067,3.2,0,5.333-2.133,7.467c-2.133,1.067-18.133,2.133-23.467,0
	s-6.4-7.467-6.4-10.667c0-3.2,0-5.333-1.067-6.4v2.133c0,0-5.333-3.2-5.333-6.4c0-4.267,0-7.467,1.067-10.667
	c0,0,1.067,4.267,3.2,7.467c2.133,3.2,2.133,8.533,3.2,11.733c1.067,2.133,3.2,5.333,9.6,6.4
	C437.132,492.178,449.932,491.111,452.065,490.044z"/>
<path style="fill:#344A5E;" d="M284.599,498.578c0,0-12.8-3.2-12.8-5.333c0-2.133-1.067-6.4,2.133-8.533
	c3.2-1.067,12.8-5.333,14.933-7.467c2.133-2.133,8.533-9.6,9.6-14.933c2.133-5.333,3.2-8.533,3.2-8.533l27.733-5.333
	c0,0,3.2,14.933,4.267,19.2c0,4.267-2.133,10.667-2.133,10.667l-13.867,5.333c0,0-4.267,5.333-7.467,8.533
	c-2.133,3.2-4.267,4.267-10.667,5.333S284.599,498.578,284.599,498.578z"/>
<path style="fill:#FFD15C;" d="M222.732,37.778l6.4,16c0,0,3.2,1.067,3.2,4.267c1.067,3.2,8.533,10.667,11.733,13.867
	c3.2,3.2,7.467,5.333,8.533,8.533c1.067,3.2,6.4,2.133,6.4,2.133l11.733,19.2l23.467,9.6l10.667-38.4l-7.467-12.8
	c0,0-9.6,0-14.933-7.467s-6.4-25.6-6.4-25.6l-30.933-9.6l-24.533,6.4L222.732,37.778z"/>
<g>
	<path style="fill:#425A6B;" d="M224.865,46.311l-2.133-9.6c0,0,8.533,1.067,14.933-7.467c1.067-1.067,2.133-2.133,2.133-2.133
		c3.2-2.133,5.333,0,5.333,1.067c2.133,2.133,9.6,3.2,11.733,3.2c2.133,0,10.667,5.333,12.8,11.733h2.133c0,0-3.2-7.467-3.2-10.667
		c0-3.2,4.267-21.333,4.267-21.333s-12.8-16-28.8-9.6s-19.2,9.6-24.533,17.067l0,0c-4.267,6.4-4.267,14.933,1.067,20.267
		c1.067,1.067,1.067,2.133,2.133,3.2C224.865,45.244,224.865,46.311,224.865,46.311z"/>
	<path style="fill:#425A6B;" d="M261.132,6.844l10.667,3.2c0,0,7.467,9.6,4.267,22.4c-1.067,8.533-3.2,11.733-8.533,2.133
		L250.465,6.844L261.132,6.844z"/>
</g>
<path style="fill:#FFD15C;" d="M280.332,36.711c1.067,5.333-1.067,9.6-4.267,9.6c-3.2,0-6.4-4.267-7.467-9.6s1.067-9.6,4.267-9.6
	C276.065,27.111,279.265,31.378,280.332,36.711z"/>
<path style="fill:#F5B54C;" d="M277.132,51.644c0,0,1.067,6.4-4.267,18.133c-5.333,11.733-13.867,13.867-13.867,13.867l6.4,11.733
	c1.067-2.133,2.133-3.2,3.2-5.333C279.265,71.911,277.132,51.644,277.132,51.644z"/>
<path style="fill:#E8EAE8;" d="M261.132,87.911c0,0,10.667,18.133,21.333,16c11.733-2.133,14.933-17.067,14.933-25.6
	c0-8.533-4.267-18.133-4.267-18.133s8.533,1.067,13.867,1.067c4.267,0,29.867,2.133,34.133,2.133c4.267,0,13.867,2.133,19.2,8.533
	c5.333,6.4,16,17.067,22.4,20.267c6.4,4.267,6.4,4.267,6.4,4.267s-8.533,21.333-25.6,27.733c0,0,6.4,26.667,11.733,35.2
	c5.333,8.533,4.267,19.2,4.267,19.2l-7.467,11.733l-102.4-32c0,0-9.6-3.2-11.733-5.333l1.067,7.467c0,0-19.2,4.267-29.867-2.133
	c0,0-1.067-24.533,2.133-34.133c3.2-9.6,7.467-19.2,10.667-22.4c4.267-5.333,17.067-17.067,17.067-17.067L261.132,87.911z"/>
<path style="fill:#67C5B8;" d="M313.399,61.244c0,0,1.067,9.6,2.133,20.267c2.133,10.667,11.733,55.467,11.733,55.467h6.4
	c0,0,44.8,59.733,45.867,37.333c0,0,3.2,19.2,8.533,33.067c5.333,12.8,8.533,11.733,9.6,24.533c1.067,12.8,0,13.867,3.2,18.133
	c2.133,4.267,16,57.6,18.133,70.4c1.067,12.8,6.4,32,7.467,41.6c2.133,9.6,14.933,85.333,14.933,85.333s-14.933,20.267-38.4-3.2
	c0,0-9.6-32-10.667-37.333c-1.067-5.333-13.867-41.6-18.133-50.133c-3.2-8.533-19.2-50.133-25.6-64
	c-6.4-13.867-11.733-20.267-11.733-20.267s-8.533,50.133-11.733,57.6s-5.333,11.733-5.333,11.733s-1.067,43.733,2.133,58.667
	s8.533,49.067,8.533,49.067s-7.467,6.4-11.733,10.667s-17.067,9.6-22.4,1.067c0,0,0-10.667-2.133-16
	c-2.133-5.333-7.467-26.667-9.6-37.333c-2.133-9.6-5.333-28.8-5.333-28.8s-7.467-24.533-5.333-43.733
	c2.133-19.2,1.067-35.2,1.067-38.4c0-3.2,2.133-30.933,4.267-39.467c2.133-8.533,2.133-10.667,3.2-12.8c0-2.133,2.133-9.6,3.2-12.8
	c1.067-3.2,0-8.533,1.067-13.867c1.067-5.333-2.133-22.4-2.133-26.667c0,0,0,0,0-1.067c0-1.067-12.8-6.4-13.867-10.667
	c-2.133-1.067-4.267-9.6-4.267-16c-1.067-6.4-2.133-9.6-2.133-9.6l4.267-2.133c0,0-8.533-24.533-10.667-37.333
	c-2.133-11.733-3.2-23.467-3.2-27.733l4.267-2.133l1.067,1.067c0,0,6.4,28.8,8.533,34.133s10.667,29.867,10.667,29.867
	s18.133,1.067,21.333,0c2.133-1.067,17.067-7.467,17.067-7.467s-6.4-22.4-7.467-28.8c-1.067-6.4-7.467-44.8-7.467-52.267
	L313.399,61.244z"/>
<path style="fill:#48B9A5;" d="M333.665,268.178c-2.133-1.067-24.533-3.2-27.733-3.2c-3.2,0-8.533,0-1.067,1.067
	c7.467,1.067,19.2,1.067,19.2,1.067s-17.067,4.267-23.467,5.333c-6.4,1.067-13.867,4.267-6.4,2.133c7.467-2.133,28.8-6.4,32-7.467
	c2.133-1.067,4.267,1.067,3.2,2.133c-1.067,1.067-18.133,6.4-26.667,7.467c-8.533,0-14.933,2.133-3.2,2.133
	s30.933-5.333,33.067-7.467c2.133-2.133-4.267,10.667-8.533,16c-5.333,4.267-25.6,23.467-22.4,22.4
	c3.2-1.067,23.467-20.267,27.733-24.533c4.267-5.333,6.4-8.533,6.4-8.533s-2.133,14.933-3.2,20.267
	c2.133-12.8,4.267-23.467,4.267-23.467S335.799,269.244,333.665,268.178z"/>
<g>
	<path style="fill:#425A6B;" d="M271.799,493.244c0,0,7.467,3.2,13.867,3.2c6.4,0,17.067-1.067,20.267-3.2
		c3.2-3.2,7.467-10.667,12.8-12.8c5.333-2.133,13.867-5.333,13.867-10.667c0,0,0,0,0-1.067c-1.067-6.4,4.267,11.733,0,16
		c-4.267,4.267-9.6,5.333-10.667,4.267c-1.067-1.067-5.333-3.2-8.533,0c-3.2,3.2-2.133,3.2-4.267,5.333
		c-2.133,2.133-11.733,8.533-27.733,6.4C282.465,501.778,270.732,500.711,271.799,493.244z"/>
	<path style="fill:#425A6B;" d="M325.132,164.711l-71.467,117.333c-4.267-2.133-4.267-5.333-3.2-6.4l1.067-1.067l68.267-113.067
		L325.132,164.711z"/>
</g>
<rect x="310.99" y="164.687" transform="matrix(-0.52 0.8541 -0.8541 -0.52 629.1854 -15.6508)" style="fill:#F26F5A;" width="15.999" height="8.533"/>
<g>
	<path style="fill:#FFD15C;" d="M420.065,134.844c-1.067-9.6-11.733-19.2-13.867-21.333c-1.067-2.133-9.6-13.867-17.067-17.067
		c-1.067,3.2-9.6,20.267-24.533,26.667c2.133,2.133,9.6,5.333,18.133,6.4c0,0-3.2,4.267-7.467,6.4
		c-1.067,1.067-4.267,2.133-7.467,3.2c-9.6,3.2-24.533,6.4-24.533,6.4l-3.2-8.533c-1.067-2.133-2.133-3.2-4.267-3.2h-7.467
		c-1.067,0-2.133,1.067-3.2,2.133l-2.133,3.2l-3.2,3.2c0,0,1.067,1.067,2.133,1.067c0,0-3.2,0-4.267,2.133
		c0,2.133,0,2.133,1.067,2.133c-1.067,0-3.2-1.067-3.2,1.067c-1.067,3.2,1.067,3.2,1.067,3.2s-1.067,0-2.133,2.133
		c-1.067,2.133,1.067,3.2,1.067,3.2s-1.067,0-2.133,1.067c0,1.067,1.067,3.2,2.133,4.267c1.067,1.067,9.6,4.267,9.6,4.267
		s4.267,2.133,8.533,2.133c3.2-1.067,5.333-3.2,8.533-4.267c3.2-1.067,11.733-3.2,18.133-3.2c2.133,0,8.533-1.067,16-2.133
		c10.667-2.133,22.4-5.333,30.933-9.6C421.132,142.311,421.132,144.444,420.065,134.844z M324.065,143.378
		c2.133,0,4.267-1.067,5.333-3.2c0,0,1.067,2.133,3.2,3.2H324.065z"/>
	<path style="fill:#FFD15C;" d="M324.065,143.378c-1.067,0-2.133,0-2.133,0H324.065z"/>
</g>
<g>
	<path style="fill:#F5B54C;" d="M318.732,148.711h1.067c1.067,0,2.133,0,3.2,1.067c1.067,0,2.133,1.067,3.2,1.067h1.067l0,0l0,0l0,0
		h-1.067c-1.067,0-2.133,0-3.2-1.067c-1.067,0-2.133-1.067-3.2-1.067C319.799,148.711,319.799,148.711,318.732,148.711
		C319.799,148.711,318.732,148.711,318.732,148.711z"/>
	<path style="fill:#F5B54C;" d="M316.599,152.978L316.599,152.978c1.067,0,1.067,0,1.067,0c1.067,0,2.133,1.067,3.2,1.067
		c1.067,0,2.133,1.067,3.2,1.067h1.067l0,0l0,0h-1.067c-1.067,0-2.133-1.067-3.2-1.067s-2.133-1.067-3.2-1.067
		C317.665,154.044,317.665,154.044,316.599,152.978L316.599,152.978z"/>
	<path style="fill:#F5B54C;" d="M315.532,158.311L315.532,158.311c1.067,0,1.067,0,2.133,0c0,0,1.067,0,2.133,1.067
		c1.067,0,1.067,0,2.133,1.067c1.067,0,1.067,0,2.133,1.067c1.067,0,1.067,0,2.133,1.067h1.067l0,0l0,0h-1.067
		c0,0-1.067,0-2.133-1.067c-1.067,0-1.067,0-2.133-1.067c-1.067,0-1.067,0-2.133-1.067c-1.067,0-1.067,0-2.133-1.067
		S316.599,159.378,315.532,158.311L315.532,158.311z"/>
	<path style="fill:#F5B54C;" d="M253.665,291.644L253.665,291.644L253.665,291.644c-1.067-1.067-1.067-1.067-2.133-1.067
		l-1.067-1.067c-1.067,0-2.133-1.067-2.133-2.133c-1.067-1.067-1.067-1.067-2.133-2.133l-1.067-1.067l0,0c0,0,0,0,0-1.067
		c0,0,0,0,1.067,0c0,0,0,0,1.067,0l1.067,1.067l2.133,2.133l2.133,2.133l1.067,1.067
		C252.599,290.578,253.665,290.578,253.665,291.644L253.665,291.644L253.665,291.644L253.665,291.644z"/>
	<path style="fill:#F5B54C;" d="M249.399,295.911L249.399,295.911c-1.067,0-1.067-1.067-1.067-1.067l-1.067-1.067
		c-1.067,0-1.067-1.067-2.133-1.067s-1.067-1.067-2.133-1.067c-1.067,0-1.067-1.067-1.067-1.067l-1.067-1.067l0,0l0,0
		c0,0,1.067,0,1.067,1.067l1.067,1.067c1.067,0,1.067,1.067,2.133,1.067s1.067,1.067,2.133,1.067c1.067,0,1.067,1.067,1.067,1.067
		S249.399,294.844,249.399,295.911L249.399,295.911z"/>
	<path style="fill:#F5B54C;" d="M245.132,299.111L245.132,299.111c-1.067,0-1.067,0-1.067-1.067c0,0-1.067,0-1.067-1.067
		c-1.067,0-1.067-1.067-2.133-1.067c0,0-1.067,0-1.067-1.067c0,0,0,0-1.067-1.067c0,0,0,0-1.067-1.067c0,0,0,0-1.067-1.067l0,0l0,0
		l0,0l0,0l0,0l0,0l1.067,1.067c0,0,0,0,1.067,1.067c0,0,1.067,0,1.067,1.067c1.067,0,1.067,1.067,2.133,1.067l1.067,1.067
		C244.065,298.044,245.132,299.111,245.132,299.111z"/>
	<path style="fill:#F5B54C;" d="M255.799,290.578C255.799,289.511,255.799,289.511,255.799,290.578c0-1.067,0-1.067,0-1.067v-1.067
		v-1.067v-1.067v-1.067c0,0,0,0,0-1.067c0,0,0,0,0-1.067l0,0l0,0l0,0v1.067v1.067v1.067v1.067v1.067
		C254.732,289.511,255.799,289.511,255.799,290.578C255.799,289.511,255.799,290.578,255.799,290.578L255.799,290.578
		L255.799,290.578L255.799,290.578L255.799,290.578z"/>
</g>
<path style="fill:#F26F5A;" d="M156.599,448.444l-23.467,37.333l-5.333,7.467l-6.4-3.2l0,0c2.133-6.4,5.333-11.733,8.533-17.067
	l18.133-28.8L156.599,448.444z"/>
<path style="fill:#425A6B;" d="M132.065,497.511c-6.4,1.067-13.867,1.067-19.2,0c1.067,0,3.2-2.133,5.333-4.267
	c1.067-1.067,3.2-3.2,3.2-4.267c1.067-1.067,2.133-2.133,4.267-2.133s3.2,2.133,4.267,4.267c0,1.067,0,1.067,0,2.133
	c0,1.067,0,3.2,1.067,4.267C130.999,497.511,132.065,497.511,132.065,497.511z"/>
<g>
</g>
<g>
</g>
<g>
</g>
<g>
</g>
<g>
</g>
<g>
</g>
<g>
</g>
<g>
</g>
<g>
</g>
<g>
</g>
<g>
</g>
<g>
</g>
<g>
</g>
<g>
</g>
<g>
</g>
</svg>
