<?xml version="1.0"?>
<svg xmlns="http://www.w3.org/2000/svg" height="512px" viewBox="-94 -27 859 859.3115" width="512px"><g><path d="m371.644531 335.75h-80.558593c-51.824219 0-93.988282-42.167969-93.988282-93.984375v-120.839844c0-66.628906 54.214844-120.8437498 120.839844-120.8437498h26.855469c66.636719 0 120.839843 54.2148438 120.839843 120.8437498v120.839844c0 51.816406-42.167968 93.984375-93.988281 93.984375zm-53.707031-308.8125c-51.824219 0-93.988281 42.164062-93.988281 93.988281v120.839844c0 37.015625 30.121093 67.132813 67.136719 67.132813h80.558593c37.015625 0 67.132813-30.117188 67.132813-67.132813v-120.839844c0-51.824219-42.160156-93.988281-93.984375-93.988281zm0 0" data-original="#000000" class="active-path" data-old_color="#000000" fill="#FFFFFF"/><path d="m653.605469 805.6875h-644.480469c-7.414062 0-13.429688-6.003906-13.429688-13.425781v-107.414063c0-185.089844 150.582032-335.667968 335.667969-335.667968 185.09375 0 335.671875 150.578124 335.671875 335.667968v107.414063c0 7.421875-6.007812 13.425781-13.429687 13.425781zm-631.054688-26.851562h617.628907v-93.988282c0-170.289062-138.527344-308.816406-308.808594-308.816406-170.285156 0-308.816406 138.527344-308.816406 308.816406v93.988282zm0 0" data-original="#000000" class="active-path" data-old_color="#000000" fill="#FFFFFF"/></g> </svg>
