<svg width="148" height="20" viewBox="0 0 148 20" fill="none" xmlns="http://www.w3.org/2000/svg">
<g filter="url(#filter0_d)">
<path d="M9.852 11.112C8.872 11.112 7.98533 10.8973 7.192 10.468C6.408 10.0293 5.792 9.432 5.344 8.676C4.896 7.91067 4.672 7.052 4.672 6.1C4.672 5.148 4.896 4.294 5.344 3.538C5.792 2.77267 6.41267 2.17533 7.206 1.746C7.99933 1.30733 8.886 1.088 9.866 1.088C10.6313 1.088 11.3313 1.21867 11.966 1.48C12.6007 1.732 13.142 2.11 13.59 2.614L12.68 3.496C11.9427 2.72133 11.0233 2.334 9.922 2.334C9.194 2.334 8.536 2.49733 7.948 2.824C7.36 3.15067 6.898 3.60333 6.562 4.182C6.23533 4.75133 6.072 5.39067 6.072 6.1C6.072 6.80933 6.23533 7.45333 6.562 8.032C6.898 8.60133 7.36 9.04933 7.948 9.376C8.536 9.70267 9.194 9.866 9.922 9.866C11.014 9.866 11.9333 9.474 12.68 8.69L13.59 9.572C13.142 10.076 12.596 10.4587 11.952 10.72C11.3173 10.9813 10.6173 11.112 9.852 11.112ZM18.2547 11.084C17.5174 11.084 16.8547 10.9207 16.2667 10.594C15.6787 10.2673 15.2167 9.81933 14.8807 9.25C14.5541 8.67133 14.3907 8.018 14.3907 7.29C14.3907 6.562 14.5541 5.91333 14.8807 5.344C15.2167 4.76533 15.6787 4.31733 16.2667 4C16.8547 3.67333 17.5174 3.51 18.2547 3.51C18.9921 3.51 19.6501 3.67333 20.2287 4C20.8167 4.31733 21.2741 4.76533 21.6007 5.344C21.9367 5.91333 22.1047 6.562 22.1047 7.29C22.1047 8.018 21.9367 8.67133 21.6007 9.25C21.2741 9.81933 20.8167 10.2673 20.2287 10.594C19.6501 10.9207 18.9921 11.084 18.2547 11.084ZM18.2547 9.908C18.7307 9.908 19.1554 9.80067 19.5287 9.586C19.9114 9.362 20.2101 9.054 20.4247 8.662C20.6394 8.26067 20.7467 7.80333 20.7467 7.29C20.7467 6.77667 20.6394 6.324 20.4247 5.932C20.2101 5.53067 19.9114 5.22267 19.5287 5.008C19.1554 4.79333 18.7307 4.686 18.2547 4.686C17.7787 4.686 17.3494 4.79333 16.9667 5.008C16.5934 5.22267 16.2947 5.53067 16.0707 5.932C15.8561 6.324 15.7487 6.77667 15.7487 7.29C15.7487 7.80333 15.8561 8.26067 16.0707 8.662C16.2947 9.054 16.5934 9.362 16.9667 9.586C17.3494 9.80067 17.7787 9.908 18.2547 9.908ZM27.8975 3.51C28.6161 3.51 29.2601 3.66867 29.8295 3.986C30.3988 4.30333 30.8421 4.74667 31.1595 5.316C31.4861 5.88533 31.6495 6.54333 31.6495 7.29C31.6495 8.03667 31.4861 8.69933 31.1595 9.278C30.8421 9.84733 30.3988 10.2907 29.8295 10.608C29.2601 10.9253 28.6161 11.084 27.8975 11.084C27.3655 11.084 26.8755 10.9813 26.4275 10.776C25.9888 10.5707 25.6155 10.272 25.3075 9.88V13.716H23.9635V3.58H25.2515V4.756C25.5501 4.34533 25.9281 4.03733 26.3855 3.832C26.8428 3.61733 27.3468 3.51 27.8975 3.51ZM27.7855 9.908C28.2615 9.908 28.6861 9.80067 29.0595 9.586C29.4421 9.362 29.7408 9.054 29.9555 8.662C30.1795 8.26067 30.2915 7.80333 30.2915 7.29C30.2915 6.77667 30.1795 6.324 29.9555 5.932C29.7408 5.53067 29.4421 5.22267 29.0595 5.008C28.6861 4.79333 28.2615 4.686 27.7855 4.686C27.3188 4.686 26.8941 4.798 26.5115 5.022C26.1381 5.23667 25.8395 5.54 25.6155 5.932C25.4008 6.324 25.2935 6.77667 25.2935 7.29C25.2935 7.80333 25.4008 8.26067 25.6155 8.662C25.8301 9.054 26.1288 9.362 26.5115 9.586C26.8941 9.80067 27.3188 9.908 27.7855 9.908ZM39.8673 3.58L36.2693 11.742C35.952 12.498 35.5787 13.03 35.1493 13.338C34.7293 13.646 34.2207 13.8 33.6233 13.8C33.2593 13.8 32.9047 13.7393 32.5593 13.618C32.2233 13.506 31.9433 13.338 31.7193 13.114L32.2933 12.106C32.676 12.47 33.1193 12.652 33.6233 12.652C33.95 12.652 34.2207 12.5633 34.4353 12.386C34.6593 12.218 34.86 11.924 35.0373 11.504L35.2753 10.986L31.9993 3.58H33.3993L35.9893 9.516L38.5513 3.58H39.8673ZM42.4097 4.826C42.643 4.39667 42.9883 4.07 43.4457 3.846C43.903 3.622 44.4583 3.51 45.1117 3.51V4.812C45.037 4.80267 44.9343 4.798 44.8037 4.798C44.0757 4.798 43.5017 5.01733 43.0817 5.456C42.671 5.88533 42.4657 6.50133 42.4657 7.304V11H41.1217V3.58H42.4097V4.826ZM46.7681 3.58H48.1121V11H46.7681V3.58ZM47.4401 2.152C47.1788 2.152 46.9595 2.068 46.7821 1.9C46.6141 1.732 46.5301 1.52667 46.5301 1.284C46.5301 1.04133 46.6141 0.836 46.7821 0.668C46.9595 0.490666 47.1788 0.402 47.4401 0.402C47.7015 0.402 47.9161 0.486 48.0841 0.654C48.2615 0.812666 48.3501 1.01333 48.3501 1.256C48.3501 1.508 48.2615 1.72267 48.0841 1.9C47.9161 2.068 47.7015 2.152 47.4401 2.152ZM57.7763 3.58V9.992C57.7763 11.2893 57.4543 12.246 56.8103 12.862C56.1663 13.4873 55.205 13.8 53.9263 13.8C53.2263 13.8 52.559 13.702 51.9243 13.506C51.2896 13.3193 50.7763 13.0487 50.3843 12.694L51.0283 11.658C51.3736 11.9567 51.7983 12.19 52.3023 12.358C52.8156 12.5353 53.343 12.624 53.8843 12.624C54.7523 12.624 55.3916 12.4187 55.8023 12.008C56.2223 11.5973 56.4323 10.972 56.4323 10.132V9.544C56.115 9.92667 55.723 10.216 55.2563 10.412C54.799 10.5987 54.2996 10.692 53.7583 10.692C53.049 10.692 52.405 10.5427 51.8263 10.244C51.257 9.936 50.809 9.51133 50.4823 8.97C50.1556 8.41933 49.9923 7.794 49.9923 7.094C49.9923 6.394 50.1556 5.77333 50.4823 5.232C50.809 4.68133 51.257 4.25667 51.8263 3.958C52.405 3.65933 53.049 3.51 53.7583 3.51C54.3183 3.51 54.8363 3.61267 55.3123 3.818C55.7976 4.02333 56.1943 4.32667 56.5023 4.728V3.58H57.7763ZM53.9123 9.516C54.3976 9.516 54.8316 9.41333 55.2143 9.208C55.6063 9.00267 55.9096 8.718 56.1243 8.354C56.3483 7.98067 56.4603 7.56067 56.4603 7.094C56.4603 6.37533 56.2223 5.79667 55.7463 5.358C55.2703 4.91 54.659 4.686 53.9123 4.686C53.1563 4.686 52.5403 4.91 52.0643 5.358C51.5883 5.79667 51.3503 6.37533 51.3503 7.094C51.3503 7.56067 51.4576 7.98067 51.6723 8.354C51.8963 8.718 52.1996 9.00267 52.5823 9.208C52.9743 9.41333 53.4176 9.516 53.9123 9.516ZM64.3063 3.51C65.249 3.51 65.9956 3.78533 66.5463 4.336C67.1063 4.87733 67.3863 5.67533 67.3863 6.73V11H66.0423V6.884C66.0423 6.16533 65.8696 5.624 65.5243 5.26C65.179 4.896 64.6843 4.714 64.0403 4.714C63.3123 4.714 62.7383 4.92867 62.3183 5.358C61.8983 5.778 61.6883 6.38467 61.6883 7.178V11H60.3443V0.611999H61.6883V4.63C61.9683 4.27533 62.3323 4 62.7803 3.804C63.2376 3.608 63.7463 3.51 64.3063 3.51ZM74.0456 10.566C73.8496 10.734 73.6069 10.8647 73.3176 10.958C73.0283 11.042 72.7296 11.084 72.4216 11.084C71.6749 11.084 71.0963 10.8833 70.6856 10.482C70.2749 10.0807 70.0696 9.50667 70.0696 8.76V4.686H68.8096V3.58H70.0696V1.956H71.4136V3.58H73.5416V4.686H71.4136V8.704C71.4136 9.10533 71.5116 9.41333 71.7076 9.628C71.9129 9.84267 72.2023 9.95 72.5756 9.95C72.9863 9.95 73.3363 9.83333 73.6256 9.6L74.0456 10.566ZM83.7563 11.042C82.8416 11.042 82.0063 10.8227 81.2503 10.384C80.5036 9.94533 79.9109 9.348 79.4723 8.592C79.0429 7.836 78.8283 7.00533 78.8283 6.1C78.8283 5.19467 79.0429 4.364 79.4723 3.608C79.9109 2.852 80.5083 2.25467 81.2643 1.816C82.0203 1.37733 82.8603 1.158 83.7843 1.158C84.7083 1.158 85.5436 1.37267 86.2903 1.802C87.0463 2.23133 87.6389 2.824 88.0683 3.58C88.4976 4.32667 88.7123 5.15733 88.7123 6.072C88.7123 6.98667 88.4929 7.82667 88.0543 8.592C87.6156 9.348 87.0183 9.94533 86.2623 10.384C85.5063 10.8227 84.6709 11.042 83.7563 11.042ZM83.7563 10.412C84.5589 10.412 85.2869 10.2207 85.9403 9.838C86.5936 9.45533 87.1069 8.93267 87.4803 8.27C87.8629 7.60733 88.0543 6.87467 88.0543 6.072C88.0543 5.26933 87.8676 4.54133 87.4943 3.888C87.1303 3.23467 86.6216 2.72133 85.9683 2.348C85.3243 1.97467 84.5963 1.788 83.7843 1.788C82.9816 1.788 82.2489 1.97933 81.5863 2.362C80.9329 2.74467 80.4196 3.26733 80.0463 3.93C79.6729 4.58333 79.4863 5.30667 79.4863 6.1C79.4863 6.89333 79.6729 7.62133 80.0463 8.284C80.4196 8.93733 80.9329 9.45533 81.5863 9.838C82.2396 10.2207 82.9629 10.412 83.7563 10.412ZM83.9103 8.984C83.3409 8.984 82.8323 8.86267 82.3843 8.62C81.9363 8.37733 81.5863 8.03667 81.3343 7.598C81.0823 7.15933 80.9563 6.66 80.9563 6.1C80.9563 5.54 81.0823 5.04067 81.3343 4.602C81.5863 4.16333 81.9363 3.82267 82.3843 3.58C82.8323 3.33733 83.3409 3.216 83.9103 3.216C84.3956 3.216 84.8389 3.31867 85.2403 3.524C85.6416 3.72933 85.9543 4.00467 86.1783 4.35L85.3803 4.924C85.0443 4.42 84.5496 4.168 83.8963 4.168C83.3549 4.168 82.9069 4.34533 82.5523 4.7C82.1976 5.05467 82.0203 5.52133 82.0203 6.1C82.0203 6.67867 82.1976 7.14533 82.5523 7.5C82.9069 7.85467 83.3549 8.032 83.8963 8.032C84.5496 8.032 85.0443 7.78 85.3803 7.276L86.1783 7.836C85.9543 8.19067 85.6416 8.47067 85.2403 8.676C84.8389 8.88133 84.3956 8.984 83.9103 8.984ZM101.121 7.332C101.121 7.43467 101.111 7.57 101.093 7.738H95.0726C95.1566 8.39133 95.4413 8.91867 95.9266 9.32C96.4213 9.712 97.0326 9.908 97.7606 9.908C98.6473 9.908 99.3613 9.60933 99.9026 9.012L100.645 9.88C100.309 10.272 99.8886 10.5707 99.3846 10.776C98.89 10.9813 98.3346 11.084 97.7186 11.084C96.9346 11.084 96.2393 10.9253 95.6326 10.608C95.026 10.2813 94.5546 9.82867 94.2186 9.25C93.892 8.67133 93.7286 8.018 93.7286 7.29C93.7286 6.57133 93.8873 5.92267 94.2046 5.344C94.5313 4.76533 94.9746 4.31733 95.5346 4C96.104 3.67333 96.7433 3.51 97.4526 3.51C98.162 3.51 98.792 3.67333 99.3426 4C99.9026 4.31733 100.337 4.76533 100.645 5.344C100.962 5.92267 101.121 6.58533 101.121 7.332ZM97.4526 4.644C96.8086 4.644 96.2673 4.84 95.8286 5.232C95.3993 5.624 95.1473 6.13733 95.0726 6.772H99.8326C99.758 6.14667 99.5013 5.638 99.0626 5.246C98.6333 4.84467 98.0966 4.644 97.4526 4.644ZM105.484 3.51C106.51 3.51 107.294 3.762 107.836 4.266C108.386 4.77 108.662 5.52133 108.662 6.52V11H107.388V10.02C107.164 10.3653 106.842 10.6313 106.422 10.818C106.011 10.9953 105.521 11.084 104.952 11.084C104.121 11.084 103.454 10.8833 102.95 10.482C102.455 10.0807 102.208 9.55333 102.208 8.9C102.208 8.24667 102.446 7.724 102.922 7.332C103.398 6.93067 104.154 6.73 105.19 6.73H107.318V6.464C107.318 5.88533 107.15 5.442 106.814 5.134C106.478 4.826 105.983 4.672 105.33 4.672C104.891 4.672 104.462 4.74667 104.042 4.896C103.622 5.036 103.267 5.22733 102.978 5.47L102.418 4.462C102.8 4.154 103.258 3.92067 103.79 3.762C104.322 3.594 104.886 3.51 105.484 3.51ZM105.176 10.048C105.689 10.048 106.132 9.936 106.506 9.712C106.879 9.47867 107.15 9.152 107.318 8.732V7.696H105.246C104.107 7.696 103.538 8.07867 103.538 8.844C103.538 9.21733 103.682 9.51133 103.972 9.726C104.261 9.94067 104.662 10.048 105.176 10.048ZM113.277 11.084C112.67 11.084 112.087 11.0047 111.527 10.846C110.967 10.678 110.528 10.468 110.211 10.216L110.771 9.152C111.098 9.38533 111.494 9.572 111.961 9.712C112.428 9.852 112.899 9.922 113.375 9.922C114.551 9.922 115.139 9.586 115.139 8.914C115.139 8.69 115.06 8.51267 114.901 8.382C114.742 8.25133 114.542 8.158 114.299 8.102C114.066 8.03667 113.73 7.96667 113.291 7.892C112.694 7.79867 112.204 7.69133 111.821 7.57C111.448 7.44867 111.126 7.24333 110.855 6.954C110.584 6.66467 110.449 6.25867 110.449 5.736C110.449 5.064 110.729 4.52733 111.289 4.126C111.849 3.71533 112.6 3.51 113.543 3.51C114.038 3.51 114.532 3.57067 115.027 3.692C115.522 3.81333 115.928 3.97667 116.245 4.182L115.671 5.246C115.064 4.854 114.35 4.658 113.529 4.658C112.96 4.658 112.526 4.75133 112.227 4.938C111.928 5.12467 111.779 5.372 111.779 5.68C111.779 5.92267 111.863 6.114 112.031 6.254C112.199 6.394 112.404 6.49667 112.647 6.562C112.899 6.62733 113.249 6.702 113.697 6.786C114.294 6.88867 114.775 7.00067 115.139 7.122C115.512 7.234 115.83 7.43 116.091 7.71C116.352 7.99 116.483 8.382 116.483 8.886C116.483 9.558 116.194 10.0947 115.615 10.496C115.046 10.888 114.266 11.084 113.277 11.084ZM124.592 3.58L120.994 11.742C120.677 12.498 120.303 13.03 119.874 13.338C119.454 13.646 118.945 13.8 118.348 13.8C117.984 13.8 117.629 13.7393 117.284 13.618C116.948 13.506 116.668 13.338 116.444 13.114L117.018 12.106C117.401 12.47 117.844 12.652 118.348 12.652C118.675 12.652 118.945 12.5633 119.16 12.386C119.384 12.218 119.585 11.924 119.762 11.504L120 10.986L116.724 3.58H118.124L120.714 9.516L123.276 3.58H124.592ZM125.846 3.58H127.19V11H125.846V3.58ZM126.518 2.152C126.257 2.152 126.038 2.068 125.86 1.9C125.692 1.732 125.608 1.52667 125.608 1.284C125.608 1.04133 125.692 0.836 125.86 0.668C126.038 0.490666 126.257 0.402 126.518 0.402C126.78 0.402 126.994 0.486 127.162 0.654C127.34 0.812666 127.428 1.01333 127.428 1.256C127.428 1.508 127.34 1.72267 127.162 1.9C126.994 2.068 126.78 2.152 126.518 2.152ZM130.078 11.084C129.817 11.084 129.593 10.9953 129.406 10.818C129.22 10.6313 129.126 10.398 129.126 10.118C129.126 9.84733 129.22 9.62333 129.406 9.446C129.593 9.25933 129.817 9.166 130.078 9.166C130.34 9.166 130.559 9.25467 130.736 9.432C130.914 9.60933 131.002 9.838 131.002 10.118C131.002 10.398 130.909 10.6313 130.722 10.818C130.545 10.9953 130.33 11.084 130.078 11.084ZM132.928 3.58H134.272V11H132.928V3.58ZM133.6 2.152C133.339 2.152 133.12 2.068 132.942 1.9C132.774 1.732 132.69 1.52667 132.69 1.284C132.69 1.04133 132.774 0.836 132.942 0.668C133.12 0.490666 133.339 0.402 133.6 0.402C133.862 0.402 134.076 0.486 134.244 0.654C134.422 0.812666 134.51 1.01333 134.51 1.256C134.51 1.508 134.422 1.72267 134.244 1.9C134.076 2.068 133.862 2.152 133.6 2.152ZM140.8 3.51C141.743 3.51 142.49 3.78533 143.04 4.336C143.6 4.87733 143.88 5.67533 143.88 6.73V11H142.536V6.884C142.536 6.16533 142.364 5.624 142.018 5.26C141.673 4.896 141.178 4.714 140.534 4.714C139.806 4.714 139.232 4.92867 138.812 5.358C138.392 5.778 138.182 6.38467 138.182 7.178V11H136.838V3.58H138.126V4.7C138.397 4.31733 138.761 4.02333 139.218 3.818C139.685 3.61267 140.212 3.51 140.8 3.51Z" fill="white"/>
</g>
<defs>
<filter id="filter0_d" x="0.671997" y="0.401993" width="147.208" height="21.398" filterUnits="userSpaceOnUse" color-interpolation-filters="sRGB">
<feFlood flood-opacity="0" result="BackgroundImageFix"/>
<feColorMatrix in="SourceAlpha" type="matrix" values="0 0 0 0 0 0 0 0 0 0 0 0 0 0 0 0 0 0 127 0"/>
<feOffset dy="4"/>
<feGaussianBlur stdDeviation="2"/>
<feColorMatrix type="matrix" values="0 0 0 0 0 0 0 0 0 0 0 0 0 0 0 0 0 0 0.25 0"/>
<feBlend mode="normal" in2="BackgroundImageFix" result="effect1_dropShadow"/>
<feBlend mode="normal" in="SourceGraphic" in2="effect1_dropShadow" result="shape"/>
</filter>
</defs>
</svg>
