<svg width="294" height="239" viewBox="0 0 294 239" fill="none" xmlns="http://www.w3.org/2000/svg">
<g clip-path="url(#clip0)">
<path d="M211.565 141.783L213.878 140.217C214.098 140.065 214.315 139.902 214.538 139.749C209.577 138.813 205.057 136.047 201.725 131.908C198.393 127.77 196.449 122.507 196.215 116.992C196.045 113.198 196.698 109.415 198.122 105.953C199.447 102.714 201.404 99.8327 203.855 97.5135C206.306 95.1942 209.19 93.4929 212.305 92.5295L212.191 102.515L217.191 91.6464C217.211 91.6428 217.232 91.6428 217.253 91.6464C220.151 91.498 223.046 91.9771 225.775 93.0565C228.504 94.1359 231.012 95.7944 233.157 97.9372C235.301 100.08 237.04 102.665 238.274 105.545C239.507 108.425 240.212 111.544 240.347 114.723C240.366 115.185 240.347 115.64 240.347 116.081C242.087 113.904 243.666 111.571 244.713 109.013C246.83 103.833 246.88 97.9674 246.703 90.838C246.369 76.7082 245.815 62.4732 245.09 48.2789C239.869 47.6428 235.026 44.9852 231.431 40.7836C227.836 36.5819 225.725 31.1116 225.476 25.3554C225.445 24.6116 225.455 23.8813 225.476 23.1544C225.476 22.9744 225.476 22.791 225.501 22.611C225.544 21.9079 225.603 21.2116 225.702 20.5255C225.702 20.41 225.739 20.3013 225.758 20.1858C225.849 19.6039 225.957 19.0287 226.083 18.4604C226.133 18.2498 226.179 18.0358 226.232 17.8252C226.387 17.207 226.541 16.5991 226.755 15.9979C226.82 15.7975 226.897 15.6039 226.965 15.4069C227.123 14.9653 227.294 14.5305 227.473 14.0992C227.569 13.8716 227.662 13.6474 227.764 13.4199C227.789 13.3621 227.811 13.3044 227.839 13.2466C230.17 8.19538 234.041 4.19996 238.779 1.95487C243.516 -0.290211 248.822 -0.643003 253.772 0.957822L253.623 13.9531L258.577 3.21994C262.64 5.77152 265.854 9.68151 267.748 14.3788C269.642 19.0762 270.117 24.3147 269.104 29.3294H269.129C269.095 29.5026 269.045 29.6691 269.008 29.8389C268.94 30.1582 268.866 30.4741 268.785 30.7899C268.68 31.1941 268.562 31.5915 268.441 31.9889C268.348 32.2844 268.259 32.5867 268.157 32.8788C268.008 33.3068 267.847 33.7246 267.667 34.1424C267.568 34.3869 267.478 34.6349 267.358 34.876C267.075 35.501 266.765 36.1124 266.429 36.7102C266.314 36.9174 266.184 37.1144 266.064 37.3216C265.828 37.7224 265.59 38.1198 265.333 38.507C265.175 38.7447 265.005 38.9723 264.837 39.2067C264.596 39.5463 264.348 39.886 264.091 40.1951C263.909 40.4226 263.723 40.6468 263.531 40.8744C263.262 41.1869 262.983 41.4892 262.695 41.7881C262.506 41.9885 262.314 42.1888 262.116 42.3791C261.791 42.6949 261.45 42.9972 261.107 43.2927C260.933 43.4422 260.766 43.5984 260.586 43.7411C260.064 44.1668 259.524 44.5664 258.967 44.9401C258.862 45.008 258.75 45.0657 258.658 45.1337C258.193 45.436 257.729 45.7179 257.23 45.9828C257.023 46.0949 256.806 46.1934 256.592 46.2987C256.193 46.4957 255.791 46.6859 255.379 46.8591C255.14 46.9576 254.896 47.0493 254.651 47.1411C254.246 47.2939 253.834 47.4332 253.413 47.5588C253.165 47.6336 252.92 47.7083 252.67 47.7728C252.218 47.8917 251.756 47.9902 251.292 48.0751C251.261 48.0751 251.233 48.0751 251.202 48.0955C251.508 54.0825 251.779 60.0729 252.016 66.0668C253.333 63.101 255.189 60.4616 257.469 58.3106C259.749 56.1596 262.405 54.5423 265.275 53.558C268.146 52.5736 271.169 52.2429 274.16 52.5862C277.15 52.9295 280.046 53.9396 282.668 55.5544L278.764 67.2895L286.795 58.8287C291.095 63.1517 293.655 69.1687 293.916 75.5602C294.019 77.8028 293.83 80.05 293.356 82.2345C292.347 86.9616 290.066 91.2471 286.81 94.5348C283.554 97.8225 279.472 99.9608 275.094 100.672C270.716 101.384 266.245 100.635 262.259 98.5244C258.274 96.4134 254.959 93.0373 252.744 88.834C252.744 89.442 252.784 90.0534 252.8 90.6614C252.945 96.9518 253.128 104.778 250.27 111.768C248.335 116.506 245.217 120.354 242.137 123.802C240.133 126.047 238.056 128.217 235.926 130.32C233.831 133.405 231.097 135.899 227.95 137.595C224.451 140.553 220.829 143.322 217.083 145.903L214.807 147.513C212.705 148.943 210.55 150.411 208.435 151.929C208.807 151.888 209.175 151.844 209.553 151.827C214.234 151.586 218.863 152.984 222.772 155.819C226.681 158.654 229.668 162.779 231.3 167.597L217.498 179.923L232.669 176.061C232.664 180.159 231.714 184.189 229.905 187.774C228.096 191.359 225.488 194.382 222.326 196.562C219.163 198.741 215.548 200.006 211.819 200.237C208.09 200.469 204.368 199.659 201.001 197.884C201.342 198.353 201.686 198.819 202.026 199.284C202.704 200.211 203.379 201.132 204.039 202.045C213.017 214.521 215.519 226.368 211.07 235.4L205.664 232.193C209.999 223.403 203.497 212.153 199.215 206.223C198.568 205.326 197.905 204.423 197.236 203.506C191.499 195.694 184.997 186.822 185.161 175.949C185.394 159.578 199.911 149.704 211.565 141.783Z" fill="#F2F2F2"/>
<path d="M141.029 239C218.917 239 282.058 235.807 282.058 231.867C282.058 227.928 218.917 224.734 141.029 224.734C63.1409 224.734 0 227.928 0 231.867C0 235.807 63.1409 239 141.029 239Z" fill="#3F3D56"/>
<path d="M254.964 229.208C255.893 227.336 254.84 225.043 253.639 223.372C252.437 221.701 250.973 219.976 251.004 217.839C251.047 214.782 254.004 212.979 256.37 211.359C258.121 210.155 259.737 208.729 261.184 207.11C261.791 206.486 262.293 205.751 262.667 204.936C263.153 203.74 263.141 202.382 263.11 201.07C263.007 196.709 262.811 192.353 262.522 188" stroke="#3F3D56" stroke-width="4" stroke-miterlimit="10"/>
<path d="M267.014 187.769C266.979 186.971 266.763 186.196 266.384 185.513C266.006 184.831 265.477 184.264 264.847 183.863L263.875 185.976L263.902 183.422C263.238 183.203 262.534 183.163 261.852 183.305C261.17 183.446 260.529 183.766 259.983 184.236C259.437 184.706 259.002 185.313 258.714 186.006C258.426 186.699 258.294 187.457 258.329 188.218C258.384 189.479 258.892 190.665 259.743 191.515C260.165 191.935 260.658 192.261 261.194 192.473C261.73 192.684 262.299 192.778 262.868 192.749C263.438 192.719 263.996 192.567 264.512 192.301C265.027 192.035 265.49 191.66 265.874 191.198C266.257 190.735 266.554 190.194 266.747 189.606C266.94 189.018 267.025 188.394 266.999 187.769H267.014Z" fill="#57B793"/>
<path d="M259.264 220.037C258.809 221.006 258.064 221.775 257.154 222.214C256.244 222.653 255.224 222.735 254.266 222.447C253.307 222.159 252.467 221.518 251.888 220.632C251.309 219.745 251.025 218.668 251.084 217.579C251.142 216.49 251.541 215.457 252.211 214.652C252.882 213.847 253.784 213.32 254.768 213.158C255.751 212.996 256.755 213.21 257.611 213.764C258.467 214.317 259.124 215.177 259.472 216.199L256.76 218.621L259.744 217.86C259.745 218.617 259.58 219.363 259.264 220.037Z" fill="#57B793"/>
<path d="M257.119 210.768C256.549 210.798 255.979 210.704 255.442 210.492C254.905 210.28 254.411 209.953 253.989 209.531C253.568 209.109 253.226 208.6 252.984 208.033C252.742 207.466 252.605 206.852 252.58 206.226C252.545 205.481 252.674 204.736 252.954 204.056C253.215 203.419 253.599 202.852 254.08 202.396C254.562 201.939 255.129 201.604 255.741 201.413L255.719 203.38L256.704 201.24C257.856 201.181 258.981 201.627 259.834 202.478C260.686 203.33 261.195 204.518 261.249 205.781C261.303 207.045 260.897 208.28 260.121 209.215C259.344 210.15 258.261 210.709 257.109 210.768H257.119Z" fill="#57B793"/>
<path d="M267.667 203.054C266.518 203.114 265.394 202.67 264.542 201.82C263.691 200.97 263.183 199.784 263.128 198.523C263.074 197.262 263.479 196.029 264.253 195.095C265.028 194.161 266.109 193.603 267.259 193.544C268.071 193.5 268.879 193.709 269.587 194.148L268.819 196.458L270.398 194.794C271.245 195.643 271.751 196.827 271.804 198.085C271.824 198.525 271.786 198.967 271.692 199.396C271.476 200.403 270.965 201.305 270.239 201.965C269.513 202.626 268.61 203.008 267.667 203.054Z" fill="#57B793"/>
<path opacity="0.1" d="M266.429 189.026C265.426 189.148 264.45 189.492 263.444 189.559C262.438 189.627 261.333 189.362 260.695 188.503C260.351 188.041 260.181 187.457 259.89 186.954C259.616 186.485 259.24 186.096 258.797 185.823C258.535 186.424 258.391 187.079 258.374 187.746C258.357 188.412 258.469 189.074 258.701 189.69C258.933 190.306 259.28 190.862 259.72 191.321C260.16 191.781 260.684 192.133 261.256 192.356C261.829 192.579 262.438 192.668 263.043 192.616C263.649 192.565 264.238 192.374 264.772 192.056C265.306 191.739 265.774 191.302 266.144 190.773C266.514 190.245 266.779 189.637 266.921 188.989C266.754 188.996 266.59 189.009 266.429 189.026Z" fill="black"/>
<path opacity="0.1" d="M267.667 203.054C266.918 203.096 266.171 202.923 265.501 202.554C264.831 202.184 264.259 201.63 263.842 200.945C263.426 200.26 263.178 199.469 263.124 198.648C263.07 197.827 263.211 197.004 263.534 196.261C263.879 196.516 264.175 196.843 264.407 197.222C264.717 197.735 264.902 198.326 265.268 198.798C265.943 199.671 267.101 199.956 268.15 199.902C269.2 199.848 270.209 199.525 271.247 199.42C271.389 199.42 271.538 199.393 271.683 199.389C271.468 200.396 270.96 201.298 270.235 201.96C269.51 202.621 268.609 203.005 267.667 203.054Z" fill="black"/>
<path opacity="0.1" d="M257.119 210.768C256.549 210.798 255.979 210.704 255.442 210.492C254.905 210.28 254.411 209.953 253.989 209.531C253.568 209.109 253.226 208.6 252.984 208.033C252.742 207.466 252.605 206.852 252.58 206.226C252.545 205.481 252.674 204.736 252.954 204.056C253.315 204.315 253.63 204.642 253.883 205.024C254.221 205.547 254.431 206.148 254.812 206.631C255.546 207.527 256.778 207.843 257.89 207.813C259.001 207.782 260.001 207.497 261.073 207.408C260.808 208.346 260.287 209.172 259.579 209.773C258.872 210.374 258.013 210.721 257.119 210.768Z" fill="black"/>
<path opacity="0.1" d="M259.264 220.037C259.031 220.608 258.697 221.122 258.282 221.551C257.867 221.98 257.378 222.316 256.845 222.538C256.312 222.76 255.744 222.865 255.174 222.846C254.604 222.828 254.043 222.686 253.523 222.43C253.002 222.173 252.533 221.807 252.142 221.352C251.751 220.896 251.445 220.361 251.243 219.776C251.04 219.191 250.945 218.568 250.962 217.943C250.979 217.317 251.108 216.702 251.341 216.131C251.698 216.391 252.019 216.705 252.295 217.065C252.707 217.619 252.979 218.244 253.459 218.763C254.348 219.718 255.781 220.122 257.057 220.149C257.794 220.16 258.531 220.122 259.264 220.037Z" fill="black"/>
<path d="M248.412 227.051C248.412 227.051 251.84 226.935 252.874 226.127C253.908 225.319 258.137 224.354 258.407 225.651C258.676 226.949 263.562 232.105 259.689 232.125C255.815 232.146 250.691 231.446 249.66 230.767C248.629 230.087 248.412 227.051 248.412 227.051Z" fill="#656380"/>
<path opacity="0.2" d="M259.757 231.674C255.887 231.708 250.759 230.994 249.728 230.315C248.945 229.792 248.629 227.907 248.527 227.037H248.412C248.412 227.037 248.629 230.07 249.651 230.773C250.673 231.477 255.806 232.159 259.679 232.132C260.797 232.132 261.184 231.684 261.162 231.038C261.017 231.422 260.59 231.667 259.757 231.674Z" fill="black"/>
<path d="M60.192 218.729C57.9442 214.164 60.5016 208.573 63.4244 204.504C66.3471 200.435 69.9263 196.203 69.8489 191.017C69.7374 183.564 62.5296 179.166 56.7708 175.216C52.4975 172.284 48.5555 168.808 45.0271 164.86C43.6122 163.273 42.2406 161.582 41.417 159.558C40.2281 156.643 40.2591 153.332 40.3365 150.139C40.5842 139.496 41.063 128.874 41.7731 118.272" stroke="#3F3D56" stroke-width="4" stroke-miterlimit="10"/>
<path d="M30.8221 117.691C30.9068 115.747 31.4355 113.857 32.3595 112.196C33.2835 110.534 34.5732 109.153 36.1103 108.181L38.4819 113.327L38.4107 107.097C40.5653 106.401 42.8659 106.474 44.9803 107.305C47.0948 108.137 48.9136 109.684 50.1743 111.723C51.435 113.763 52.0722 116.189 51.9939 118.651C51.9157 121.114 51.126 123.486 49.739 125.424C48.352 127.362 46.4393 128.767 44.2772 129.434C42.1151 130.102 39.8155 129.999 37.7103 129.14C35.6052 128.28 33.8035 126.709 32.5653 124.653C31.3272 122.597 30.7167 120.163 30.8221 117.702V117.691Z" fill="#57B793"/>
<path d="M49.7147 196.342C50.7798 198.62 52.5006 200.447 54.6099 201.541C56.7191 202.635 59.0986 202.934 61.3787 202.392C63.6588 201.85 65.7119 200.497 67.2189 198.543C68.7259 196.589 69.6026 194.144 69.7126 191.587C69.7866 189.98 69.5514 188.374 69.0222 186.873C68.2487 184.671 66.8827 182.78 65.1059 181.451C63.3292 180.121 61.2257 179.417 59.075 179.43C56.9244 179.444 54.8285 180.175 53.0658 181.527C51.3031 182.879 49.9572 184.787 49.2069 186.998L55.8234 192.902L48.5444 191.044C48.5413 192.887 48.9428 194.705 49.7147 196.342Z" fill="#57B793"/>
<path d="M54.9441 173.782C57.5416 173.913 60.0921 172.991 62.11 171.191C64.1279 169.392 65.4723 166.842 65.8872 164.026C66.3022 161.21 65.7587 158.325 64.3602 155.92C62.9618 153.515 60.806 151.759 58.3034 150.985L58.3591 155.77L55.9751 150.563H55.9472C53.1401 150.42 50.396 151.505 48.3184 153.581C46.2409 155.657 45.0002 158.553 44.8692 161.633C44.7382 164.712 45.7277 167.723 47.62 170.002C49.5124 172.281 52.1524 173.642 54.9595 173.786L54.9441 173.782Z" fill="#57B793"/>
<path d="M29.2276 155.009C30.8676 155.097 32.5039 154.765 34.007 154.04C35.5102 153.315 36.8393 152.217 37.8892 150.832C38.9391 149.447 39.6813 147.813 40.057 146.06C40.4328 144.306 40.4318 142.481 40.0543 140.728C39.6767 138.975 38.9329 137.342 37.8816 135.958C36.8302 134.574 35.5001 133.478 33.9961 132.755C32.4922 132.032 30.8557 131.702 29.2157 131.792C27.5757 131.881 25.9771 132.388 24.5462 133.271L26.4039 138.9L22.5678 134.834C21.5423 135.858 20.7109 137.093 20.1212 138.47C19.5315 139.846 19.195 141.337 19.1311 142.857C19.0819 143.932 19.1726 145.009 19.4004 146.056C19.927 148.518 21.1716 150.725 22.9452 152.341C24.7188 153.957 26.9245 154.894 29.2276 155.009Z" fill="#57B793"/>
<path opacity="0.1" d="M32.2463 120.789C34.6922 121.085 37.0701 121.917 39.5222 122.083C41.9744 122.25 44.6711 121.608 46.2223 119.515C47.0582 118.388 47.4762 116.961 48.1821 115.731C48.851 114.586 49.7679 113.64 50.851 112.977C51.5255 114.45 51.9067 116.063 51.9693 117.71C52.0319 119.357 51.7746 120.999 51.2143 122.529C50.654 124.058 49.8036 125.439 48.7196 126.581C47.6355 127.722 46.3426 128.597 44.9266 129.148C43.5107 129.7 42.004 129.914 40.5067 129.778C39.0094 129.641 37.5556 129.157 36.2419 128.357C34.9282 127.557 33.7846 126.46 32.887 125.138C31.9894 123.816 31.3584 122.3 31.0357 120.691C31.4475 120.711 31.85 120.741 32.2463 120.789Z" fill="black"/>
<path opacity="0.1" d="M29.2275 155.009C31.0531 155.102 32.8695 154.675 34.5003 153.77C36.1311 152.865 37.521 151.513 38.5351 149.845C39.5492 148.177 40.1531 146.25 40.288 144.251C40.423 142.252 40.0845 140.248 39.3055 138.434C38.4643 139.055 37.7409 139.848 37.1753 140.771C36.4199 142.021 35.9647 143.465 35.0761 144.613C33.4259 146.739 30.6084 147.435 28.051 147.309C25.4936 147.184 23.026 146.382 20.4809 146.127C20.128 146.093 19.7688 146.066 19.4128 146.056C19.9388 148.516 21.1815 150.721 22.9526 152.337C24.7237 153.953 26.9267 154.891 29.2275 155.009Z" fill="black"/>
<path opacity="0.1" d="M54.9441 173.782C56.7519 173.875 58.5512 173.459 60.1706 172.572C61.7899 171.686 63.1752 170.359 64.1942 168.718C65.2132 167.077 65.832 165.178 65.9916 163.2C66.1511 161.222 65.8461 159.233 65.1056 157.421C64.2332 158.057 63.4745 158.863 62.8671 159.799C62.0435 161.072 61.5295 162.54 60.5666 163.715C58.7802 165.899 55.7769 166.67 53.0678 166.599C50.4454 166.537 47.9189 165.831 45.312 165.61C45.9574 167.893 47.2283 169.902 48.9518 171.365C50.6753 172.827 52.7676 173.671 54.9441 173.782Z" fill="black"/>
<path opacity="0.1" d="M49.7147 196.342C50.7798 198.62 52.5006 200.447 54.6099 201.541C56.7191 202.635 59.0986 202.934 61.3787 202.392C63.6588 201.85 65.7119 200.497 67.2189 198.543C68.7259 196.589 69.6026 194.144 69.7126 191.587C69.7866 189.98 69.5514 188.374 69.0222 186.873C68.1506 187.501 67.3681 188.267 66.7001 189.145C65.6939 190.504 65.0282 192.019 63.864 193.275C61.6967 195.605 58.2012 196.57 55.0896 196.672C53.2936 196.679 51.4988 196.569 49.7147 196.342Z" fill="black"/>
<path d="M133.512 225.516L92.6427 234.686L91.7138 234.584L55.7986 230.61V180.681L99.7638 172.529L131.654 176.605L131.663 176.826L131.666 176.934L133.512 225.516Z" fill="#FF5F6D"/>
<path opacity="0.1" d="M133.512 225.516L92.6426 234.686L91.7138 234.584V183.398L131.663 176.826L133.512 225.516Z" fill="black"/>
<path opacity="0.05" d="M131.666 176.934L131.654 176.945L91.7138 183.398L55.7986 180.681L99.7638 172.529L131.654 176.605L131.663 176.826L131.666 176.934Z" fill="black"/>
<path d="M178.406 227.554L137.537 236.724L136.608 236.622L100.693 232.648V182.719L144.658 174.567L176.548 178.643L176.557 178.864L176.56 178.972L178.406 227.554Z" fill="#3F3D56"/>
<path opacity="0.1" d="M178.406 227.554L137.537 236.724L136.608 236.622V185.436L176.557 178.864L178.406 227.554Z" fill="black"/>
<path opacity="0.05" d="M176.56 178.972L176.548 178.983L136.608 185.436L100.693 182.719L144.658 174.567L176.548 178.643L176.557 178.864L176.56 178.972Z" fill="black"/>
<path d="M150.231 178.643L109.362 187.814L108.433 187.712L72.5178 183.738V133.808L116.483 125.656L148.373 129.732L148.382 129.953L148.386 130.062L150.231 178.643Z" fill="#3F3D56"/>
<path opacity="0.1" d="M150.231 178.643L109.362 187.814L108.433 187.712V136.525L148.382 129.953L150.231 178.643Z" fill="black"/>
<path opacity="0.05" d="M148.386 130.062L148.373 130.072L108.433 136.525L72.5178 133.808L116.483 125.656L148.373 129.732L148.382 129.953L148.386 130.062Z" fill="black"/>
<path d="M173.452 180.735L152.123 185.524L151.636 185.47L132.892 183.395V157.336L155.838 153.08L172.483 155.21L172.489 155.325V155.38L173.452 180.735Z" fill="#3F3D56"/>
<path opacity="0.1" d="M173.452 180.735L152.123 185.524L151.636 185.47V158.756L172.489 155.325L173.452 180.735Z" fill="black"/>
<path opacity="0.05" d="M172.489 155.38L172.483 155.387L151.636 158.756L132.892 157.336L155.838 153.08L172.483 155.21L172.489 155.325V155.38Z" fill="black"/>
<path d="M116.173 130.126L94.844 134.912L94.3579 134.861L75.6139 132.786V106.727L98.5594 102.471L115.204 104.601L115.21 104.716V104.771L116.173 130.126Z" fill="#3F3D56"/>
<path opacity="0.1" d="M116.173 130.126L94.844 134.912L94.3579 134.861V108.147L115.21 104.716L116.173 130.126Z" fill="black"/>
<path opacity="0.05" d="M115.21 104.771L115.204 104.778L94.3579 108.147L75.6139 106.727L98.5594 102.471L115.204 104.601L115.21 104.716V104.771Z" fill="black"/>
<path d="M153.637 129.107L132.307 133.893L131.821 133.842L113.077 131.767V105.708L136.023 101.452L152.667 103.582L152.674 103.697V103.752L153.637 129.107Z" fill="#FF5F6D"/>
<path opacity="0.1" d="M153.637 129.107L132.307 133.893L131.821 133.842V107.128L152.674 103.697L153.637 129.107Z" fill="black"/>
<path opacity="0.05" d="M152.674 103.752L152.667 103.759L131.821 107.128L113.077 105.708L136.023 101.452L152.667 103.582L152.674 103.697V103.752Z" fill="black"/>
<path d="M164.783 102.954L143.453 107.739L142.967 107.688L124.223 105.613V79.5546L147.169 75.2987L163.814 77.4283L163.82 77.5438V77.5982L164.783 102.954Z" fill="#3F3D56"/>
<path opacity="0.1" d="M164.783 102.954L143.453 107.739L142.967 107.688V80.9743L163.82 77.5438L164.783 102.954Z" fill="black"/>
<path opacity="0.05" d="M163.82 77.5982L163.814 77.6049L142.967 80.9743L124.223 79.5546L147.169 75.2987L163.814 77.4283L163.82 77.5438V77.5982Z" fill="black"/>
<path d="M179.31 49.6817C179.084 51.8895 177.548 53.6693 176.978 55.7955C176.124 59.0053 177.598 62.4528 179.629 64.9663C181.265 66.9634 183.247 68.5843 185.459 69.7353C187.671 70.8862 190.069 71.5442 192.515 71.6711C193.233 71.739 193.957 71.6524 194.645 71.4164C195.258 71.1428 195.81 70.7281 196.264 70.2004C197.787 68.5191 198.608 66.1924 198.933 63.8454C199.258 61.4984 199.134 59.1106 199.007 56.7432C199.007 56.2532 198.925 55.7675 198.766 55.3098C198.559 54.8746 198.273 54.4899 197.927 54.1788C196.829 53.0717 195.618 52.1064 194.32 51.3019C193.763 50.9622 193.165 50.6226 192.809 50.0349C192.565 49.567 192.406 49.0513 192.341 48.5167L191.942 46.2885C191.871 45.6461 191.671 45.0289 191.357 44.4815C190.654 43.4422 189.307 43.2995 188.128 43.2486L183.793 43.0618C182.446 43.004 180.675 42.5795 179.359 42.8716C178.121 43.1399 178.539 44.383 178.762 45.5107C179.084 46.8746 179.268 48.2734 179.31 49.6817Z" fill="#FFC0C6"/>
<path opacity="0.1" d="M179.31 49.6817C179.084 51.8895 177.548 53.6693 176.978 55.7955C176.124 59.0053 177.598 62.4528 179.629 64.9663C181.265 66.9634 183.247 68.5843 185.459 69.7353C187.671 70.8862 190.069 71.5442 192.515 71.6711C193.233 71.739 193.957 71.6524 194.645 71.4164C195.258 71.1428 195.81 70.7281 196.264 70.2004C197.787 68.5191 198.608 66.1924 198.933 63.8454C199.258 61.4984 199.134 59.1106 199.007 56.7432C199.007 56.2532 198.925 55.7675 198.766 55.3098C198.559 54.8746 198.273 54.4899 197.927 54.1788C196.829 53.0717 195.618 52.1064 194.32 51.3019C193.763 50.9622 193.165 50.6226 192.809 50.0349C192.565 49.567 192.406 49.0513 192.341 48.5167L191.942 46.2885C191.871 45.6461 191.671 45.0289 191.357 44.4815C190.654 43.4422 189.307 43.2995 188.128 43.2486L183.793 43.0618C182.446 43.004 180.675 42.5795 179.359 42.8716C178.121 43.1399 178.539 44.383 178.762 45.5107C179.084 46.8746 179.268 48.2734 179.31 49.6817Z" fill="black"/>
<path d="M206.837 149.12L204.998 171.238C204.518 177.04 204.029 182.865 203.088 188.591C202.778 190.565 202.382 192.528 201.93 194.474C200.673 199.878 198.849 205.16 198.261 210.7C198.243 210.859 198.227 211.039 198.212 211.185C198.091 212.408 197.986 213.645 197.592 214.786C197.283 215.632 196.846 216.403 196.527 217.238C195.908 218.909 195.809 220.757 195.732 222.567C193.5 221.185 191.056 220.264 188.521 219.85C187.282 219.65 185.935 219.51 185.115 218.491C184.186 217.384 184.295 215.689 184.449 214.202C184.936 209.582 185.422 204.965 185.905 200.35C186.066 198.365 186.376 196.397 186.833 194.467C187.001 193.826 187.202 193.194 187.406 192.562C187.688 191.692 187.973 190.823 188.186 189.93C188.483 188.494 188.687 187.038 188.799 185.572C189.298 180.925 189.899 176.289 190.425 171.646L190.453 171.401C191.242 164.364 191.843 157.292 191.669 150.203C191.645 149.154 191.604 148.104 191.543 147.051C191.456 145.526 191.329 144.718 192.471 143.763C193.744 142.711 195.419 141.973 196.874 141.284C197.657 140.91 206.283 137.548 206.472 138.288C206.873 139.861 207.081 141.485 207.091 143.118C207.109 145.122 207.024 147.126 206.837 149.12Z" fill="#605D82"/>
<path opacity="0.1" d="M203.088 188.591C202.778 190.565 202.382 192.528 201.93 194.474C200.673 199.878 198.849 205.16 198.261 210.7C198.243 210.859 198.227 211.039 198.212 211.185C194.366 205.16 191.128 198.679 187.375 192.589C187.657 191.72 187.942 190.85 188.155 189.957C188.463 188.514 188.678 187.048 188.799 185.572C189.298 180.925 189.899 176.289 190.425 171.646L190.453 171.401C190.67 172.387 190.981 173.344 191.382 174.258C193.902 179.876 199.89 182.715 202.819 188.092C202.916 188.26 203.006 188.426 203.088 188.591Z" fill="black"/>
<path d="M171.885 139.198C172.012 143.702 172.669 148.169 173.325 152.618L174.678 161.789C175.418 166.816 176.192 171.941 178.359 176.442C179.982 179.811 182.316 182.685 184.431 185.704C189.626 193.129 193.53 201.543 198.456 209.185C199.89 211.406 201.936 213.811 204.379 213.346C205.983 213.043 207.147 211.576 208.404 210.448C209.89 209.117 211.68 208.142 212.85 206.471C214.021 204.8 214.25 202.028 212.664 200.839C212.123 200.435 211.463 200.282 210.85 200.024C208.395 199.005 206.803 196.37 205.794 193.707C204.785 191.044 204.169 188.187 202.822 185.711C199.893 180.334 193.902 177.495 191.382 171.873C189.97 168.728 189.834 165.08 189.728 161.592L189.453 152.656C189.422 151.677 189.4 150.662 189.762 149.769C190.725 147.391 193.636 147.167 195.995 146.865C198.67 146.522 201.262 145.625 203.633 144.222C204.992 143.417 206.317 142.391 207.039 140.897C207.701 139.538 207.791 137.938 207.869 136.396L208.686 120.198C208.757 118.805 208.819 117.362 208.376 116.058C207.252 112.776 203.475 111.703 200.283 111.859C194.345 112.152 188.864 114.954 183.254 116.849C181.864 117.318 180.468 117.739 179.034 118.055C177.796 118.33 176.248 118.218 175.059 118.659C172.929 119.447 172.981 124.563 172.681 126.682C172.061 130.818 171.795 135.008 171.885 139.198Z" fill="#605D82"/>
<path d="M203.574 214.032C204.097 214.613 204.268 215.462 204.404 216.263C205.161 220.712 205.554 225.226 205.58 229.751C205.547 230.173 205.623 230.597 205.8 230.974C205.949 231.197 206.149 231.373 206.379 231.483C207.893 232.275 209.649 231.171 210.912 229.958C213.25 227.713 215.228 224.697 215.361 221.29C215.395 220.414 215.305 219.527 215.445 218.661C215.649 217.377 216.333 216.26 216.934 215.139C217.962 213.229 218.792 211.198 219.411 209.086C219.64 208.292 219.795 207.293 219.225 206.739C219.026 206.565 218.798 206.435 218.553 206.356L211.711 203.57C211.116 203.329 209.643 207.483 209.41 207.938C208.838 209.049 208.268 209.677 207.119 209.936C205.971 210.194 204.553 209.82 203.457 210.462C201.599 211.545 202.525 212.874 203.574 214.032Z" fill="#535070"/>
<path d="M193.023 216.596C192.896 216.319 192.719 216.073 192.502 215.873C192.186 215.652 191.826 215.518 191.453 215.482C190.152 215.238 188.611 215.078 187.71 216.141C186.867 217.136 187.013 218.756 186.31 219.877C186.087 220.217 185.784 220.523 185.592 220.896C185.353 221.468 185.247 222.096 185.282 222.724C185.245 224.452 185.208 226.188 185.319 227.914C185.409 229.361 185.629 230.879 186.456 232.013C187.781 233.834 190.171 234.095 192.289 234.211L194.007 234.309C194.48 234.37 194.958 234.321 195.413 234.167C195.694 234.025 195.947 233.822 196.155 233.57C196.364 233.319 196.524 233.024 196.626 232.703C197.521 230.264 196.106 227.638 195.233 225.193C194.227 222.377 194.407 219.256 193.023 216.596Z" fill="#535070"/>
<path d="M178.814 37.2333C178.792 36.986 178.825 36.7366 178.91 36.5064C179.161 36.0207 179.818 36.1667 180.313 36.289C182.304 36.8393 184.403 36.34 186.456 36.469C188.508 36.5981 190.818 37.7224 191.23 39.9301C192.719 38.7739 194.003 37.328 195.016 35.664C195.586 34.73 196.081 33.6601 196.004 32.5392C195.893 30.9224 194.657 29.7132 193.527 28.6875L190.121 25.6306C189.673 25.1791 189.155 24.8181 188.592 24.564C187.806 24.2685 186.945 24.4112 186.115 24.4112C183.638 24.4112 180.982 23.1714 178.774 24.4112C177.845 24.9309 177.155 25.8242 176.486 26.6937L173.443 30.6473C173.212 30.8993 173.044 31.2114 172.953 31.5542C172.867 32.0365 173.093 32.512 173.173 32.9977C173.316 33.8808 172.969 34.8251 173.235 35.6742C173.678 37.0804 175.238 37.2808 176.192 38.0892C176.545 38.3881 177.102 39.4105 177.526 39.3969C178.273 39.3799 178.793 37.8854 178.814 37.2333Z" fill="#3F3D56"/>
<path d="M183.979 48.8937C189.365 48.8937 193.732 44.1035 193.732 38.1945C193.732 32.2855 189.365 27.4953 183.979 27.4953C178.592 27.4953 174.226 32.2855 174.226 38.1945C174.226 44.1035 178.592 48.8937 183.979 48.8937Z" fill="#FFC0C6"/>
<path d="M186.264 61.6071C185.933 60.5701 185.311 59.675 184.487 59.0511C183.663 58.4272 182.679 58.1067 181.678 58.1358C181.391 58.1959 181.094 58.1542 180.83 58.0169C180.68 57.8915 180.56 57.7284 180.48 57.5414C179.889 56.3704 179.412 55.1339 179.059 53.8527C178.904 53.2855 178.69 52.6163 178.167 52.4703C177.746 52.3514 177.316 52.6503 177.034 53.0137C176.784 53.4037 176.513 53.7769 176.223 54.1312C174.984 55.3336 172.817 54.2365 171.52 55.3404C171.306 55.5204 171.13 55.7514 170.901 55.9178C170.678 56.0668 170.437 56.1811 170.185 56.2575C167.667 57.1562 165.198 58.2144 162.792 59.4265C163.659 65.1463 164.544 70.9748 166.575 76.3244C167.541 78.8719 168.634 81.3684 169.408 83.9939C171.124 89.8122 171.198 96.0382 171.22 102.155C171.22 106.34 171.22 110.613 169.981 114.573C169.702 115.47 169.362 116.36 169.284 117.291C169.207 118.221 169.461 119.274 170.158 119.831C170.561 120.123 171.023 120.301 171.504 120.351C173.644 120.691 175.799 120.072 177.904 119.536C183.548 118.102 189.307 117.28 195.05 116.479L204.679 115.12C205.37 115.067 206.046 114.875 206.673 114.553C208.435 113.497 208.602 110.589 207.506 108.741C206.983 107.855 206.243 107.128 205.8 106.191C205.358 105.253 205.323 103.935 206.082 103.286C207.63 101.962 207.166 99.5061 207.24 97.3594C207.446 91.3543 207.419 85.3537 207.156 79.3576C207.078 78.1141 207.059 76.867 207.101 75.6214C207.209 73.5087 207.686 71.4402 208.163 69.3852L211.088 56.75C210.324 55.4253 208.859 54.583 207.475 54.2026C206.091 53.8221 204.645 53.71 203.28 53.2447C200.494 52.2937 197.992 49.8821 195.072 50.1063C194.851 50.1106 194.633 50.1686 194.434 50.2761C193.778 50.6871 193.88 51.7264 193.84 52.5552C193.747 54.3928 192.515 55.9246 191.159 57.0013C189.803 58.078 188.248 58.8592 187.001 60.0854C186.784 60.2646 186.606 60.4937 186.478 60.7566C186.351 61.0195 186.278 61.3098 186.264 61.6071Z" fill="#3F3D56"/>
<path d="M147.621 73.5936C146.975 74.0543 146.288 74.4424 145.571 74.7518C144.89 75.0473 144.162 75.2817 143.605 75.798C143.329 76.0606 143.098 76.3745 142.921 76.7252C142.591 77.3675 142.424 78.0951 142.438 78.8322C142.452 79.5693 142.645 80.2888 142.999 80.9158C143.352 81.5427 143.853 82.0541 144.448 82.3966C145.043 82.7391 145.711 82.9001 146.382 82.8629C147.277 82.8119 148.122 82.4145 148.943 82.0239L155.822 78.7394C156.987 78.1858 158.244 77.5404 158.795 76.2837C158.858 76.166 158.882 76.028 158.863 75.8931C158.81 75.745 158.708 75.624 158.578 75.5534C157.028 74.4469 155.672 73.0433 154.575 71.4096C154.293 70.9884 153.955 69.9966 153.547 69.7419C152.092 68.8554 148.788 72.7648 147.621 73.5936Z" fill="#FFC0C6"/>
<path d="M221.16 70.9273L223.696 74.1065C224.241 74.7858 224.786 75.4651 225.281 76.1988C226.5 78.0406 227.478 80.0608 228.185 82.2005C228.736 83.7867 229.195 85.4782 229.003 87.1629C228.874 88.0266 228.661 88.8727 228.368 89.6866C227.903 91.2512 227.327 92.7731 226.643 94.238C226.073 95.3495 225.428 96.4133 224.715 97.4206C222.751 100.276 220.601 102.972 218.284 105.487C217.417 106.428 217.045 107.953 216.677 109.224C215.98 111.571 214.324 113.401 212.723 115.134C212.208 115.731 211.639 116.268 211.023 116.737C210.102 117.389 209.024 117.725 207.927 117.702C207.449 117.705 206.975 117.597 206.537 117.386C205.441 116.815 204.884 115.426 204.769 114.101C204.668 112.897 204.851 111.686 205.302 110.582C206.757 107.046 210.494 105.515 213.135 102.933C214.683 101.422 215.869 99.5197 217.039 97.6414C217.832 96.4673 218.494 95.1936 219.012 93.8474C219.6 92.1185 219.371 90.0738 219.888 88.3212C220.104 87.5773 220.507 86.9082 220.727 86.1711C220.947 85.4341 221.021 84.5612 220.609 83.926C220.301 83.52 219.906 83.2028 219.46 83.0021C217.773 82.0647 215.884 80.8555 215.562 78.8074C215.433 77.6731 215.704 76.5276 216.318 75.6044C216.929 74.6929 217.644 73.871 218.445 73.1589C219.179 72.432 220.42 71.627 221.16 70.9273Z" fill="#FFC0C6"/>
<path d="M145.992 78.0295C145.546 77.0377 144.986 76.0256 144.082 75.533C143.642 75.3248 143.168 75.2174 142.689 75.2174C142.209 75.2174 141.735 75.3248 141.295 75.533C140.419 75.9486 139.599 76.4925 138.856 77.1498L136.67 78.9194C136.174 79.2762 135.736 79.7203 135.372 80.2339C135.026 80.857 134.796 81.5499 134.697 82.2718C134.388 83.926 134.137 85.6277 134.354 87.3022C134.701 90.0194 136.187 92.3699 137.821 94.435C138.843 95.7189 140.106 97.0164 141.661 97.0741C142.333 97.0979 143.079 96.8058 143.357 96.1367C143.455 95.8708 143.506 95.5875 143.509 95.3011C143.676 92.2849 142.692 89.3401 141.546 86.5923C141.237 85.845 140.902 85.0706 140.927 84.2521C140.917 84.1131 140.95 83.9745 141.02 83.858C141.118 83.7451 141.25 83.674 141.391 83.6577C142.961 83.318 145.667 84.6562 146.766 82.744C147.478 81.4804 146.5 79.1538 145.992 78.0295Z" fill="#FFC0C6"/>
<path d="M178.3 33.8672C178.281 33.6198 178.315 33.3708 178.399 33.1404C178.65 32.6513 179.307 32.8007 179.802 32.923C181.793 33.4732 183.892 32.9739 185.945 33.103C187.998 33.2321 190.304 34.3563 190.719 36.5641C192.207 35.406 193.49 33.9604 194.506 32.298C195.075 31.3606 195.571 30.2906 195.493 29.1698C195.382 27.553 194.143 26.3438 193.016 25.3215L189.611 22.2645C189.163 21.8131 188.646 21.4521 188.084 21.198C187.295 20.9025 186.437 21.0452 185.607 21.0452C183.13 21.0452 180.474 19.8054 178.266 21.0452C177.338 21.5648 176.647 22.4581 175.978 23.3277L172.932 27.2813C172.703 27.5339 172.535 27.8458 172.446 28.1882C172.359 28.6705 172.585 29.146 172.665 29.6317C172.808 30.5148 172.461 31.4591 172.727 32.3048C173.17 33.7144 174.731 33.9148 175.684 34.7232C176.037 35.0221 176.594 36.0444 177.019 36.0309C177.752 36.0139 178.273 34.5194 178.3 33.8672Z" fill="#3F3D56"/>
<path d="M157.587 63.1865C157.194 63.4665 156.848 63.8193 156.566 64.2292C156.21 64.8236 156.135 65.5878 155.829 66.1992C155.172 67.5375 153.634 68.0164 152.677 69.1135C152.522 69.2635 152.413 69.463 152.367 69.6841C152.361 69.9829 152.452 70.2742 152.624 70.5061L157.25 78.4812C158.798 78.6307 160.265 77.571 161.807 77.7136C162.38 77.7646 162.971 77.9819 163.523 77.7951C163.916 77.6026 164.286 77.3549 164.622 77.0581C165.551 76.4195 166.764 76.3448 167.535 75.5058C168.306 74.6669 168.371 73.4339 168.362 72.2893C168.376 71.2958 168.283 70.304 168.086 69.3343C167.405 66.2773 165.272 63.9201 163.934 61.2097C163.281 59.8884 162.928 59.1174 161.55 60.0243C160.173 60.9311 158.891 62.1403 157.587 63.1865Z" fill="#3F3D56"/>
<path d="M213.754 59.1547C214.624 59.774 215.408 60.5266 216.083 61.3897C216.785 62.3849 217.185 63.6077 217.863 64.6266C218.541 65.6456 219.411 66.3793 220.154 67.2895C221.284 68.6685 222.049 70.3465 222.798 72.0142C220.964 74.6322 218.965 77.1065 216.816 79.4187C216.577 79.7279 216.261 79.9544 215.906 80.0709C215.666 80.0992 215.423 80.0615 215.199 79.9614C214.975 79.8612 214.778 79.7015 214.624 79.4968C214.29 79.1164 214.055 78.6409 213.736 78.2435C212.984 77.3934 211.983 76.8628 210.909 76.7456C209.844 76.6318 208.772 76.6147 207.704 76.6947C207.47 76.7251 207.233 76.6815 207.02 76.569C206.862 76.4499 206.734 76.2886 206.649 76.1003C205.41 73.7634 205.797 70.8288 206.24 68.1591L207.252 62.0452C207.4 60.8779 207.684 59.7364 208.098 58.6487C208.482 57.7486 209.336 56.2201 210.395 56.4918C211.454 56.7636 212.859 58.4483 213.754 59.1547Z" fill="#3F3D56"/>
<path d="M125.462 103.973L104.132 108.758L103.646 108.707L84.9023 106.632V80.5736L107.848 76.3177L124.493 78.4473L124.499 78.5628V78.6171L125.462 103.973Z" fill="#FF5F6D"/>
<path opacity="0.1" d="M125.462 103.973L104.132 108.758L103.646 108.707V81.9933L124.499 78.5628L125.462 103.973Z" fill="black"/>
<path opacity="0.05" d="M124.499 78.6171L124.493 78.6239L103.646 81.9933L84.9023 80.5736L107.848 76.3177L124.493 78.4473L124.499 78.5628V78.6171Z" fill="black"/>
<path d="M136.608 78.1586L115.279 82.9477L114.792 82.8934L96.0484 80.8181V54.7596L118.994 50.5037L135.639 52.6333L135.645 52.7488V52.8031L136.608 78.1586Z" fill="#3F3D56"/>
<path opacity="0.1" d="M136.608 78.1586L115.279 82.9478L114.792 82.8934V56.1793L135.645 52.7488L136.608 78.1586Z" fill="black"/>
<path opacity="0.05" d="M135.645 52.8031L135.639 52.8099L114.792 56.1793L96.0484 54.7596L118.994 50.5037L135.639 52.6333L135.645 52.7488V52.8031Z" fill="black"/>
</g>
<defs>
<clipPath id="clip0">
<rect width="294" height="239" fill="white"/>
</clipPath>
</defs>
</svg>
