<svg width="294" height="229" viewBox="0 0 294 229" fill="none" xmlns="http://www.w3.org/2000/svg">
<g clip-path="url(#clip0)">
<path d="M211.565 135.851L213.878 134.351C214.098 134.204 214.315 134.048 214.538 133.901C209.577 133.005 205.057 130.354 201.725 126.389C198.393 122.424 196.449 117.381 196.215 112.097C196.045 108.462 196.698 104.837 198.122 101.52C199.447 98.4159 201.404 95.6557 203.855 93.4334C206.306 91.2112 209.19 89.581 212.305 88.658L212.191 98.2261L217.191 87.8118C217.211 87.8084 217.232 87.8084 217.253 87.8118C220.151 87.6696 223.046 88.1287 225.775 89.1629C228.504 90.1972 231.012 91.7862 233.157 93.8394C235.301 95.8926 237.04 98.3697 238.274 101.129C239.507 103.889 240.212 106.877 240.347 109.923C240.366 110.365 240.347 110.801 240.347 111.224C242.087 109.138 243.666 106.902 244.713 104.452C246.83 99.4888 246.88 93.8684 246.703 87.0372C246.369 73.4987 245.815 59.8593 245.09 46.2589C239.869 45.6494 235.026 43.103 231.431 39.0772C227.836 35.0513 225.725 29.8099 225.476 24.2945C225.445 23.5818 225.455 22.8821 225.476 22.1857C225.476 22.0132 225.476 21.8374 225.501 21.6649C225.544 20.9913 225.603 20.3241 225.702 19.6667C225.702 19.556 225.739 19.4519 225.758 19.3413C225.849 18.7837 225.957 18.2326 226.083 17.688C226.133 17.4862 226.179 17.2812 226.232 17.0794C226.387 16.4871 226.541 15.9045 226.755 15.3285C226.82 15.1365 226.897 14.951 226.965 14.7622C227.123 14.3391 227.294 13.9226 227.473 13.5093C227.569 13.2912 227.662 13.0764 227.764 12.8584C227.789 12.803 227.811 12.7477 227.839 12.6924C230.17 7.85249 234.041 4.02424 238.779 1.8731C243.516 -0.278052 248.822 -0.616083 253.772 0.917762L253.623 13.3693L258.577 3.08523C262.64 5.53005 265.854 9.27644 267.748 13.7772C269.642 18.278 270.117 23.2974 269.104 28.1023H269.129C269.095 28.2682 269.045 28.4277 269.008 28.5904C268.94 28.8963 268.866 29.199 268.785 29.5017C268.68 29.889 268.562 30.2697 268.441 30.6505C268.348 30.9336 268.259 31.2233 268.157 31.5032C268.008 31.9132 267.847 32.3135 267.667 32.7138C267.568 32.9481 267.478 33.1857 267.358 33.4168C267.075 34.0156 266.765 34.6014 266.429 35.1742C266.314 35.3727 266.184 35.5615 266.064 35.76C265.828 36.144 265.59 36.5248 265.333 36.8958C265.175 37.1236 265.005 37.3417 264.837 37.5662C264.596 37.8917 264.348 38.2171 264.091 38.5133C263.909 38.7313 263.723 38.9461 263.531 39.1642C263.262 39.4636 262.983 39.7532 262.695 40.0396C262.506 40.2316 262.314 40.4236 262.116 40.6059C261.791 40.9086 261.45 41.1982 261.107 41.4813C260.933 41.6245 260.766 41.7742 260.586 41.9109C260.064 42.3188 259.524 42.7018 258.967 43.0597C258.862 43.1248 258.75 43.1802 258.658 43.2453C258.193 43.5349 257.729 43.805 257.23 44.0589C257.023 44.1663 256.806 44.2606 256.592 44.3615C256.193 44.5503 255.791 44.7325 255.379 44.8985C255.14 44.9929 254.896 45.0808 254.651 45.1686C254.246 45.3151 253.834 45.4485 253.413 45.5689C253.165 45.6405 252.92 45.7121 252.67 45.774C252.218 45.8879 251.756 45.9823 251.292 46.0636C251.261 46.0636 251.233 46.0636 251.202 46.0831C251.508 51.8197 251.779 57.5594 252.016 63.3025C253.333 60.4608 255.189 57.9319 257.469 55.8708C259.749 53.8098 262.405 52.2602 265.275 51.3171C268.146 50.3739 271.169 50.057 274.16 50.386C277.151 50.7149 280.046 51.6827 282.668 53.2299L278.764 64.4741L286.795 56.3672C291.095 60.5094 293.655 66.2746 293.916 72.3987C294.019 74.5475 293.83 76.7007 293.356 78.7937C292.347 83.3231 290.066 87.4292 286.81 90.5794C283.554 93.7296 279.472 95.7784 275.094 96.46C270.716 97.1416 266.245 96.4246 262.259 94.402C258.274 92.3794 254.959 89.1446 252.744 85.1171C252.744 85.6997 252.784 86.2855 252.8 86.868C252.945 92.8953 253.128 100.394 250.27 107.091C248.335 111.631 245.217 115.319 242.137 118.622C240.133 120.773 238.056 122.853 235.926 124.867C233.831 127.823 231.097 130.213 227.95 131.838C224.451 134.672 220.829 137.325 217.083 139.799L214.807 141.341C212.705 142.711 210.55 144.117 208.435 145.572C208.807 145.533 209.175 145.491 209.553 145.474C214.234 145.244 218.863 146.583 222.772 149.299C226.681 152.016 229.668 155.968 231.3 160.585L217.498 172.395L232.669 168.695C232.664 172.621 231.714 176.482 229.905 179.917C228.096 183.352 225.488 186.249 222.326 188.337C219.163 190.426 215.548 191.638 211.819 191.859C208.09 192.081 204.368 191.305 201.001 189.605C201.342 190.054 201.686 190.5 202.026 190.946C202.704 191.834 203.379 192.716 204.039 193.591C213.017 205.545 215.519 216.897 211.07 225.55L205.664 222.478C209.999 214.056 203.497 203.277 199.215 197.594C198.568 196.735 197.905 195.87 197.236 194.991C191.499 187.506 184.997 179.005 185.161 168.587C185.394 152.901 199.911 143.44 211.565 135.851Z" fill="#F2F2F2"/>
<path d="M141.029 229C218.917 229 282.058 225.94 282.058 222.166C282.058 218.391 218.917 215.331 141.029 215.331C63.1409 215.331 0 218.391 0 222.166C0 225.94 63.1409 229 141.029 229Z" fill="#3F3D56"/>
<path d="M254.964 219.617C255.893 217.824 254.84 215.627 253.639 214.026C252.437 212.425 250.973 210.772 251.004 208.725C251.047 205.796 254.004 204.068 256.37 202.515C258.121 201.362 259.737 199.995 261.184 198.444C261.791 197.847 262.293 197.142 262.667 196.361C263.153 195.215 263.141 193.914 263.11 192.657C263.007 188.479 262.811 184.304 262.522 180.134" stroke="#3F3D56" stroke-width="4" stroke-miterlimit="10"/>
<path d="M267.014 179.913C266.979 179.148 266.763 178.405 266.384 177.751C266.006 177.097 265.477 176.554 264.847 176.17L263.875 178.195L263.902 175.747C263.238 175.538 262.534 175.499 261.852 175.635C261.17 175.771 260.529 176.077 259.983 176.527C259.437 176.977 259.002 177.559 258.714 178.223C258.426 178.887 258.294 179.614 258.329 180.343C258.384 181.551 258.892 182.687 259.743 183.501C260.165 183.905 260.658 184.216 261.194 184.419C261.73 184.622 262.299 184.712 262.868 184.684C263.438 184.656 263.996 184.51 264.512 184.255C265.027 184 265.49 183.641 265.874 183.198C266.257 182.755 266.554 182.237 266.747 181.673C266.94 181.109 267.025 180.511 266.999 179.913H267.014Z" fill="#57B793"/>
<path d="M259.264 210.83C258.809 211.759 258.064 212.496 257.154 212.916C256.244 213.337 255.224 213.415 254.266 213.139C253.307 212.863 252.467 212.249 251.888 211.4C251.309 210.551 251.025 209.518 251.084 208.475C251.142 207.432 251.541 206.442 252.211 205.671C252.882 204.9 253.784 204.394 254.768 204.239C255.751 204.084 256.755 204.289 257.611 204.819C258.467 205.35 259.124 206.174 259.472 207.153L256.76 209.473L259.744 208.744C259.745 209.47 259.58 210.185 259.264 210.83V210.83Z" fill="#57B793"/>
<path d="M257.119 201.949C256.549 201.978 255.979 201.888 255.442 201.685C254.905 201.481 254.411 201.169 253.989 200.764C253.568 200.36 253.226 199.872 252.984 199.329C252.742 198.785 252.605 198.197 252.58 197.598C252.545 196.883 252.674 196.17 252.954 195.518C253.215 194.908 253.599 194.365 254.08 193.927C254.562 193.49 255.129 193.168 255.741 192.986L255.719 194.87L256.704 192.82C257.856 192.764 258.981 193.19 259.834 194.006C260.686 194.822 261.195 195.961 261.249 197.171C261.303 198.382 260.897 199.565 260.121 200.461C259.344 201.357 258.261 201.892 257.109 201.949H257.119Z" fill="#57B793"/>
<path d="M267.667 194.558C266.518 194.615 265.394 194.19 264.542 193.375C263.691 192.561 263.183 191.425 263.128 190.217C263.074 189.008 263.479 187.827 264.253 186.932C265.028 186.037 266.109 185.503 267.259 185.446C268.071 185.403 268.879 185.604 269.587 186.025L268.819 188.238L270.398 186.643C271.245 187.457 271.751 188.591 271.804 189.797C271.824 190.219 271.786 190.642 271.692 191.053C271.476 192.018 270.965 192.882 270.239 193.515C269.513 194.148 268.61 194.514 267.667 194.558V194.558Z" fill="#57B793"/>
<path opacity="0.1" d="M266.429 181.117C265.426 181.234 264.45 181.563 263.444 181.628C262.438 181.693 261.333 181.439 260.695 180.616C260.351 180.173 260.181 179.614 259.89 179.132C259.616 178.682 259.24 178.31 258.797 178.048C258.535 178.624 258.391 179.252 258.374 179.89C258.357 180.528 258.469 181.163 258.701 181.754C258.933 182.344 259.28 182.876 259.72 183.316C260.16 183.756 260.684 184.094 261.256 184.308C261.829 184.522 262.438 184.606 263.043 184.557C263.649 184.507 264.238 184.325 264.772 184.02C265.306 183.716 265.774 183.297 266.144 182.791C266.514 182.285 266.779 181.702 266.921 181.081C266.754 181.088 266.59 181.101 266.429 181.117Z" fill="black"/>
<path opacity="0.1" d="M267.667 194.558C266.918 194.598 266.171 194.433 265.501 194.079C264.831 193.724 264.259 193.193 263.842 192.537C263.426 191.881 263.178 191.123 263.124 190.336C263.07 189.549 263.211 188.761 263.534 188.049C263.879 188.294 264.175 188.607 264.407 188.97C264.717 189.462 264.902 190.028 265.268 190.48C265.943 191.317 267.101 191.59 268.15 191.538C269.2 191.486 270.209 191.177 271.247 191.076C271.389 191.076 271.538 191.05 271.683 191.047C271.468 192.011 270.96 192.876 270.235 193.51C269.51 194.143 268.609 194.511 267.667 194.558Z" fill="black"/>
<path opacity="0.1" d="M257.119 201.949C256.549 201.978 255.979 201.888 255.442 201.685C254.905 201.481 254.411 201.169 253.989 200.764C253.568 200.36 253.226 199.872 252.984 199.329C252.742 198.785 252.605 198.197 252.58 197.598C252.545 196.883 252.674 196.17 252.954 195.518C253.315 195.766 253.63 196.08 253.883 196.446C254.221 196.947 254.431 197.523 254.812 197.985C255.546 198.844 256.778 199.147 257.89 199.118C259.001 199.088 260.001 198.815 261.073 198.73C260.808 199.629 260.287 200.42 259.579 200.996C258.872 201.572 258.013 201.905 257.119 201.949Z" fill="black"/>
<path opacity="0.1" d="M259.264 210.83C259.031 211.377 258.697 211.87 258.282 212.281C257.867 212.693 257.378 213.014 256.845 213.227C256.312 213.44 255.744 213.54 255.174 213.522C254.604 213.504 254.043 213.369 253.523 213.123C253.002 212.877 252.533 212.526 252.142 212.09C251.751 211.654 251.445 211.141 251.243 210.58C251.04 210.02 250.945 209.423 250.962 208.824C250.979 208.224 251.108 207.635 251.341 207.088C251.698 207.337 252.019 207.638 252.295 207.983C252.707 208.513 252.979 209.112 253.459 209.61C254.348 210.524 255.781 210.912 257.057 210.938C257.794 210.948 258.531 210.912 259.264 210.83V210.83Z" fill="black"/>
<path d="M248.412 217.551C248.412 217.551 251.84 217.44 252.874 216.666C253.908 215.891 258.137 214.967 258.407 216.21C258.676 217.453 263.562 222.393 259.689 222.413C255.815 222.433 250.691 221.762 249.66 221.111C248.629 220.46 248.412 217.551 248.412 217.551Z" fill="#656380"/>
<path opacity="0.2" d="M259.757 221.98C255.887 222.013 250.759 221.329 249.728 220.678C248.945 220.177 248.629 218.371 248.527 217.538H248.412C248.412 217.538 248.629 220.444 249.651 221.118C250.673 221.791 255.806 222.446 259.679 222.419C260.797 222.419 261.184 221.99 261.162 221.372C261.017 221.739 260.59 221.974 259.757 221.98Z" fill="black"/>
<path d="M60.192 209.577C57.9442 205.203 60.5016 199.847 63.4244 195.948C66.3471 192.049 69.9263 187.994 69.8489 183.024C69.7374 175.884 62.5296 171.669 56.7708 167.885C52.4975 165.076 48.5555 161.745 45.0271 157.962C43.6122 156.442 42.2406 154.821 41.417 152.881C40.2281 150.089 40.2591 146.916 40.3365 143.857C40.5842 133.66 41.063 123.482 41.7731 113.324" stroke="#3F3D56" stroke-width="4" stroke-miterlimit="10"/>
<path d="M30.8221 112.767C30.9068 110.904 31.4355 109.093 32.3595 107.501C33.2835 105.909 34.5732 104.586 36.1103 103.655L38.4819 108.585L38.4107 102.616C40.5653 101.949 42.8659 102.019 44.9803 102.815C47.0948 103.612 48.9136 105.094 50.1743 107.049C51.435 109.003 52.0722 111.327 51.9939 113.687C51.9157 116.046 51.126 118.319 49.739 120.176C48.352 122.033 46.4393 123.379 44.2772 124.019C42.1151 124.659 39.8155 124.56 37.7103 123.736C35.6052 122.913 33.8035 121.408 32.5653 119.438C31.3272 117.468 30.7167 115.135 30.8221 112.777V112.767Z" fill="#57B793"/>
<path d="M49.7147 188.127C50.7798 190.309 52.5006 192.06 54.6099 193.108C56.7191 194.157 59.0986 194.443 61.3787 193.924C63.6588 193.404 65.7119 192.108 67.2189 190.236C68.7259 188.363 69.6026 186.021 69.7126 183.571C69.7866 182.031 69.5514 180.492 69.0222 179.054C68.2487 176.944 66.8827 175.133 65.1059 173.859C63.3292 172.585 61.2257 171.91 59.075 171.923C56.9244 171.936 54.8285 172.637 53.0658 173.932C51.3031 175.227 49.9572 177.056 49.2069 179.174L55.8234 184.83L48.5444 183.05C48.5413 184.817 48.9428 186.558 49.7147 188.127Z" fill="#57B793"/>
<path d="M54.9441 166.511C57.5416 166.636 60.0921 165.752 62.11 164.029C64.1279 162.305 65.4723 159.861 65.8872 157.163C66.3022 154.465 65.7587 151.701 64.3602 149.396C62.9618 147.092 60.806 145.409 58.3034 144.667L58.3591 149.253L55.9751 144.264H55.9472C53.1401 144.126 50.396 145.166 48.3184 147.155C46.2409 149.144 45.0002 151.919 44.8692 154.87C44.7382 157.821 45.7277 160.705 47.6201 162.889C49.5124 165.073 52.1524 166.377 54.9595 166.514L54.9441 166.511Z" fill="#57B793"/>
<path d="M29.2276 148.524C30.8676 148.608 32.5039 148.29 34.007 147.595C35.5102 146.901 36.8393 145.848 37.8892 144.521C38.9391 143.194 39.6813 141.629 40.057 139.949C40.4328 138.268 40.4318 136.519 40.0543 134.84C39.6767 133.16 38.9329 131.595 37.8816 130.269C36.8302 128.944 35.5001 127.893 33.9961 127.2C32.4922 126.507 30.8557 126.191 29.2157 126.277C27.5757 126.363 25.9771 126.849 24.5462 127.695L26.4039 133.088L22.5678 129.192C21.5423 130.173 20.7109 131.357 20.1212 132.676C19.5315 133.995 19.195 135.423 19.1311 136.879C19.0819 137.909 19.1726 138.942 19.4004 139.945C19.927 142.304 21.1716 144.419 22.9452 145.967C24.7188 147.515 26.9245 148.413 29.2276 148.524V148.524Z" fill="#57B793"/>
<path opacity="0.1" d="M32.2463 115.735C34.6922 116.018 37.0701 116.816 39.5222 116.975C41.9744 117.134 44.6711 116.519 46.2223 114.515C47.0582 113.434 47.4762 112.067 48.1821 110.889C48.851 109.791 49.7679 108.885 50.851 108.25C51.5255 109.661 51.9067 111.207 51.9693 112.785C52.0319 114.363 51.7746 115.937 51.2143 117.402C50.654 118.867 49.8036 120.191 48.7196 121.284C47.6355 122.378 46.3426 123.217 44.9266 123.745C43.5107 124.273 42.004 124.478 40.5067 124.348C39.0094 124.217 37.5556 123.753 36.2419 122.987C34.9282 122.22 33.7846 121.169 32.887 119.902C31.9894 118.636 31.3584 117.183 31.0357 115.641C31.4475 115.66 31.85 115.69 32.2463 115.735Z" fill="black"/>
<path opacity="0.1" d="M29.2275 148.524C31.0531 148.612 32.8695 148.203 34.5003 147.336C36.1311 146.469 37.521 145.174 38.5351 143.576C39.5492 141.978 40.1531 140.131 40.288 138.215C40.423 136.3 40.0845 134.38 39.3055 132.642C38.4643 133.237 37.7409 133.997 37.1753 134.881C36.4199 136.079 35.9647 137.462 35.0761 138.562C33.4259 140.599 30.6084 141.266 28.051 141.146C25.4936 141.025 23.026 140.257 20.4809 140.013C20.128 139.981 19.7688 139.955 19.4128 139.945C19.9388 142.302 21.1815 144.415 22.9526 145.963C24.7237 147.511 26.9267 148.41 29.2275 148.524V148.524Z" fill="black"/>
<path opacity="0.1" d="M54.9441 166.511C56.7519 166.6 58.5512 166.201 60.1706 165.352C61.7899 164.502 63.1752 163.231 64.1942 161.659C65.2132 160.087 65.832 158.266 65.9916 156.371C66.1511 154.476 65.8461 152.57 65.1056 150.834C64.2332 151.444 63.4745 152.216 62.8671 153.113C62.0435 154.333 61.5295 155.739 60.5666 156.865C58.7802 158.958 55.7769 159.696 53.0678 159.628C50.4454 159.569 47.9189 158.892 45.312 158.681C45.9574 160.868 47.2283 162.794 48.9518 164.195C50.6753 165.596 52.7676 166.405 54.9441 166.511V166.511Z" fill="black"/>
<path opacity="0.1" d="M49.7147 188.127C50.7798 190.309 52.5006 192.06 54.6099 193.108C56.7191 194.157 59.0986 194.443 61.3787 193.924C63.6588 193.404 65.7119 192.108 67.2189 190.236C68.7259 188.363 69.6026 186.021 69.7126 183.571C69.7866 182.031 69.5514 180.492 69.0222 179.054C68.1506 179.656 67.3681 180.389 66.7001 181.231C65.6939 182.533 65.0282 183.984 63.864 185.188C61.6967 187.421 58.2012 188.345 55.0896 188.443C53.2936 188.449 51.4988 188.344 49.7147 188.127V188.127Z" fill="black"/>
<path d="M133.512 216.08L92.6427 224.867L91.7138 224.769L55.7986 220.961V173.121L99.7638 165.31L131.654 169.216L131.663 169.427L131.666 169.531L133.512 216.08Z" fill="#FF5F6D"/>
<path opacity="0.1" d="M133.512 216.08L92.6426 224.867L91.7138 224.769V175.725L131.663 169.427L133.512 216.08Z" fill="black"/>
<path opacity="0.05" d="M131.666 169.531L131.654 169.541L91.7138 175.725L55.7986 173.121L99.7638 165.31L131.654 169.216L131.663 169.427L131.666 169.531Z" fill="black"/>
<path d="M178.406 218.032L137.537 226.82L136.608 226.722L100.693 222.914V175.074L144.658 167.263L176.548 171.168L176.557 171.38L176.56 171.484L178.406 218.032Z" fill="#3F3D56"/>
<path opacity="0.1" d="M178.406 218.032L137.537 226.82L136.608 226.722V177.677L176.557 171.38L178.406 218.032Z" fill="black"/>
<path opacity="0.05" d="M176.56 171.484L176.548 171.494L136.608 177.677L100.693 175.074L144.658 167.263L176.548 171.168L176.557 171.38L176.56 171.484Z" fill="black"/>
<path d="M150.231 171.168L109.362 179.955L108.433 179.858L72.5178 176.05V128.209L116.483 120.399L148.373 124.304L148.382 124.516L148.386 124.62L150.231 171.168Z" fill="#3F3D56"/>
<path opacity="0.1" d="M150.231 171.168L109.362 179.955L108.433 179.858V130.813L148.382 124.516L150.231 171.168Z" fill="black"/>
<path opacity="0.05" d="M148.386 124.62L148.373 124.63L108.433 130.813L72.5178 128.209L116.483 120.399L148.373 124.304L148.382 124.516L148.386 124.62Z" fill="black"/>
<path d="M173.452 173.173L152.123 177.762L151.636 177.71L132.892 175.721V150.753L155.838 146.675L172.483 148.716L172.489 148.826V148.878L173.452 173.173Z" fill="#3F3D56"/>
<path opacity="0.1" d="M173.452 173.173L152.123 177.762L151.636 177.71V152.113L172.489 148.826L173.452 173.173Z" fill="black"/>
<path opacity="0.05" d="M172.489 148.878L172.483 148.885L151.636 152.113L132.892 150.753L155.838 146.675L172.483 148.716L172.489 148.826V148.878Z" fill="black"/>
<path d="M116.173 124.682L94.844 129.267L94.3579 129.218L75.6139 127.23V102.262L98.5594 98.1838L115.204 100.224L115.21 100.335V100.387L116.173 124.682Z" fill="#3F3D56"/>
<path opacity="0.1" d="M116.173 124.682L94.844 129.267L94.3579 129.218V103.622L115.21 100.335L116.173 124.682Z" fill="black"/>
<path opacity="0.05" d="M115.21 100.387L115.204 100.394L94.3579 103.622L75.6139 102.262L98.5594 98.1838L115.204 100.224L115.21 100.335V100.387Z" fill="black"/>
<path d="M153.637 123.705L132.307 128.291L131.821 128.242L113.077 126.253V101.285L136.023 97.2074L152.667 99.248L152.674 99.3586V99.4107L153.637 123.705Z" fill="#FF5F6D"/>
<path opacity="0.1" d="M153.637 123.705L132.307 128.291L131.821 128.242V102.646L152.674 99.3586L153.637 123.705Z" fill="black"/>
<path opacity="0.05" d="M152.674 99.4107L152.667 99.4172L131.821 102.646L113.077 101.285L136.023 97.2074L152.667 99.248L152.674 99.3586V99.4107Z" fill="black"/>
<path d="M164.783 98.6459L143.453 103.231L142.967 103.183L124.223 101.194V76.2259L147.169 72.1481L163.814 74.1886L163.82 74.2993V74.3514L164.783 98.6459Z" fill="#3F3D56"/>
<path opacity="0.1" d="M164.783 98.6459L143.453 103.231L142.967 103.183V77.5863L163.82 74.2993L164.783 98.6459Z" fill="black"/>
<path opacity="0.05" d="M163.82 74.3514L163.814 74.3579L142.967 77.5863L124.223 76.2259L147.169 72.1481L163.814 74.1887L163.82 74.2993V74.3514Z" fill="black"/>
<path d="M179.31 47.603C179.084 49.7184 177.548 51.4237 176.978 53.461C176.124 56.5364 177.598 59.8397 179.629 62.248C181.265 64.1616 183.247 65.7147 185.459 66.8175C187.671 67.9202 190.069 68.5507 192.515 68.6723C193.233 68.7373 193.957 68.6544 194.645 68.4282C195.258 68.1661 195.81 67.7688 196.264 67.2631C197.787 65.6522 198.608 63.4229 198.933 61.174C199.258 58.9252 199.134 56.6373 199.007 54.369C199.007 53.8995 198.925 53.4341 198.766 52.9956C198.559 52.5786 198.273 52.2099 197.927 51.9119C196.829 50.8511 195.618 49.9262 194.32 49.1553C193.763 48.8299 193.165 48.5044 192.809 47.9414C192.565 47.4931 192.406 46.9989 192.341 46.4867L191.942 44.3518C191.871 43.7362 191.671 43.1448 191.357 42.6204C190.654 41.6245 189.307 41.4878 188.128 41.439L183.793 41.26C182.446 41.2047 180.675 40.7979 179.359 41.0778C178.121 41.3349 178.539 42.526 178.762 43.6065C179.084 44.9133 179.268 46.2536 179.31 47.603V47.603Z" fill="#FFC0C6"/>
<path opacity="0.1" d="M179.31 47.603C179.084 49.7184 177.548 51.4237 176.978 53.461C176.124 56.5364 177.598 59.8397 179.629 62.248C181.265 64.1616 183.247 65.7147 185.459 66.8175C187.671 67.9202 190.069 68.5507 192.515 68.6723C193.233 68.7373 193.957 68.6544 194.645 68.4282C195.258 68.1661 195.81 67.7688 196.264 67.2631C197.787 65.6522 198.608 63.4229 198.933 61.174C199.258 58.9252 199.134 56.6373 199.007 54.369C199.007 53.8995 198.925 53.4341 198.766 52.9956C198.559 52.5786 198.273 52.2099 197.927 51.9119C196.829 50.8511 195.618 49.9262 194.32 49.1553C193.763 48.8299 193.165 48.5044 192.809 47.9414C192.565 47.4931 192.406 46.9989 192.341 46.4867L191.942 44.3518C191.871 43.7362 191.671 43.1448 191.357 42.6204C190.654 41.6245 189.307 41.4878 188.128 41.439L183.793 41.26C182.446 41.2047 180.675 40.7979 179.359 41.0778C178.121 41.3349 178.539 42.526 178.762 43.6065C179.084 44.9133 179.268 46.2536 179.31 47.603V47.603Z" fill="black"/>
<path d="M206.837 142.881L204.998 164.074C204.518 169.632 204.029 175.214 203.088 180.701C202.778 182.591 202.382 184.472 201.93 186.337C200.673 191.515 198.849 196.576 198.261 201.884C198.243 202.037 198.227 202.209 198.212 202.349C198.091 203.521 197.986 204.705 197.592 205.799C197.283 206.609 196.846 207.348 196.527 208.149C195.908 209.75 195.809 211.52 195.732 213.255C193.5 211.931 191.056 211.048 188.521 210.651C187.282 210.459 185.935 210.326 185.115 209.35C184.186 208.289 184.295 206.665 184.449 205.239C184.936 200.813 185.422 196.389 185.905 191.967C186.066 190.065 186.376 188.179 186.833 186.331C187.001 185.716 187.202 185.11 187.406 184.505C187.688 183.672 187.973 182.839 188.186 181.983C188.483 180.608 188.687 179.212 188.799 177.807C189.298 173.355 189.899 168.913 190.425 164.464L190.453 164.23C191.242 157.487 191.843 150.711 191.669 143.919C191.645 142.913 191.604 141.907 191.543 140.899C191.456 139.437 191.329 138.663 192.471 137.748C193.744 136.739 195.419 136.033 196.874 135.372C197.657 135.014 206.283 131.793 206.472 132.502C206.873 134.009 207.081 135.565 207.091 137.13C207.109 139.05 207.024 140.97 206.837 142.881V142.881Z" fill="#605D82"/>
<path opacity="0.1" d="M203.088 180.701C202.778 182.591 202.382 184.472 201.93 186.337C200.673 191.515 198.849 196.576 198.261 201.884C198.243 202.037 198.227 202.209 198.212 202.349C194.366 196.576 191.128 190.366 187.375 184.531C187.657 183.698 187.942 182.865 188.155 182.009C188.463 180.626 188.678 179.222 188.799 177.807C189.298 173.355 189.899 168.913 190.425 164.464L190.453 164.23C190.67 165.174 190.981 166.091 191.382 166.967C193.902 172.35 199.89 175.07 202.819 180.222C202.916 180.383 203.006 180.542 203.088 180.701Z" fill="black"/>
<path d="M171.885 133.374C172.012 137.69 172.669 141.969 173.325 146.233L174.678 155.02C175.418 159.836 176.192 164.747 178.359 169.059C179.982 172.288 182.316 175.041 184.431 177.934C189.626 185.049 193.53 193.11 198.456 200.432C199.89 202.561 201.936 204.865 204.379 204.419C205.983 204.129 207.147 202.724 208.404 201.643C209.89 200.367 211.68 199.433 212.85 197.832C214.021 196.231 214.25 193.575 212.664 192.436C212.123 192.049 211.463 191.902 210.85 191.655C208.395 190.679 206.803 188.153 205.794 185.602C204.785 183.05 204.169 180.313 202.822 177.941C199.893 172.789 193.902 170.068 191.382 164.682C189.97 161.669 189.834 158.173 189.728 154.831L189.453 146.268C189.422 145.331 189.4 144.358 189.762 143.502C190.725 141.224 193.636 141.009 195.995 140.72C198.67 140.391 201.262 139.532 203.633 138.188C204.992 137.416 206.317 136.433 207.039 135.001C207.701 133.7 207.791 132.167 207.869 130.689L208.686 115.169C208.757 113.834 208.819 112.451 208.376 111.202C207.252 108.058 203.475 107.029 200.283 107.179C194.345 107.459 188.864 110.144 183.254 111.96C181.864 112.409 180.468 112.813 179.034 113.115C177.796 113.379 176.248 113.271 175.059 113.695C172.929 114.45 172.981 119.351 172.681 121.382C172.061 125.344 171.795 129.359 171.885 133.374V133.374Z" fill="#605D82"/>
<path d="M203.574 205.076C204.097 205.633 204.268 206.447 204.404 207.215C205.161 211.477 205.554 215.802 205.58 220.138C205.547 220.543 205.623 220.949 205.8 221.31C205.949 221.523 206.149 221.692 206.379 221.798C207.893 222.556 209.649 221.498 210.912 220.337C213.25 218.185 215.228 215.295 215.361 212.031C215.395 211.192 215.305 210.342 215.445 209.512C215.649 208.282 216.333 207.211 216.934 206.137C217.962 204.307 218.792 202.362 219.411 200.338C219.64 199.576 219.795 198.62 219.225 198.089C219.026 197.922 218.798 197.798 218.553 197.721L211.711 195.053C211.116 194.822 209.643 198.802 209.41 199.238C208.838 200.302 208.268 200.904 207.119 201.152C205.971 201.399 204.553 201.041 203.457 201.656C201.599 202.694 202.525 203.967 203.574 205.076Z" fill="#535070"/>
<path d="M193.023 207.534C192.896 207.268 192.719 207.032 192.502 206.84C192.186 206.629 191.826 206.5 191.453 206.466C190.152 206.232 188.611 206.079 187.71 207.097C186.867 208.051 187.013 209.603 186.31 210.677C186.087 211.003 185.784 211.296 185.592 211.654C185.353 212.202 185.247 212.803 185.282 213.405C185.245 215.061 185.208 216.724 185.319 218.377C185.409 219.764 185.629 221.219 186.456 222.306C187.781 224.05 190.171 224.301 192.289 224.411L194.007 224.506C194.48 224.564 194.958 224.517 195.413 224.369C195.694 224.233 195.947 224.038 196.155 223.797C196.364 223.556 196.524 223.274 196.626 222.966C197.521 220.63 196.106 218.114 195.233 215.771C194.227 213.073 194.407 210.082 193.023 207.534Z" fill="#535070"/>
<path d="M178.814 35.6754C178.792 35.4385 178.825 35.1995 178.91 34.9789C179.161 34.5135 179.818 34.6535 180.313 34.7706C182.304 35.2979 184.403 34.8195 186.456 34.9431C188.508 35.0668 190.818 36.144 191.23 38.2594C192.719 37.1516 194.003 35.7661 195.016 34.1718C195.586 33.2768 196.081 32.2517 196.004 31.1777C195.893 29.6286 194.657 28.47 193.527 27.4872L190.121 24.5581C189.673 24.1256 189.155 23.7796 188.592 23.5362C187.806 23.2531 186.945 23.3898 186.115 23.3898C183.638 23.3898 180.982 22.2019 178.774 23.3898C177.845 23.8877 177.155 24.7436 176.486 25.5768L173.443 29.365C173.212 29.6065 173.044 29.9054 172.953 30.2339C172.867 30.6961 173.093 31.1517 173.173 31.6171C173.316 32.4632 172.969 33.368 173.235 34.1816C173.678 35.5289 175.238 35.7209 176.192 36.4955C176.545 36.7819 177.102 37.7615 177.526 37.7485C178.273 37.7322 178.793 36.3002 178.814 35.6754Z" fill="#3F3D56"/>
<path d="M183.979 46.8479C189.365 46.8479 193.732 42.2582 193.732 36.5964C193.732 30.9346 189.365 26.3448 183.979 26.3448C178.592 26.3448 174.226 30.9346 174.226 36.5964C174.226 42.2582 178.592 46.8479 183.979 46.8479Z" fill="#FFC0C6"/>
<path d="M186.264 59.0294C185.933 58.0358 185.311 57.1782 184.487 56.5804C183.663 55.9825 182.679 55.6754 181.678 55.7033C181.391 55.7609 181.094 55.721 180.83 55.5894C180.68 55.4693 180.56 55.313 180.48 55.1338C179.889 54.0118 179.412 52.8271 179.059 51.5995C178.904 51.056 178.69 50.4148 178.167 50.2749C177.746 50.161 177.316 50.4474 177.034 50.7956C176.784 51.1693 176.513 51.5268 176.223 51.8663C174.984 53.0184 172.817 51.9672 171.52 53.0249C171.306 53.1974 171.13 53.4187 170.901 53.5782C170.678 53.7209 170.437 53.8305 170.185 53.9036C167.667 54.7648 165.198 55.7786 162.792 56.94C163.659 62.4205 164.544 68.0052 166.575 73.131C167.541 75.5718 168.634 77.9638 169.408 80.4795C171.124 86.0544 171.198 92.0198 171.22 97.8811C171.22 101.891 171.22 105.985 169.981 109.779C169.702 110.639 169.362 111.491 169.284 112.383C169.207 113.275 169.461 114.284 170.158 114.817C170.561 115.097 171.023 115.268 171.504 115.315C173.644 115.641 175.799 115.048 177.904 114.534C183.548 113.161 189.307 112.373 195.05 111.605L204.679 110.303C205.37 110.253 206.046 110.068 206.673 109.76C208.435 108.748 208.602 105.962 207.506 104.192C206.983 103.342 206.243 102.646 205.8 101.747C205.358 100.849 205.323 99.5865 206.082 98.9649C207.63 97.6956 207.166 95.3426 207.24 93.2858C207.446 87.5319 207.419 81.7824 207.156 76.0372C207.078 74.8458 207.059 73.6508 207.101 72.4573C207.209 70.433 207.686 68.451 208.163 66.4821L211.088 54.3755C210.324 53.1063 208.859 52.2992 207.475 51.9347C206.091 51.5702 204.645 51.4628 203.28 51.0169C200.494 50.1057 197.992 47.795 195.072 48.0098C194.851 48.0139 194.633 48.0695 194.434 48.1725C193.778 48.5663 193.88 49.5622 193.84 50.3562C193.747 52.1169 192.515 53.5847 191.159 54.6163C189.803 55.648 188.248 56.3965 187.001 57.5714C186.784 57.7431 186.606 57.9626 186.478 58.2145C186.351 58.4664 186.278 58.7445 186.264 59.0294V59.0294Z" fill="#3F3D56"/>
<path d="M147.621 70.5144C146.975 70.9558 146.288 71.3276 145.571 71.6241C144.89 71.9073 144.162 72.1318 143.605 72.6265C143.329 72.8781 143.098 73.1789 142.921 73.515C142.591 74.1304 142.424 74.8275 142.438 75.5338C142.452 76.24 142.645 76.9295 142.999 77.5302C143.352 78.1309 143.853 78.6209 144.448 78.949C145.043 79.2772 145.711 79.4314 146.382 79.3958C147.277 79.3469 148.122 78.9662 148.943 78.5919L155.822 75.4448C156.987 74.9144 158.244 74.296 158.795 73.0919C158.858 72.9791 158.882 72.8469 158.863 72.7176C158.81 72.5758 158.708 72.4598 158.578 72.3922C157.028 71.332 155.672 69.987 154.575 68.4217C154.293 68.0182 153.955 67.0679 153.547 66.8238C152.092 65.9744 148.788 69.7203 147.621 70.5144Z" fill="#FFC0C6"/>
<path d="M221.16 67.9596L223.696 71.0058C224.241 71.6567 224.786 72.3076 225.281 73.0105C226.5 74.7753 227.478 76.711 228.185 78.7612C228.736 80.281 229.195 81.9017 229.003 83.5159C228.874 84.3435 228.661 85.1542 228.368 85.934C227.903 87.4332 227.327 88.8914 226.643 90.295C226.073 91.36 225.428 92.3792 224.715 93.3444C222.751 96.0799 220.601 98.6631 218.284 101.074C217.417 101.975 217.045 103.436 216.677 104.654C215.98 106.902 214.324 108.657 212.723 110.316C212.208 110.888 211.639 111.403 211.023 111.852C210.102 112.478 209.024 112.799 207.927 112.777C207.449 112.78 206.975 112.677 206.537 112.474C205.441 111.927 204.884 110.596 204.769 109.327C204.668 108.174 204.851 107.012 205.302 105.955C206.757 102.568 210.494 101.1 213.135 98.6264C214.683 97.1782 215.869 95.3557 217.039 93.5559C217.832 92.431 218.494 91.2106 219.012 89.9207C219.6 88.2642 219.371 86.305 219.888 84.6257C220.104 83.913 220.507 83.2719 220.727 82.5656C220.947 81.8594 221.021 81.023 220.609 80.4144C220.301 80.0254 219.906 79.7215 219.46 79.5292C217.773 78.631 215.884 77.4724 215.562 75.51C215.433 74.4232 215.704 73.3256 216.318 72.441C216.929 71.5677 217.644 70.7802 218.445 70.0978C219.179 69.4014 220.42 68.63 221.16 67.9596Z" fill="#FFC0C6"/>
<path d="M145.992 74.7647C145.546 73.8144 144.986 72.8446 144.082 72.3727C143.642 72.1732 143.168 72.0703 142.689 72.0703C142.209 72.0703 141.735 72.1732 141.295 72.3727C140.419 72.7708 139.599 73.292 138.856 73.9218L136.67 75.6174C136.174 75.9592 135.736 76.3848 135.372 76.8768C135.026 77.4739 134.796 78.1378 134.697 78.8295C134.388 80.4144 134.137 82.0449 134.354 83.6494C134.701 86.2529 136.187 88.505 137.821 90.4837C138.843 91.7139 140.106 92.9571 141.661 93.0124C142.333 93.0352 143.079 92.7553 143.357 92.1142C143.455 91.8595 143.506 91.588 143.509 91.3136C143.676 88.4237 142.692 85.602 141.546 82.9692C141.237 82.2532 140.902 81.5112 140.927 80.7269C140.917 80.5937 140.95 80.461 141.02 80.3494C141.118 80.2411 141.25 80.173 141.391 80.1573C142.961 79.8319 145.667 81.1142 146.766 79.2819C147.478 78.0712 146.5 75.8419 145.992 74.7647Z" fill="#FFC0C6"/>
<path d="M178.3 32.4502C178.281 32.2131 178.315 31.9745 178.399 31.7538C178.65 31.2851 179.307 31.4283 179.802 31.5455C181.793 32.0727 183.892 31.5943 185.945 31.718C187.998 31.8416 190.304 32.9189 190.719 35.0343C192.207 33.9246 193.49 32.5395 194.506 30.9467C195.075 30.0484 195.571 29.0233 195.493 27.9493C195.382 26.4002 194.143 25.2416 193.016 24.262L189.611 21.333C189.163 20.9005 188.646 20.5545 188.084 20.3111C187.295 20.0279 186.437 20.1646 185.607 20.1646C183.13 20.1646 180.474 18.9768 178.266 20.1646C177.338 20.6626 176.647 21.5185 175.978 22.3516L172.932 26.1398C172.703 26.3818 172.535 26.6807 172.446 27.0088C172.359 27.4709 172.585 27.9265 172.665 28.3919C172.808 29.2381 172.461 30.1428 172.727 30.9532C173.17 32.3038 174.731 32.4958 175.684 33.2703C176.037 33.5567 176.594 34.5363 177.019 34.5233C177.752 34.507 178.273 33.0751 178.3 32.4502Z" fill="#3F3D56"/>
<path d="M157.587 60.5427C157.194 60.811 156.848 61.149 156.566 61.5418C156.21 62.1113 156.135 62.8436 155.829 63.4294C155.172 64.7116 153.634 65.1705 152.677 66.2217C152.522 66.3654 152.413 66.5566 152.367 66.7685C152.361 67.0547 152.452 67.3339 152.624 67.5561L157.25 75.1975C158.798 75.3407 160.265 74.3253 161.807 74.462C162.38 74.5108 162.971 74.7191 163.523 74.5401C163.916 74.3557 164.286 74.1183 164.622 73.8339C165.551 73.2221 166.764 73.1505 167.535 72.3466C168.306 71.5428 168.371 70.3614 168.362 69.2646C168.376 68.3128 168.283 67.3625 168.086 66.4333C167.405 63.5042 165.272 61.2457 163.934 58.6486C163.281 57.3826 162.928 56.6439 161.55 57.5128C160.173 58.3817 158.891 59.5403 157.587 60.5427Z" fill="#3F3D56"/>
<path d="M213.754 56.6796C214.624 57.273 215.408 57.9941 216.083 58.8211C216.785 59.7746 217.185 60.9463 217.863 61.9226C218.541 62.8989 219.411 63.6019 220.154 64.4741C221.284 65.7954 222.049 67.4031 222.798 69.001C220.964 71.5096 218.965 73.8802 216.816 76.0958C216.577 76.392 216.261 76.6091 215.906 76.7206C215.666 76.7478 215.423 76.7117 215.199 76.6157C214.975 76.5197 214.778 76.3667 214.624 76.1706C214.29 75.8061 214.055 75.3505 213.736 74.9697C212.984 74.1552 211.983 73.6468 210.909 73.5345C209.844 73.4254 208.772 73.4091 207.704 73.4857C207.47 73.5149 207.233 73.4731 207.02 73.3653C206.862 73.2511 206.734 73.0966 206.649 72.9162C205.41 70.6771 205.797 67.8652 206.24 65.3072L207.252 59.4492C207.4 58.3308 207.684 57.237 208.098 56.1947C208.482 55.3323 209.336 53.8678 210.395 54.1282C211.454 54.3885 212.859 56.0027 213.754 56.6796Z" fill="#3F3D56"/>
<path d="M125.462 99.6223L104.132 104.208L103.646 104.159L84.9023 102.17V77.2023L107.848 73.1245L124.493 75.165L124.499 75.2756V75.3277L125.462 99.6223Z" fill="#FF5F6D"/>
<path opacity="0.1" d="M125.462 99.6222L104.132 104.208L103.646 104.159V78.5626L124.499 75.2756L125.462 99.6222Z" fill="black"/>
<path opacity="0.05" d="M124.499 75.3277L124.493 75.3342L103.646 78.5626L84.9023 77.2023L107.848 73.1245L124.493 75.165L124.499 75.2756V75.3277Z" fill="black"/>
<path d="M136.608 74.8884L115.279 79.4772L114.792 79.4251L96.0484 77.4366V52.4684L118.994 48.3906L135.639 50.4311L135.645 50.5418V50.5938L136.608 74.8884Z" fill="#3F3D56"/>
<path opacity="0.1" d="M136.608 74.8883L115.279 79.4771L114.792 79.4251V53.8287L135.645 50.5417L136.608 74.8883Z" fill="black"/>
<path opacity="0.05" d="M135.645 50.5938L135.639 50.6003L114.792 53.8288L96.0484 52.4684L118.994 48.3906L135.639 50.4311L135.645 50.5418V50.5938Z" fill="black"/>
</g>
<defs>
<clipPath id="clip0">
<rect width="294" height="229" fill="white"/>
</clipPath>
</defs>
</svg>
