<svg width="87" height="28" viewBox="0 0 87 28" fill="none" xmlns="http://www.w3.org/2000/svg">
<path d="M7.064 5.452L6.056 10.548H15.548L14.96 13.544H5.44L4.376 18.948H15.464L14.848 22H0.148L4.068 2.4H18.376L17.76 5.452H7.064ZM36.0171 7.048L33.0491 22H29.7171L30.0251 20.46C28.7184 21.6173 27.0944 22.196 25.1531 22.196C23.9211 22.196 22.8011 21.9347 21.7931 21.412C20.8038 20.8893 20.0198 20.1333 19.4411 19.144C18.8624 18.136 18.5731 16.96 18.5731 15.616C18.5731 13.9547 18.9371 12.4613 19.6651 11.136C20.4118 9.792 21.4198 8.74667 22.6891 8C23.9771 7.25333 25.4144 6.88 27.0011 6.88C29.3904 6.88 31.0891 7.67333 32.0971 9.26L32.5171 7.048H36.0171ZM26.0491 19.2C27.0384 19.2 27.9158 18.9667 28.6811 18.5C29.4651 18.0147 30.0811 17.352 30.5291 16.512C30.9771 15.6533 31.2011 14.6827 31.2011 13.6C31.2011 12.424 30.8558 11.5093 30.1651 10.856C29.4744 10.184 28.5038 9.848 27.2531 9.848C26.2638 9.848 25.3771 10.0907 24.5931 10.576C23.8278 11.0427 23.2211 11.7053 22.7731 12.564C22.3251 13.404 22.1011 14.3653 22.1011 15.448C22.1011 16.624 22.4464 17.548 23.1371 18.22C23.8278 18.8733 24.7984 19.2 26.0491 19.2ZM42.7244 22.196C41.4551 22.196 40.2417 22.0467 39.0844 21.748C37.9457 21.4307 37.0591 21.0387 36.4244 20.572L37.8804 17.884C38.4964 18.332 39.2711 18.6867 40.2044 18.948C41.1377 19.2093 42.0991 19.34 43.0884 19.34C44.2084 19.34 45.0484 19.1907 45.6084 18.892C46.1871 18.5747 46.4764 18.1267 46.4764 17.548C46.4764 17.1 46.2337 16.7733 45.7484 16.568C45.2817 16.3627 44.5351 16.148 43.5084 15.924C42.4444 15.7187 41.5671 15.504 40.8764 15.28C40.2044 15.0373 39.6164 14.6547 39.1124 14.132C38.6271 13.5907 38.3844 12.8533 38.3844 11.92C38.3844 10.3707 39.0284 9.148 40.3164 8.252C41.6231 7.33733 43.3497 6.88 45.4964 6.88C46.5231 6.88 47.5217 7.00133 48.4924 7.244C49.4631 7.468 50.2564 7.776 50.8724 8.168L49.5844 10.856C48.9684 10.464 48.2684 10.1747 47.4844 9.988C46.7191 9.80133 45.9444 9.708 45.1604 9.708C44.0591 9.708 43.2191 9.876 42.6404 10.212C42.0804 10.548 41.8004 10.9867 41.8004 11.528C41.8004 12.0133 42.0431 12.368 42.5284 12.592C43.0324 12.7973 43.8071 13.012 44.8524 13.236C45.8977 13.4413 46.7564 13.6653 47.4284 13.908C48.1004 14.132 48.6791 14.5053 49.1644 15.028C49.6497 15.5507 49.8924 16.26 49.8924 17.156C49.8924 18.7613 49.2391 20.0027 47.9324 20.88C46.6257 21.7573 44.8897 22.196 42.7244 22.196ZM68.7611 7.048L58.4571 23.316C57.4305 24.94 56.4505 26.06 55.5171 26.676C54.6025 27.3107 53.4825 27.628 52.1571 27.628C51.4105 27.628 50.6731 27.5067 49.9451 27.264C49.2171 27.0213 48.6478 26.704 48.2371 26.312L49.9731 23.764C50.6638 24.3987 51.4851 24.716 52.4371 24.716C53.0345 24.716 53.5571 24.5573 54.0051 24.24C54.4531 23.9413 54.9105 23.4187 55.3771 22.672L55.8531 21.944L52.3251 7.048H55.8251L58.3451 18.136L65.2611 7.048H68.7611ZM68.6345 12.76H76.3345L75.7465 15.672H68.0745L68.6345 12.76ZM81.2839 7.048H84.7839L81.8159 22H78.3159L81.2839 7.048ZM83.8319 4.584C83.2159 4.584 82.7119 4.39733 82.3199 4.024C81.9279 3.632 81.7319 3.16533 81.7319 2.624C81.7319 1.98933 81.9466 1.45733 82.3759 1.028C82.8239 0.598666 83.4026 0.384 84.1119 0.384C84.7279 0.384 85.2319 0.570666 85.6239 0.943999C86.0159 1.29867 86.2119 1.73733 86.2119 2.26C86.2119 2.95067 85.9879 3.51067 85.5399 3.94C85.1106 4.36933 84.5412 4.584 83.8319 4.584Z" fill="#FF5F6D"/>
</svg>
