<svg width="164" height="16" viewBox="0 0 164 16" fill="none" xmlns="http://www.w3.org/2000/svg">
<path d="M2.715 1.5H4.665L2.565 12H0.615L2.715 1.5ZM11.18 3.9C12.08 3.9 12.79 4.135 13.31 4.605C13.84 5.075 14.105 5.74 14.105 6.6C14.105 6.84 14.07 7.16 14 7.56L13.115 12H11.24L12.11 7.605C12.15 7.405 12.17 7.2 12.17 6.99C12.17 6.02 11.635 5.535 10.565 5.535C9.87504 5.535 9.30504 5.73 8.85504 6.12C8.40504 6.5 8.10004 7.075 7.94004 7.845L7.10004 12H5.22504L6.81504 3.99H8.60004L8.42004 4.875C9.14004 4.225 10.06 3.9 11.18 3.9ZM24.4521 3.99L19.4271 12H17.4921L15.6471 3.99H17.4921L18.8271 9.945L22.5621 3.99H24.4521ZM32.1843 7.41C32.1843 7.8 32.1443 8.18 32.0643 8.55H25.7043C25.7343 9.86 26.5043 10.515 28.0143 10.515C28.4743 10.515 28.9043 10.445 29.3043 10.305C29.7043 10.155 30.0443 9.95 30.3243 9.69L31.1043 10.995C30.6943 11.365 30.1993 11.645 29.6193 11.835C29.0493 12.015 28.4493 12.105 27.8193 12.105C27.0193 12.105 26.3193 11.96 25.7193 11.67C25.1293 11.38 24.6743 10.97 24.3543 10.44C24.0343 9.9 23.8743 9.28 23.8743 8.58C23.8743 7.69 24.0693 6.89 24.4593 6.18C24.8593 5.46 25.4093 4.9 26.1093 4.5C26.8193 4.1 27.6143 3.9 28.4943 3.9C29.6143 3.9 30.5093 4.215 31.1793 4.845C31.8493 5.465 32.1843 6.32 32.1843 7.41ZM28.4043 5.4C27.7743 5.4 27.2343 5.57 26.7843 5.91C26.3443 6.25 26.0393 6.715 25.8693 7.305H30.4593C30.4693 6.705 30.2843 6.24 29.9043 5.91C29.5343 5.57 29.0343 5.4 28.4043 5.4ZM39.0414 3.9C39.9414 3.9 40.6514 4.135 41.1714 4.605C41.7014 5.075 41.9664 5.74 41.9664 6.6C41.9664 6.84 41.9314 7.16 41.8614 7.56L40.9764 12H39.1014L39.9714 7.605C40.0114 7.405 40.0314 7.2 40.0314 6.99C40.0314 6.02 39.4964 5.535 38.4264 5.535C37.7364 5.535 37.1664 5.73 36.7164 6.12C36.2664 6.5 35.9614 7.075 35.8014 7.845L34.9614 12H33.0864L34.6764 3.99H36.4614L36.2814 4.875C37.0014 4.225 37.9214 3.9 39.0414 3.9ZM45.9949 9.315C45.9749 9.475 45.9649 9.59 45.9649 9.66C45.9649 10.26 46.2799 10.56 46.9099 10.56C47.2999 10.56 47.6499 10.455 47.9599 10.245L48.2899 11.625C47.7799 11.945 47.1349 12.105 46.3549 12.105C45.6649 12.105 45.1099 11.915 44.6899 11.535C44.2699 11.155 44.0599 10.63 44.0599 9.96C44.0599 9.74 44.0799 9.53 44.1199 9.33L44.8849 5.55H43.5799L43.8799 4.05H45.1849L45.5449 2.22H47.4199L47.0449 4.05H49.2049L48.9049 5.55H46.7449L45.9949 9.315ZM53.4087 12.105C52.6287 12.105 51.9437 11.96 51.3537 11.67C50.7737 11.37 50.3237 10.955 50.0037 10.425C49.6837 9.895 49.5237 9.28 49.5237 8.58C49.5237 7.69 49.7237 6.89 50.1237 6.18C50.5337 5.47 51.0987 4.915 51.8187 4.515C52.5487 4.105 53.3687 3.9 54.2787 3.9C55.0587 3.9 55.7437 4.045 56.3337 4.335C56.9237 4.625 57.3787 5.035 57.6987 5.565C58.0187 6.095 58.1787 6.71 58.1787 7.41C58.1787 8.3 57.9737 9.1 57.5637 9.81C57.1537 10.52 56.5837 11.08 55.8537 11.49C55.1337 11.9 54.3187 12.105 53.4087 12.105ZM53.5287 10.5C54.0587 10.5 54.5287 10.375 54.9387 10.125C55.3587 9.865 55.6887 9.51 55.9287 9.06C56.1687 8.6 56.2887 8.08 56.2887 7.5C56.2887 6.87 56.1037 6.38 55.7337 6.03C55.3637 5.67 54.8437 5.49 54.1737 5.49C53.6437 5.49 53.1687 5.62 52.7487 5.88C52.3387 6.13 52.0137 6.485 51.7737 6.945C51.5337 7.395 51.4137 7.91 51.4137 8.49C51.4137 9.12 51.5987 9.615 51.9687 9.975C52.3387 10.325 52.8587 10.5 53.5287 10.5ZM62.2816 5.025C62.6316 4.615 63.0566 4.325 63.5566 4.155C64.0666 3.985 64.6716 3.9 65.3716 3.9L65.0266 5.685C64.8566 5.655 64.7016 5.64 64.5616 5.64C63.0316 5.64 62.1066 6.445 61.7866 8.055L60.9916 12H59.1166L60.7066 3.99H62.4916L62.2816 5.025ZM74.7402 3.99L69.2202 12.705C68.6702 13.575 68.1452 14.175 67.6452 14.505C67.1552 14.845 66.5552 15.015 65.8452 15.015C65.4452 15.015 65.0502 14.95 64.6602 14.82C64.2702 14.69 63.9652 14.52 63.7452 14.31L64.6752 12.945C65.0452 13.285 65.4852 13.455 65.9952 13.455C66.3152 13.455 66.5952 13.37 66.8352 13.2C67.0752 13.04 67.3202 12.76 67.5702 12.36L67.8252 11.97L65.9352 3.99H67.8102L69.1602 9.93L72.8652 3.99H74.7402ZM92.2226 1.5L90.1226 12H88.2776L89.6426 5.115L85.1576 10.8H84.2876L81.8876 4.98L80.4926 12H78.6326L80.7326 1.5H82.3226L85.0976 8.49L90.5426 1.5H92.2226ZM102.199 3.99L100.609 12H98.8238L98.9888 11.175C98.2888 11.795 97.4188 12.105 96.3788 12.105C95.7188 12.105 95.1188 11.965 94.5788 11.685C94.0488 11.405 93.6288 11 93.3188 10.47C93.0088 9.93 92.8538 9.3 92.8538 8.58C92.8538 7.69 93.0488 6.89 93.4388 6.18C93.8388 5.46 94.3788 4.9 95.0588 4.5C95.7488 4.1 96.5188 3.9 97.3688 3.9C98.6488 3.9 99.5588 4.325 100.099 5.175L100.324 3.99H102.199ZM96.8588 10.5C97.3888 10.5 97.8588 10.375 98.2688 10.125C98.6888 9.865 99.0188 9.51 99.2588 9.06C99.4988 8.6 99.6188 8.08 99.6188 7.5C99.6188 6.87 99.4338 6.38 99.0638 6.03C98.6938 5.67 98.1738 5.49 97.5038 5.49C96.9738 5.49 96.4988 5.62 96.0788 5.88C95.6688 6.13 95.3438 6.485 95.1038 6.945C94.8638 7.395 94.7438 7.91 94.7438 8.49C94.7438 9.12 94.9288 9.615 95.2988 9.975C95.6688 10.325 96.1888 10.5 96.8588 10.5ZM113.112 0.869999L110.892 12H109.107L109.272 11.175C108.552 11.795 107.687 12.105 106.677 12.105C106.017 12.105 105.417 11.965 104.877 11.685C104.347 11.405 103.927 11 103.617 10.47C103.307 9.93 103.152 9.3 103.152 8.58C103.152 7.68 103.347 6.875 103.737 6.165C104.127 5.455 104.662 4.9 105.342 4.5C106.032 4.1 106.802 3.9 107.652 3.9C108.282 3.9 108.827 4.005 109.287 4.215C109.757 4.425 110.122 4.735 110.382 5.145L111.237 0.869999H113.112ZM107.157 10.5C107.677 10.5 108.147 10.375 108.567 10.125C108.987 9.865 109.312 9.51 109.542 9.06C109.782 8.6 109.902 8.08 109.902 7.5C109.902 6.87 109.717 6.38 109.347 6.03C108.977 5.67 108.457 5.49 107.787 5.49C107.267 5.49 106.797 5.62 106.377 5.88C105.957 6.13 105.627 6.485 105.387 6.945C105.157 7.395 105.042 7.91 105.042 8.49C105.042 9.12 105.227 9.615 105.597 9.975C105.967 10.325 106.487 10.5 107.157 10.5ZM121.745 7.41C121.745 7.8 121.705 8.18 121.625 8.55H115.265C115.295 9.86 116.065 10.515 117.575 10.515C118.035 10.515 118.465 10.445 118.865 10.305C119.265 10.155 119.605 9.95 119.885 9.69L120.665 10.995C120.255 11.365 119.76 11.645 119.18 11.835C118.61 12.015 118.01 12.105 117.38 12.105C116.58 12.105 115.88 11.96 115.28 11.67C114.69 11.38 114.235 10.97 113.915 10.44C113.595 9.9 113.435 9.28 113.435 8.58C113.435 7.69 113.63 6.89 114.02 6.18C114.42 5.46 114.97 4.9 115.67 4.5C116.38 4.1 117.175 3.9 118.055 3.9C119.175 3.9 120.07 4.215 120.74 4.845C121.41 5.465 121.745 6.32 121.745 7.41ZM117.965 5.4C117.335 5.4 116.795 5.57 116.345 5.91C115.905 6.25 115.6 6.715 115.43 7.305H120.02C120.03 6.705 119.845 6.24 119.465 5.91C119.095 5.57 118.595 5.4 117.965 5.4ZM130.677 3.135L130.137 5.865H135.222L134.907 7.47H129.807L129.237 10.365H135.177L134.847 12H126.972L129.072 1.5H136.737L136.407 3.135H130.677ZM146.188 3.99L144.598 12H142.813L142.978 11.175C142.278 11.795 141.408 12.105 140.368 12.105C139.708 12.105 139.108 11.965 138.568 11.685C138.038 11.405 137.618 11 137.308 10.47C136.998 9.93 136.843 9.3 136.843 8.58C136.843 7.69 137.038 6.89 137.428 6.18C137.828 5.46 138.368 4.9 139.048 4.5C139.738 4.1 140.508 3.9 141.358 3.9C142.638 3.9 143.548 4.325 144.088 5.175L144.313 3.99H146.188ZM140.848 10.5C141.378 10.5 141.848 10.375 142.258 10.125C142.678 9.865 143.008 9.51 143.248 9.06C143.488 8.6 143.608 8.08 143.608 7.5C143.608 6.87 143.423 6.38 143.053 6.03C142.683 5.67 142.163 5.49 141.493 5.49C140.963 5.49 140.488 5.62 140.068 5.88C139.658 6.13 139.333 6.485 139.093 6.945C138.853 7.395 138.733 7.91 138.733 8.49C138.733 9.12 138.918 9.615 139.288 9.975C139.658 10.325 140.178 10.5 140.848 10.5ZM149.781 12.105C149.101 12.105 148.451 12.025 147.831 11.865C147.221 11.695 146.746 11.485 146.406 11.235L147.186 9.795C147.516 10.035 147.931 10.225 148.431 10.365C148.931 10.505 149.446 10.575 149.976 10.575C150.576 10.575 151.026 10.495 151.326 10.335C151.636 10.165 151.791 9.925 151.791 9.615C151.791 9.375 151.661 9.2 151.401 9.09C151.151 8.98 150.751 8.865 150.201 8.745C149.631 8.635 149.161 8.52 148.791 8.4C148.431 8.27 148.116 8.065 147.846 7.785C147.586 7.495 147.456 7.1 147.456 6.6C147.456 5.77 147.801 5.115 148.491 4.635C149.191 4.145 150.116 3.9 151.266 3.9C151.816 3.9 152.351 3.965 152.871 4.095C153.391 4.215 153.816 4.38 154.146 4.59L153.456 6.03C153.126 5.82 152.751 5.665 152.331 5.565C151.921 5.465 151.506 5.415 151.086 5.415C150.496 5.415 150.046 5.505 149.736 5.685C149.436 5.865 149.286 6.1 149.286 6.39C149.286 6.65 149.416 6.84 149.676 6.96C149.946 7.07 150.361 7.185 150.921 7.305C151.481 7.415 151.941 7.535 152.301 7.665C152.661 7.785 152.971 7.985 153.231 8.265C153.491 8.545 153.621 8.925 153.621 9.405C153.621 10.265 153.271 10.93 152.571 11.4C151.871 11.87 150.941 12.105 149.781 12.105ZM163.729 3.99L158.209 12.705C157.659 13.575 157.134 14.175 156.634 14.505C156.144 14.845 155.544 15.015 154.834 15.015C154.434 15.015 154.039 14.95 153.649 14.82C153.259 14.69 152.954 14.52 152.734 14.31L153.664 12.945C154.034 13.285 154.474 13.455 154.984 13.455C155.304 13.455 155.584 13.37 155.824 13.2C156.064 13.04 156.309 12.76 156.559 12.36L156.814 11.97L154.924 3.99H156.799L158.149 9.93L161.854 3.99H163.729Z" fill="#FF5F6D"/>
</svg>
