<svg width="205" height="52" viewBox="0 0 205 52" fill="none" xmlns="http://www.w3.org/2000/svg">
<path d="M8.064 10.452L7.056 15.548H16.548L15.96 18.544H6.44L5.376 23.948H16.464L15.848 27H1.148L5.068 7.4H19.376L18.76 10.452H8.064ZM37.0171 12.048L34.0491 27H30.7171L31.0251 25.46C29.7184 26.6173 28.0944 27.196 26.1531 27.196C24.9211 27.196 23.8011 26.9347 22.7931 26.412C21.8038 25.8893 21.0198 25.1333 20.4411 24.144C19.8624 23.136 19.5731 21.96 19.5731 20.616C19.5731 18.9547 19.9371 17.4613 20.6651 16.136C21.4118 14.792 22.4198 13.7467 23.6891 13C24.9771 12.2533 26.4144 11.88 28.0011 11.88C30.3904 11.88 32.0891 12.6733 33.0971 14.26L33.5171 12.048H37.0171ZM27.0491 24.2C28.0384 24.2 28.9158 23.9667 29.6811 23.5C30.4651 23.0147 31.0811 22.352 31.5291 21.512C31.9771 20.6533 32.2011 19.6827 32.2011 18.6C32.2011 17.424 31.8558 16.5093 31.1651 15.856C30.4744 15.184 29.5038 14.848 28.2531 14.848C27.2638 14.848 26.3771 15.0907 25.5931 15.576C24.8278 16.0427 24.2211 16.7053 23.7731 17.564C23.3251 18.404 23.1011 19.3653 23.1011 20.448C23.1011 21.624 23.4464 22.548 24.1371 23.22C24.8278 23.8733 25.7984 24.2 27.0491 24.2ZM43.7244 27.196C42.4551 27.196 41.2417 27.0467 40.0844 26.748C38.9457 26.4307 38.0591 26.0387 37.4244 25.572L38.8804 22.884C39.4964 23.332 40.2711 23.6867 41.2044 23.948C42.1377 24.2093 43.0991 24.34 44.0884 24.34C45.2084 24.34 46.0484 24.1907 46.6084 23.892C47.1871 23.5747 47.4764 23.1267 47.4764 22.548C47.4764 22.1 47.2337 21.7733 46.7484 21.568C46.2817 21.3627 45.5351 21.148 44.5084 20.924C43.4444 20.7187 42.5671 20.504 41.8764 20.28C41.2044 20.0373 40.6164 19.6547 40.1124 19.132C39.6271 18.5907 39.3844 17.8533 39.3844 16.92C39.3844 15.3707 40.0284 14.148 41.3164 13.252C42.6231 12.3373 44.3497 11.88 46.4964 11.88C47.5231 11.88 48.5217 12.0013 49.4924 12.244C50.4631 12.468 51.2564 12.776 51.8724 13.168L50.5844 15.856C49.9684 15.464 49.2684 15.1747 48.4844 14.988C47.7191 14.8013 46.9444 14.708 46.1604 14.708C45.0591 14.708 44.2191 14.876 43.6404 15.212C43.0804 15.548 42.8004 15.9867 42.8004 16.528C42.8004 17.0133 43.0431 17.368 43.5284 17.592C44.0324 17.7973 44.8071 18.012 45.8524 18.236C46.8977 18.4413 47.7564 18.6653 48.4284 18.908C49.1004 19.132 49.6791 19.5053 50.1644 20.028C50.6497 20.5507 50.8924 21.26 50.8924 22.156C50.8924 23.7613 50.2391 25.0027 48.9324 25.88C47.6257 26.7573 45.8897 27.196 43.7244 27.196ZM69.7611 12.048L59.4571 28.316C58.4305 29.94 57.4505 31.06 56.5171 31.676C55.6025 32.3107 54.4825 32.628 53.1571 32.628C52.4105 32.628 51.6731 32.5067 50.9451 32.264C50.2171 32.0213 49.6478 31.704 49.2371 31.312L50.9731 28.764C51.6638 29.3987 52.4851 29.716 53.4371 29.716C54.0345 29.716 54.5571 29.5573 55.0051 29.24C55.4531 28.9413 55.9105 28.4187 56.3771 27.672L56.8531 26.944L53.3251 12.048H56.8251L59.3451 23.136L66.2611 12.048H69.7611ZM69.6345 17.76H77.3345L76.7465 20.672H69.0745L69.6345 17.76ZM82.2839 12.048H85.7839L82.8159 27H79.3159L82.2839 12.048ZM84.8319 9.584C84.2159 9.584 83.7119 9.39733 83.3199 9.024C82.9279 8.632 82.7319 8.16533 82.7319 7.624C82.7319 6.98933 82.9466 6.45733 83.3759 6.028C83.8239 5.59867 84.4026 5.384 85.1119 5.384C85.7279 5.384 86.2319 5.57067 86.6239 5.944C87.0159 6.29867 87.2119 6.73733 87.2119 7.26C87.2119 7.95067 86.9879 8.51067 86.5399 8.94C86.1106 9.36933 85.5412 9.584 84.8319 9.584Z" fill="#FF5F6D"/>
<path d="M38.715 37.5H40.665L38.565 48H36.615L38.715 37.5ZM47.18 39.9C48.08 39.9 48.79 40.135 49.31 40.605C49.84 41.075 50.105 41.74 50.105 42.6C50.105 42.84 50.07 43.16 50 43.56L49.115 48H47.24L48.11 43.605C48.15 43.405 48.17 43.2 48.17 42.99C48.17 42.02 47.635 41.535 46.565 41.535C45.875 41.535 45.305 41.73 44.855 42.12C44.405 42.5 44.1 43.075 43.94 43.845L43.1 48H41.225L42.815 39.99H44.6L44.42 40.875C45.14 40.225 46.06 39.9 47.18 39.9ZM60.4521 39.99L55.4271 48H53.4921L51.6471 39.99H53.4921L54.8271 45.945L58.5621 39.99H60.4521ZM68.1843 43.41C68.1843 43.8 68.1443 44.18 68.0643 44.55H61.7043C61.7343 45.86 62.5043 46.515 64.0143 46.515C64.4743 46.515 64.9043 46.445 65.3043 46.305C65.7043 46.155 66.0443 45.95 66.3243 45.69L67.1043 46.995C66.6943 47.365 66.1993 47.645 65.6193 47.835C65.0493 48.015 64.4493 48.105 63.8193 48.105C63.0193 48.105 62.3193 47.96 61.7193 47.67C61.1293 47.38 60.6743 46.97 60.3543 46.44C60.0343 45.9 59.8743 45.28 59.8743 44.58C59.8743 43.69 60.0693 42.89 60.4593 42.18C60.8593 41.46 61.4093 40.9 62.1093 40.5C62.8193 40.1 63.6143 39.9 64.4943 39.9C65.6143 39.9 66.5093 40.215 67.1793 40.845C67.8493 41.465 68.1843 42.32 68.1843 43.41ZM64.4043 41.4C63.7743 41.4 63.2343 41.57 62.7843 41.91C62.3443 42.25 62.0393 42.715 61.8693 43.305H66.4593C66.4693 42.705 66.2843 42.24 65.9043 41.91C65.5343 41.57 65.0343 41.4 64.4043 41.4ZM75.0414 39.9C75.9414 39.9 76.6514 40.135 77.1714 40.605C77.7014 41.075 77.9664 41.74 77.9664 42.6C77.9664 42.84 77.9314 43.16 77.8614 43.56L76.9764 48H75.1014L75.9714 43.605C76.0114 43.405 76.0314 43.2 76.0314 42.99C76.0314 42.02 75.4964 41.535 74.4264 41.535C73.7364 41.535 73.1664 41.73 72.7164 42.12C72.2664 42.5 71.9614 43.075 71.8014 43.845L70.9614 48H69.0864L70.6764 39.99H72.4614L72.2814 40.875C73.0014 40.225 73.9214 39.9 75.0414 39.9ZM81.9949 45.315C81.9749 45.475 81.9649 45.59 81.9649 45.66C81.9649 46.26 82.2799 46.56 82.9099 46.56C83.2999 46.56 83.6499 46.455 83.9599 46.245L84.2899 47.625C83.7799 47.945 83.1349 48.105 82.3549 48.105C81.6649 48.105 81.1099 47.915 80.6899 47.535C80.2699 47.155 80.0599 46.63 80.0599 45.96C80.0599 45.74 80.0799 45.53 80.1199 45.33L80.8849 41.55H79.5799L79.8799 40.05H81.1849L81.5449 38.22H83.4199L83.0449 40.05H85.2049L84.9049 41.55H82.7449L81.9949 45.315ZM89.4087 48.105C88.6287 48.105 87.9437 47.96 87.3537 47.67C86.7737 47.37 86.3237 46.955 86.0037 46.425C85.6837 45.895 85.5237 45.28 85.5237 44.58C85.5237 43.69 85.7237 42.89 86.1237 42.18C86.5337 41.47 87.0987 40.915 87.8187 40.515C88.5487 40.105 89.3687 39.9 90.2787 39.9C91.0587 39.9 91.7437 40.045 92.3337 40.335C92.9237 40.625 93.3787 41.035 93.6987 41.565C94.0187 42.095 94.1787 42.71 94.1787 43.41C94.1787 44.3 93.9737 45.1 93.5637 45.81C93.1537 46.52 92.5837 47.08 91.8537 47.49C91.1337 47.9 90.3187 48.105 89.4087 48.105ZM89.5287 46.5C90.0587 46.5 90.5287 46.375 90.9387 46.125C91.3587 45.865 91.6887 45.51 91.9287 45.06C92.1687 44.6 92.2887 44.08 92.2887 43.5C92.2887 42.87 92.1037 42.38 91.7337 42.03C91.3637 41.67 90.8437 41.49 90.1737 41.49C89.6437 41.49 89.1687 41.62 88.7487 41.88C88.3387 42.13 88.0137 42.485 87.7737 42.945C87.5337 43.395 87.4137 43.91 87.4137 44.49C87.4137 45.12 87.5987 45.615 87.9687 45.975C88.3387 46.325 88.8587 46.5 89.5287 46.5ZM98.2816 41.025C98.6316 40.615 99.0566 40.325 99.5566 40.155C100.067 39.985 100.672 39.9 101.372 39.9L101.027 41.685C100.857 41.655 100.702 41.64 100.562 41.64C99.0316 41.64 98.1066 42.445 97.7866 44.055L96.9916 48H95.1166L96.7066 39.99H98.4916L98.2816 41.025ZM110.74 39.99L105.22 48.705C104.67 49.575 104.145 50.175 103.645 50.505C103.155 50.845 102.555 51.015 101.845 51.015C101.445 51.015 101.05 50.95 100.66 50.82C100.27 50.69 99.9652 50.52 99.7452 50.31L100.675 48.945C101.045 49.285 101.485 49.455 101.995 49.455C102.315 49.455 102.595 49.37 102.835 49.2C103.075 49.04 103.32 48.76 103.57 48.36L103.825 47.97L101.935 39.99H103.81L105.16 45.93L108.865 39.99H110.74ZM128.223 37.5L126.123 48H124.278L125.643 41.115L121.158 46.8H120.288L117.888 40.98L116.493 48H114.633L116.733 37.5H118.323L121.098 44.49L126.543 37.5H128.223ZM138.199 39.99L136.609 48H134.824L134.989 47.175C134.289 47.795 133.419 48.105 132.379 48.105C131.719 48.105 131.119 47.965 130.579 47.685C130.049 47.405 129.629 47 129.319 46.47C129.009 45.93 128.854 45.3 128.854 44.58C128.854 43.69 129.049 42.89 129.439 42.18C129.839 41.46 130.379 40.9 131.059 40.5C131.749 40.1 132.519 39.9 133.369 39.9C134.649 39.9 135.559 40.325 136.099 41.175L136.324 39.99H138.199ZM132.859 46.5C133.389 46.5 133.859 46.375 134.269 46.125C134.689 45.865 135.019 45.51 135.259 45.06C135.499 44.6 135.619 44.08 135.619 43.5C135.619 42.87 135.434 42.38 135.064 42.03C134.694 41.67 134.174 41.49 133.504 41.49C132.974 41.49 132.499 41.62 132.079 41.88C131.669 42.13 131.344 42.485 131.104 42.945C130.864 43.395 130.744 43.91 130.744 44.49C130.744 45.12 130.929 45.615 131.299 45.975C131.669 46.325 132.189 46.5 132.859 46.5ZM149.112 36.87L146.892 48H145.107L145.272 47.175C144.552 47.795 143.687 48.105 142.677 48.105C142.017 48.105 141.417 47.965 140.877 47.685C140.347 47.405 139.927 47 139.617 46.47C139.307 45.93 139.152 45.3 139.152 44.58C139.152 43.68 139.347 42.875 139.737 42.165C140.127 41.455 140.662 40.9 141.342 40.5C142.032 40.1 142.802 39.9 143.652 39.9C144.282 39.9 144.827 40.005 145.287 40.215C145.757 40.425 146.122 40.735 146.382 41.145L147.237 36.87H149.112ZM143.157 46.5C143.677 46.5 144.147 46.375 144.567 46.125C144.987 45.865 145.312 45.51 145.542 45.06C145.782 44.6 145.902 44.08 145.902 43.5C145.902 42.87 145.717 42.38 145.347 42.03C144.977 41.67 144.457 41.49 143.787 41.49C143.267 41.49 142.797 41.62 142.377 41.88C141.957 42.13 141.627 42.485 141.387 42.945C141.157 43.395 141.042 43.91 141.042 44.49C141.042 45.12 141.227 45.615 141.597 45.975C141.967 46.325 142.487 46.5 143.157 46.5ZM157.745 43.41C157.745 43.8 157.705 44.18 157.625 44.55H151.265C151.295 45.86 152.065 46.515 153.575 46.515C154.035 46.515 154.465 46.445 154.865 46.305C155.265 46.155 155.605 45.95 155.885 45.69L156.665 46.995C156.255 47.365 155.76 47.645 155.18 47.835C154.61 48.015 154.01 48.105 153.38 48.105C152.58 48.105 151.88 47.96 151.28 47.67C150.69 47.38 150.235 46.97 149.915 46.44C149.595 45.9 149.435 45.28 149.435 44.58C149.435 43.69 149.63 42.89 150.02 42.18C150.42 41.46 150.97 40.9 151.67 40.5C152.38 40.1 153.175 39.9 154.055 39.9C155.175 39.9 156.07 40.215 156.74 40.845C157.41 41.465 157.745 42.32 157.745 43.41ZM153.965 41.4C153.335 41.4 152.795 41.57 152.345 41.91C151.905 42.25 151.6 42.715 151.43 43.305H156.02C156.03 42.705 155.845 42.24 155.465 41.91C155.095 41.57 154.595 41.4 153.965 41.4ZM166.677 39.135L166.137 41.865H171.222L170.907 43.47H165.807L165.237 46.365H171.177L170.847 48H162.972L165.072 37.5H172.737L172.407 39.135H166.677ZM182.188 39.99L180.598 48H178.813L178.978 47.175C178.278 47.795 177.408 48.105 176.368 48.105C175.708 48.105 175.108 47.965 174.568 47.685C174.038 47.405 173.618 47 173.308 46.47C172.998 45.93 172.843 45.3 172.843 44.58C172.843 43.69 173.038 42.89 173.428 42.18C173.828 41.46 174.368 40.9 175.048 40.5C175.738 40.1 176.508 39.9 177.358 39.9C178.638 39.9 179.548 40.325 180.088 41.175L180.313 39.99H182.188ZM176.848 46.5C177.378 46.5 177.848 46.375 178.258 46.125C178.678 45.865 179.008 45.51 179.248 45.06C179.488 44.6 179.608 44.08 179.608 43.5C179.608 42.87 179.423 42.38 179.053 42.03C178.683 41.67 178.163 41.49 177.493 41.49C176.963 41.49 176.488 41.62 176.068 41.88C175.658 42.13 175.333 42.485 175.093 42.945C174.853 43.395 174.733 43.91 174.733 44.49C174.733 45.12 174.918 45.615 175.288 45.975C175.658 46.325 176.178 46.5 176.848 46.5ZM185.781 48.105C185.101 48.105 184.451 48.025 183.831 47.865C183.221 47.695 182.746 47.485 182.406 47.235L183.186 45.795C183.516 46.035 183.931 46.225 184.431 46.365C184.931 46.505 185.446 46.575 185.976 46.575C186.576 46.575 187.026 46.495 187.326 46.335C187.636 46.165 187.791 45.925 187.791 45.615C187.791 45.375 187.661 45.2 187.401 45.09C187.151 44.98 186.751 44.865 186.201 44.745C185.631 44.635 185.161 44.52 184.791 44.4C184.431 44.27 184.116 44.065 183.846 43.785C183.586 43.495 183.456 43.1 183.456 42.6C183.456 41.77 183.801 41.115 184.491 40.635C185.191 40.145 186.116 39.9 187.266 39.9C187.816 39.9 188.351 39.965 188.871 40.095C189.391 40.215 189.816 40.38 190.146 40.59L189.456 42.03C189.126 41.82 188.751 41.665 188.331 41.565C187.921 41.465 187.506 41.415 187.086 41.415C186.496 41.415 186.046 41.505 185.736 41.685C185.436 41.865 185.286 42.1 185.286 42.39C185.286 42.65 185.416 42.84 185.676 42.96C185.946 43.07 186.361 43.185 186.921 43.305C187.481 43.415 187.941 43.535 188.301 43.665C188.661 43.785 188.971 43.985 189.231 44.265C189.491 44.545 189.621 44.925 189.621 45.405C189.621 46.265 189.271 46.93 188.571 47.4C187.871 47.87 186.941 48.105 185.781 48.105ZM199.729 39.99L194.209 48.705C193.659 49.575 193.134 50.175 192.634 50.505C192.144 50.845 191.544 51.015 190.834 51.015C190.434 51.015 190.039 50.95 189.649 50.82C189.259 50.69 188.954 50.52 188.734 50.31L189.664 48.945C190.034 49.285 190.474 49.455 190.984 49.455C191.304 49.455 191.584 49.37 191.824 49.2C192.064 49.04 192.309 48.76 192.559 48.36L192.814 47.97L190.924 39.99H192.799L194.149 45.93L197.854 39.99H199.729Z" fill="#FF5F6D"/>
</svg>
