<svg width="405" height="404" viewBox="0 0 405 404" fill="none" xmlns="http://www.w3.org/2000/svg">
<g clip-path="url(#clip0)">
<path d="M300.057 230.803L219.628 101.729C215.975 106.018 211.476 108.936 206.62 110.163C191.479 113.993 176.691 100.714 173.592 80.5038C171.401 66.2174 175.642 52.2996 183.662 44.0108L156.238 0L0 171.484L143.819 402.288L300.057 230.803Z" fill="#F2F2F2"/>
<path d="M34.2958 403.464H405" stroke="#3F3D56" stroke-width="2" stroke-miterlimit="10"/>
<path d="M200.12 104.031C212.643 104.031 222.795 90.9938 222.795 74.9116C222.795 58.8294 212.643 45.7922 200.12 45.7922C187.598 45.7922 177.446 58.8294 177.446 74.9116C177.446 90.9938 187.598 104.031 200.12 104.031Z" fill="#F2F2F2"/>
<path d="M65.4928 58.6405H165.94C170.787 58.6405 175.49 60.7584 179.276 64.646C183.061 68.5336 185.704 73.9595 186.77 80.032L237.524 369.143C238.078 372.297 238.088 375.568 237.553 378.727C237.018 381.885 235.952 384.856 234.429 387.429C232.906 390.003 230.962 392.117 228.736 393.625C226.509 395.132 224.052 395.995 221.538 396.154L118.278 402.688C112.749 403.038 107.309 400.792 102.974 396.37C98.6396 391.948 95.7058 385.651 94.7204 378.655L65.9296 174.25L63.7877 175.036L58.2789 136.294L60.4836 135.586L52.4471 78.5291C52.1029 76.0853 52.1827 73.574 52.6809 71.1743C53.1791 68.7746 54.0834 66.5456 55.3293 64.6462C56.5752 62.7468 58.132 61.2238 59.8888 60.1857C61.6456 59.1476 63.5591 58.62 65.4928 58.6405V58.6405Z" fill="#3F3D56"/>
<path d="M152.716 64.873H164.442C167.809 64.873 171.075 66.3519 173.697 69.0643C176.32 71.7767 178.141 75.5593 178.859 79.7843L227.576 366.537C227.856 368.188 227.856 369.897 227.575 371.548C227.294 373.199 226.739 374.752 225.948 376.102C225.156 377.453 224.147 378.567 222.99 379.371C221.832 380.174 220.553 380.647 219.24 380.758L116.314 389.421C113.41 389.665 110.538 388.528 108.246 386.226C105.953 383.925 104.401 380.619 103.885 376.941L62.3145 80.5546C62.0455 78.6362 62.1075 76.6654 62.4963 74.7813C62.8851 72.8971 63.5912 71.1454 64.5646 69.6499C65.5381 68.1545 66.7553 66.9516 68.1303 66.1262C69.5053 65.3008 71.0046 64.873 72.5224 64.873H83.6456C84.7222 64.873 85.7687 65.3288 86.6232 66.1698C87.4777 67.0108 88.0925 68.1901 88.3723 69.5251C88.6194 70.7037 89.1622 71.7448 89.9165 72.4873C90.6709 73.2298 91.5948 73.6321 92.5452 73.6321H145.351C147.212 73.6321 149.005 72.73 150.37 71.106C151.736 69.4821 152.574 67.256 152.716 64.873L152.716 64.873Z" fill="#FF4F6D"/>
<path d="M185.507 138.989H79.0026V139.663H185.507V138.989Z" fill="#2F2E41"/>
<path d="M189.704 160.887H82.1505V161.561H189.704V160.887Z" fill="#2F2E41"/>
<path d="M85.7283 137.922L88.1483 133.778L87.7287 133.374L85.6373 136.955L77.5778 128.487L77.2459 129.009L85.7283 137.922Z" fill="#2F2E41"/>
<path d="M99.6318 235.62L102.052 231.476L101.632 231.073L99.5403 234.653L91.4809 226.185L91.149 226.707L99.6318 235.62Z" fill="#2F2E41"/>
<path d="M201.504 235.676L90.0148 238.708L90.0259 239.382L201.515 236.35L201.504 235.676Z" fill="#2F2E41"/>
<path d="M204.913 255.553L91.3259 258.922L91.338 259.596L204.925 256.227L204.913 255.553Z" fill="#2F2E41"/>
<path opacity="0.1" d="M135.272 312.993C135.272 321.481 137.897 329.622 142.571 335.624C147.244 341.626 153.583 344.997 160.193 344.997C166.802 344.997 173.141 341.626 177.814 335.624C182.488 329.622 185.114 321.481 185.114 312.993C185.114 312.592 185.108 312.194 185.095 311.797C184.851 303.418 182.057 295.497 177.313 289.737C172.569 283.976 166.254 280.837 159.726 280.994C153.199 281.15 146.98 284.591 142.407 290.575C137.833 296.559 135.271 304.608 135.272 312.993H135.272Z" fill="black"/>
<path opacity="0.1" d="M137.633 325.458C137.633 325.859 137.638 326.256 137.651 326.654C140.068 333.23 144.157 338.553 149.245 341.746C154.332 344.94 160.115 345.813 165.64 344.223C171.166 342.632 176.105 338.673 179.645 332.996C183.184 327.32 185.113 320.265 185.114 312.993C185.114 312.592 185.108 312.194 185.095 311.797C182.678 305.221 178.589 299.898 173.501 296.704C168.414 293.511 162.631 292.638 157.106 294.228C151.58 295.818 146.641 299.778 143.102 305.454C139.562 311.131 137.633 318.186 137.633 325.458H137.633Z" fill="black"/>
<path d="M289.28 145.672C297.765 145.672 304.643 136.839 304.643 125.943C304.643 115.047 297.765 106.214 289.28 106.214C280.796 106.214 273.918 115.047 273.918 125.943C273.918 136.839 280.796 145.672 289.28 145.672Z" fill="#2F2E41"/>
<path d="M305.853 373.173L308.776 389.257H301.679L298.757 371.029L305.853 373.173Z" fill="#9F616A"/>
<path d="M271.622 373.173V388.185L264.525 389.257V373.173H271.622Z" fill="#9F616A"/>
<path d="M307.941 202.687C307.941 202.687 307.106 225.74 306.271 227.349C305.436 228.957 297.922 252.01 297.922 252.01L294.164 236.999C294.164 236.999 300.009 224.668 299.174 217.699C298.339 210.729 298.865 202.153 298.865 202.153L307.941 202.687Z" fill="#9F616A"/>
<path d="M284.145 146.931C290.601 146.931 295.834 140.21 295.834 131.92C295.834 123.629 290.601 116.908 284.145 116.908C277.69 116.908 272.457 123.629 272.457 131.92C272.457 140.21 277.69 146.931 284.145 146.931Z" fill="#9F616A"/>
<path d="M293.747 133.528C293.747 133.528 293.33 154.973 296.252 158.189C299.174 161.406 279.553 158.725 279.553 158.725C279.553 158.725 283.728 143.714 280.388 140.497C277.049 137.281 293.747 133.528 293.747 133.528Z" fill="#9F616A"/>
<path d="M278.301 157.653C278.301 157.653 280.806 151.756 284.146 152.292C287.485 152.828 298.339 153.9 298.757 154.973C299.174 156.045 300.426 159.798 301.261 160.87C302.096 161.942 308.358 163.551 308.776 169.984C309.193 176.417 293.747 215.554 293.747 215.554C293.747 215.554 295.834 224.668 295.417 226.813C294.999 228.957 297.504 235.391 297.087 238.071C296.669 240.752 303.349 256.835 300.009 277.744V311.519C300.009 311.519 311.28 369.956 307.941 374.245C304.601 378.534 293.33 375.854 291.242 374.245C289.155 372.637 280.388 291.683 280.388 291.683L276.214 264.341L275.796 324.386C275.796 324.386 276.631 374.781 273.709 376.39C270.787 377.998 259.515 378.534 258.68 375.318C258.029 372.809 254.839 306.057 253.466 276.797C252.99 266.697 253.609 256.561 255.304 246.68C257.042 236.559 259.564 224.669 262.438 219.843C267.865 210.729 271.204 181.779 271.204 181.779L264.107 165.159C264.107 165.159 268.282 159.798 270.787 159.798C273.292 159.798 278.301 157.653 278.301 157.653Z" fill="#2F2E41"/>
<path d="M306.271 166.231L308.472 168.156C308.472 168.156 310.028 202.687 308.776 204.832C307.523 206.976 298.816 205.93 298.16 204.04C297.504 202.151 306.271 166.231 306.271 166.231Z" fill="#2F2E41"/>
<path d="M269.043 197.628C270.265 208.515 271.336 218.206 265.088 226.974C258.808 235.847 251.726 243.725 243.992 250.441C243.226 253.048 231.975 272.192 231.403 264.556C230.831 256.919 234.718 250.933 240.241 244.475C245.765 238.017 253.492 224.006 257.853 216.317C262.213 208.629 260.418 203.835 260.266 197.413C260.115 190.992 267.329 197.706 269.043 197.628Z" fill="#9F616A"/>
<path d="M264.525 379.499C264.525 379.499 264.107 385.504 262.855 387.112C261.603 388.721 258.263 390.865 258.68 396.762C259.098 402.66 261.811 402.928 261.811 402.928L261.603 401.587L262.855 402.124L263.064 402.928H274.753C274.753 402.928 274.961 397.298 274.544 394.618C274.126 391.937 274.126 379.07 272.874 379.607C271.622 380.143 268.282 380.679 267.447 382.823C266.612 384.968 264.107 384.216 264.525 379.499Z" fill="#2F2E41"/>
<path d="M307.106 379.499C307.106 379.499 307.523 385.504 308.776 387.112C310.028 388.721 313.368 390.865 312.95 396.762C312.533 402.66 309.819 402.928 309.819 402.928L310.028 401.587L308.776 402.124L308.567 402.928H296.878C296.878 402.928 296.669 397.298 297.087 394.618C297.504 391.937 297.504 379.07 298.757 379.607C300.009 380.143 303.349 380.679 304.184 382.823C305.018 384.968 307.523 384.216 307.106 379.499Z" fill="#2F2E41"/>
<path d="M269.952 163.551L264.107 165.159C264.107 165.159 264.107 176.954 262.438 181.779C260.768 186.604 257.846 197.862 259.098 198.398C260.35 198.934 272.039 206.44 272.874 202.151C273.709 197.862 275.796 163.551 269.952 163.551Z" fill="#2F2E41"/>
<path d="M305.923 119.696C314.407 119.696 321.285 110.863 321.285 99.9667C321.285 89.0706 314.407 80.2375 305.923 80.2375C297.438 80.2375 290.56 89.0706 290.56 99.9667C290.56 110.863 297.438 119.696 305.923 119.696Z" fill="#2F2E41"/>
<path d="M319.174 116.304C317.185 118.149 314.882 119.356 312.455 119.824C310.029 120.292 307.551 120.007 305.228 118.993C302.906 117.978 300.806 116.265 299.105 113.994C297.403 111.724 296.15 108.964 295.45 105.944C295.715 108.65 296.414 111.256 297.503 113.598C298.592 115.94 300.047 117.966 301.776 119.549C303.505 121.132 305.472 122.238 307.55 122.796C309.629 123.353 311.776 123.352 313.854 122.791C315.932 122.23 317.897 121.121 319.625 119.536C321.353 117.95 322.806 115.921 323.893 113.578C324.98 111.235 325.676 108.627 325.939 105.921C326.201 103.214 326.024 100.467 325.418 97.8535C325.762 101.365 325.364 104.932 324.265 108.178C323.167 111.424 321.408 114.231 319.174 116.304Z" fill="#2F2E41"/>
<path d="M293.377 143.699C299.599 143.699 304.643 137.222 304.643 129.231C304.643 121.241 299.599 114.764 293.377 114.764C287.155 114.764 282.111 121.241 282.111 129.231C282.111 137.222 287.155 143.699 293.377 143.699Z" fill="#2F2E41"/>
<path d="M283.903 133.835C289.418 133.835 293.889 129.345 293.889 123.806C293.889 118.267 289.418 113.777 283.903 113.777C278.388 113.777 273.918 118.267 273.918 123.806C273.918 129.345 278.388 133.835 283.903 133.835Z" fill="#2F2E41"/>
<path d="M281.24 138.389C282.287 138.389 283.135 136.461 283.135 134.083C283.135 131.704 282.287 129.777 281.24 129.777C280.193 129.777 279.345 131.704 279.345 134.083C279.345 136.461 280.193 138.389 281.24 138.389Z" fill="#A0616A"/>
</g>
<defs>
<clipPath id="clip0">
<rect width="405" height="404" fill="white"/>
</clipPath>
</defs>
</svg>
