<svg width="247" height="95" viewBox="0 0 247 95" fill="none" xmlns="http://www.w3.org/2000/svg">
<path d="M7.428 4.48H0.932L1.548 1.4H18.18L17.536 4.48H11.04L7.764 21H4.124L7.428 4.48ZM27.7718 5.88C29.4518 5.88 30.7771 6.31867 31.7478 7.196C32.7371 8.07333 33.2318 9.324 33.2318 10.948C33.2318 11.396 33.1664 11.984 33.0358 12.712L31.3838 21H27.8838L29.5078 12.796C29.5824 12.4227 29.6198 12.04 29.6198 11.648C29.6198 9.83733 28.6211 8.932 26.6238 8.932C25.3358 8.932 24.2718 9.296 23.4318 10.024C22.5918 10.7333 22.0224 11.8067 21.7238 13.244L20.1558 21H16.6558L20.7998 0.223999H24.2998L22.8438 7.532C24.1318 6.43067 25.7744 5.88 27.7718 5.88ZM51.6124 12.432C51.6124 13.16 51.5378 13.8693 51.3884 14.56H39.5164C39.5724 17.0053 41.0098 18.228 43.8284 18.228C44.6871 18.228 45.4898 18.0973 46.2364 17.836C46.9831 17.556 47.6178 17.1733 48.1404 16.688L49.5964 19.124C48.8311 19.8147 47.9071 20.3373 46.8244 20.692C45.7604 21.028 44.6404 21.196 43.4644 21.196C41.9711 21.196 40.6644 20.9253 39.5444 20.384C38.4431 19.8427 37.5938 19.0773 36.9964 18.088C36.3991 17.08 36.1004 15.9227 36.1004 14.616C36.1004 12.9547 36.4644 11.4613 37.1924 10.136C37.9391 8.792 38.9658 7.74667 40.2724 7C41.5978 6.25333 43.0818 5.88 44.7244 5.88C46.8151 5.88 48.4858 6.468 49.7364 7.644C50.9871 8.80133 51.6124 10.3973 51.6124 12.432ZM44.5564 8.68C43.3804 8.68 42.3724 8.99733 41.5324 9.632C40.7111 10.2667 40.1418 11.1347 39.8244 12.236H48.3924C48.4111 11.116 48.0658 10.248 47.3564 9.632C46.6658 8.99733 45.7324 8.68 44.5564 8.68ZM66.1307 21.196C64.8613 21.196 63.648 21.0467 62.4907 20.748C61.352 20.4307 60.4653 20.0387 59.8307 19.572L61.2867 16.884C61.9027 17.332 62.6773 17.6867 63.6107 17.948C64.544 18.2093 65.5053 18.34 66.4947 18.34C67.6147 18.34 68.4547 18.1907 69.0147 17.892C69.5933 17.5747 69.8827 17.1267 69.8827 16.548C69.8827 16.1 69.64 15.7733 69.1547 15.568C68.688 15.3627 67.9413 15.148 66.9147 14.924C65.8507 14.7187 64.9733 14.504 64.2827 14.28C63.6107 14.0373 63.0227 13.6547 62.5187 13.132C62.0333 12.5907 61.7907 11.8533 61.7907 10.92C61.7907 9.37067 62.4347 8.148 63.7227 7.252C65.0293 6.33733 66.756 5.88 68.9027 5.88C69.9293 5.88 70.928 6.00133 71.8987 6.244C72.8693 6.468 73.6627 6.776 74.2787 7.168L72.9907 9.856C72.3747 9.464 71.6747 9.17467 70.8907 8.988C70.1253 8.80133 69.3507 8.708 68.5667 8.708C67.4653 8.708 66.6253 8.876 66.0467 9.212C65.4867 9.548 65.2067 9.98667 65.2067 10.528C65.2067 11.0133 65.4493 11.368 65.9347 11.592C66.4387 11.7973 67.2133 12.012 68.2587 12.236C69.304 12.4413 70.1627 12.6653 70.8347 12.908C71.5067 13.132 72.0853 13.5053 72.5707 14.028C73.056 14.5507 73.2987 15.26 73.2987 16.156C73.2987 17.7613 72.6453 19.0027 71.3387 19.88C70.032 20.7573 68.296 21.196 66.1307 21.196ZM96.8928 5.88C98.5728 5.88 99.8888 6.30933 100.841 7.168C101.811 8.02667 102.297 9.25867 102.297 10.864C102.297 11.4613 102.231 12.0773 102.101 12.712L100.449 21H96.9488L98.6008 12.796C98.6755 12.4227 98.7128 12.0307 98.7128 11.62C98.7128 9.828 97.7608 8.932 95.8568 8.932C93.3741 8.932 91.8435 10.36 91.2648 13.216L89.6968 21H86.1968L87.8488 12.796C87.9235 12.4227 87.9608 12.0307 87.9608 11.62C87.9608 9.828 87.0088 8.932 85.1048 8.932C82.6221 8.932 81.0915 10.3693 80.5128 13.244L78.9448 21H75.4448L78.4128 6.048H81.7448L81.4368 7.672C82.7061 6.47733 84.3395 5.88 86.3368 5.88C87.4195 5.88 88.3621 6.09467 89.1648 6.524C89.9675 6.93467 90.5741 7.54133 90.9848 8.344C92.5155 6.70133 94.4848 5.88 96.8928 5.88ZM122.642 6.048L119.674 21H116.342L116.65 19.46C115.343 20.6173 113.719 21.196 111.778 21.196C110.546 21.196 109.426 20.9347 108.418 20.412C107.429 19.8893 106.645 19.1333 106.066 18.144C105.487 17.136 105.198 15.96 105.198 14.616C105.198 12.9547 105.562 11.4613 106.29 10.136C107.037 8.792 108.045 7.74667 109.314 7C110.602 6.25333 112.039 5.88 113.626 5.88C116.015 5.88 117.714 6.67333 118.722 8.26L119.142 6.048H122.642ZM112.674 18.2C113.663 18.2 114.541 17.9667 115.306 17.5C116.09 17.0147 116.706 16.352 117.154 15.512C117.602 14.6533 117.826 13.6827 117.826 12.6C117.826 11.424 117.481 10.5093 116.79 9.856C116.099 9.184 115.129 8.848 113.878 8.848C112.889 8.848 112.002 9.09067 111.218 9.576C110.453 10.0427 109.846 10.7053 109.398 11.564C108.95 12.404 108.726 13.3653 108.726 14.448C108.726 15.624 109.071 16.548 109.762 17.22C110.453 17.8733 111.423 18.2 112.674 18.2ZM130.161 7.98C130.815 7.21467 131.608 6.67333 132.541 6.356C133.493 6.03867 134.623 5.88 135.929 5.88L135.285 9.212C134.968 9.156 134.679 9.128 134.417 9.128C131.561 9.128 129.835 10.6307 129.237 13.636L127.753 21H124.253L127.221 6.048H130.553L130.161 7.98ZM141.349 15.988C141.312 16.2867 141.293 16.5013 141.293 16.632C141.293 17.752 141.881 18.312 143.057 18.312C143.785 18.312 144.439 18.116 145.017 17.724L145.633 20.3C144.681 20.8973 143.477 21.196 142.021 21.196C140.733 21.196 139.697 20.8413 138.913 20.132C138.129 19.4227 137.737 18.4427 137.737 17.192C137.737 16.7813 137.775 16.3893 137.849 16.016L139.277 8.96H136.841L137.401 6.16H139.837L140.509 2.744H144.009L143.309 6.16H147.341L146.781 8.96H142.749L141.349 15.988ZM163.448 12.432C163.448 13.16 163.374 13.8693 163.224 14.56H151.352C151.408 17.0053 152.846 18.228 155.664 18.228C156.523 18.228 157.326 18.0973 158.072 17.836C158.819 17.556 159.454 17.1733 159.976 16.688L161.432 19.124C160.667 19.8147 159.743 20.3373 158.66 20.692C157.596 21.028 156.476 21.196 155.3 21.196C153.807 21.196 152.5 20.9253 151.38 20.384C150.279 19.8427 149.43 19.0773 148.832 18.088C148.235 17.08 147.936 15.9227 147.936 14.616C147.936 12.9547 148.3 11.4613 149.028 10.136C149.775 8.792 150.802 7.74667 152.108 7C153.434 6.25333 154.918 5.88 156.56 5.88C158.651 5.88 160.322 6.468 161.572 7.644C162.823 8.80133 163.448 10.3973 163.448 12.432ZM156.392 8.68C155.216 8.68 154.208 8.99733 153.368 9.632C152.547 10.2667 151.978 11.1347 151.66 12.236H160.228C160.247 11.116 159.902 10.248 159.192 9.632C158.502 8.99733 157.568 8.68 156.392 8.68ZM171.04 7.98C171.694 7.21467 172.487 6.67333 173.42 6.356C174.372 6.03867 175.502 5.88 176.808 5.88L176.164 9.212C175.847 9.156 175.558 9.128 175.296 9.128C172.44 9.128 170.714 10.6307 170.116 13.636L168.632 21H165.132L168.1 6.048H171.432L171.04 7.98ZM211.116 6.048L202.772 21H199.328L197.312 10.696L191.46 21H188.072L185.328 6.048H188.52L190.424 17.052L196.668 6.048H199.664L201.652 17.052L207.812 6.048H211.116ZM227.615 6.048L224.647 21H221.315L221.623 19.46C220.316 20.6173 218.692 21.196 216.751 21.196C215.519 21.196 214.399 20.9347 213.391 20.412C212.401 19.8893 211.617 19.1333 211.039 18.144C210.46 17.136 210.171 15.96 210.171 14.616C210.171 12.9547 210.535 11.4613 211.263 10.136C212.009 8.792 213.017 7.74667 214.287 7C215.575 6.25333 217.012 5.88 218.599 5.88C220.988 5.88 222.687 6.67333 223.695 8.26L224.115 6.048H227.615ZM217.647 18.2C218.636 18.2 219.513 17.9667 220.279 17.5C221.063 17.0147 221.679 16.352 222.127 15.512C222.575 14.6533 222.799 13.6827 222.799 12.6C222.799 11.424 222.453 10.5093 221.763 9.856C221.072 9.184 220.101 8.848 218.851 8.848C217.861 8.848 216.975 9.09067 216.191 9.576C215.425 10.0427 214.819 10.7053 214.371 11.564C213.923 12.404 213.699 13.3653 213.699 14.448C213.699 15.624 214.044 16.548 214.735 17.22C215.425 17.8733 216.396 18.2 217.647 18.2ZM246.222 6.048L235.918 22.316C234.891 23.94 233.911 25.06 232.978 25.676C232.063 26.3107 230.943 26.628 229.618 26.628C228.871 26.628 228.134 26.5067 227.406 26.264C226.678 26.0213 226.109 25.704 225.698 25.312L227.434 22.764C228.125 23.3987 228.946 23.716 229.898 23.716C230.495 23.716 231.018 23.5573 231.466 23.24C231.914 22.9413 232.371 22.4187 232.838 21.672L233.314 20.944L229.786 6.048H233.286L235.806 17.136L242.722 6.048H246.222ZM4.74 49.988C4.70267 50.2867 4.684 50.5013 4.684 50.632C4.684 51.752 5.272 52.312 6.448 52.312C7.176 52.312 7.82933 52.116 8.408 51.724L9.024 54.3C8.072 54.8973 6.868 55.196 5.412 55.196C4.124 55.196 3.088 54.8413 2.304 54.132C1.52 53.4227 1.128 52.4427 1.128 51.192C1.128 50.7813 1.16533 50.3893 1.24 50.016L2.668 42.96H0.232L0.792 40.16H3.228L3.9 36.744H7.4L6.7 40.16H10.732L10.172 42.96H6.14L4.74 49.988ZM18.579 55.196C17.123 55.196 15.8443 54.9253 14.743 54.384C13.6603 53.824 12.8203 53.0493 12.223 52.06C11.6257 51.0707 11.327 49.9227 11.327 48.616C11.327 46.9547 11.7003 45.4613 12.447 44.136C13.2123 42.8107 14.267 41.7747 15.611 41.028C16.9737 40.2627 18.5043 39.88 20.203 39.88C21.659 39.88 22.9377 40.1507 24.039 40.692C25.1403 41.2333 25.9897 41.9987 26.587 42.988C27.1843 43.9773 27.483 45.1253 27.483 46.432C27.483 48.0933 27.1003 49.5867 26.335 50.912C25.5697 52.2373 24.5057 53.2827 23.143 54.048C21.799 54.8133 20.2777 55.196 18.579 55.196ZM18.803 52.2C19.7923 52.2 20.6697 51.9667 21.435 51.5C22.219 51.0147 22.835 50.352 23.283 49.512C23.731 48.6533 23.955 47.6827 23.955 46.6C23.955 45.424 23.6097 44.5093 22.919 43.856C22.2283 43.184 21.2577 42.848 20.007 42.848C19.0177 42.848 18.131 43.0907 17.347 43.576C16.5817 44.0427 15.975 44.7053 15.527 45.564C15.079 46.404 14.855 47.3653 14.855 48.448C14.855 49.624 15.2003 50.548 15.891 51.22C16.5817 51.8733 17.5523 52.2 18.803 52.2ZM58.4202 39.88C60.1002 39.88 61.4162 40.3093 62.3682 41.168C63.3388 42.0267 63.8242 43.2587 63.8242 44.864C63.8242 45.4613 63.7588 46.0773 63.6282 46.712L61.9762 55H58.4762L60.1282 46.796C60.2028 46.4227 60.2402 46.0307 60.2402 45.62C60.2402 43.828 59.2882 42.932 57.3842 42.932C54.9015 42.932 53.3708 44.36 52.7922 47.216L51.2242 55H47.7242L49.3762 46.796C49.4508 46.4227 49.4882 46.0307 49.4882 45.62C49.4882 43.828 48.5362 42.932 46.6322 42.932C44.1495 42.932 42.6188 44.3693 42.0402 47.244L40.4722 55H36.9722L39.9402 40.048H43.2722L42.9642 41.672C44.2335 40.4773 45.8668 39.88 47.8642 39.88C48.9468 39.88 49.8895 40.0947 50.6922 40.524C51.4948 40.9347 52.1015 41.5413 52.5122 42.344C54.0428 40.7013 56.0122 39.88 58.4202 39.88ZM84.1694 40.048L81.2014 55H77.8694L78.1774 53.46C76.8708 54.6173 75.2468 55.196 73.3054 55.196C72.0734 55.196 70.9534 54.9347 69.9454 54.412C68.9561 53.8893 68.1721 53.1333 67.5934 52.144C67.0148 51.136 66.7254 49.96 66.7254 48.616C66.7254 46.9547 67.0894 45.4613 67.8174 44.136C68.5641 42.792 69.5721 41.7467 70.8414 41C72.1294 40.2533 73.5668 39.88 75.1534 39.88C77.5428 39.88 79.2414 40.6733 80.2494 42.26L80.6694 40.048H84.1694ZM74.2014 52.2C75.1908 52.2 76.0681 51.9667 76.8334 51.5C77.6174 51.0147 78.2334 50.352 78.6814 49.512C79.1294 48.6533 79.3534 47.6827 79.3534 46.6C79.3534 45.424 79.0081 44.5093 78.3174 43.856C77.6268 43.184 76.6561 42.848 75.4054 42.848C74.4161 42.848 73.5294 43.0907 72.7454 43.576C71.9801 44.0427 71.3734 44.7053 70.9254 45.564C70.4774 46.404 70.2534 47.3653 70.2534 48.448C70.2534 49.624 70.5988 50.548 71.2894 51.22C71.9801 51.8733 72.9508 52.2 74.2014 52.2ZM96.8968 39.88C98.5768 39.88 99.9021 40.3187 100.873 41.196C101.862 42.0733 102.357 43.3147 102.357 44.92C102.357 45.368 102.291 45.9653 102.161 46.712L100.509 55H97.0088L98.6328 46.796C98.7074 46.4227 98.7448 46.04 98.7448 45.648C98.7448 43.8373 97.7461 42.932 95.7488 42.932C94.4608 42.932 93.3968 43.296 92.5568 44.024C91.7168 44.7333 91.1474 45.8067 90.8488 47.244L89.2808 55H85.7808L88.7488 40.048H92.0808L91.7448 41.7C93.0888 40.4867 94.8061 39.88 96.8968 39.88ZM122.669 40.048L119.701 55H116.369L116.677 53.46C115.371 54.6173 113.747 55.196 111.805 55.196C110.573 55.196 109.453 54.9347 108.445 54.412C107.456 53.8893 106.672 53.1333 106.093 52.144C105.515 51.136 105.225 49.96 105.225 48.616C105.225 46.9547 105.589 45.4613 106.317 44.136C107.064 42.792 108.072 41.7467 109.341 41C110.629 40.2533 112.067 39.88 113.653 39.88C116.043 39.88 117.741 40.6733 118.749 42.26L119.169 40.048H122.669ZM112.701 52.2C113.691 52.2 114.568 51.9667 115.333 51.5C116.117 51.0147 116.733 50.352 117.181 49.512C117.629 48.6533 117.853 47.6827 117.853 46.6C117.853 45.424 117.508 44.5093 116.817 43.856C116.127 43.184 115.156 42.848 113.905 42.848C112.916 42.848 112.029 43.0907 111.245 43.576C110.48 44.0427 109.873 44.7053 109.425 45.564C108.977 46.404 108.753 47.3653 108.753 48.448C108.753 49.624 109.099 50.548 109.789 51.22C110.48 51.8733 111.451 52.2 112.701 52.2ZM142.117 40.048L139.569 52.732C139.009 55.476 137.973 57.4733 136.461 58.724C134.949 59.9933 132.905 60.628 130.329 60.628C127.398 60.628 125.065 59.9467 123.329 58.584L125.149 55.952C125.727 56.456 126.493 56.8573 127.445 57.156C128.415 57.4733 129.451 57.632 130.553 57.632C132.158 57.632 133.39 57.2773 134.249 56.568C135.107 55.8587 135.677 54.776 135.957 53.32L136.097 52.592C134.753 53.7493 133.119 54.328 131.197 54.328C129.909 54.328 128.751 54.076 127.725 53.572C126.717 53.068 125.923 52.3493 125.345 51.416C124.785 50.4827 124.505 49.3907 124.505 48.14C124.505 46.6093 124.869 45.2187 125.597 43.968C126.325 42.6987 127.333 41.7 128.621 40.972C129.927 40.244 131.383 39.88 132.989 39.88C134.165 39.88 135.219 40.104 136.153 40.552C137.086 40.9813 137.795 41.6347 138.281 42.512L138.757 40.048H142.117ZM131.981 51.36C132.97 51.36 133.847 51.1453 134.613 50.716C135.397 50.268 136.003 49.6613 136.433 48.896C136.881 48.112 137.105 47.2347 137.105 46.264C137.105 45.2 136.759 44.3693 136.069 43.772C135.378 43.156 134.417 42.848 133.185 42.848C132.195 42.848 131.309 43.072 130.525 43.52C129.741 43.9493 129.125 44.556 128.677 45.34C128.247 46.1053 128.033 46.9733 128.033 47.944C128.033 48.9893 128.378 49.82 129.069 50.436C129.778 51.052 130.749 51.36 131.981 51.36ZM159.374 46.432C159.374 47.16 159.299 47.8693 159.15 48.56H147.278C147.334 51.0053 148.771 52.228 151.59 52.228C152.449 52.228 153.251 52.0973 153.998 51.836C154.745 51.556 155.379 51.1733 155.902 50.688L157.358 53.124C156.593 53.8147 155.669 54.3373 154.586 54.692C153.522 55.028 152.402 55.196 151.226 55.196C149.733 55.196 148.426 54.9253 147.306 54.384C146.205 53.8427 145.355 53.0773 144.758 52.088C144.161 51.08 143.862 49.9227 143.862 48.616C143.862 46.9547 144.226 45.4613 144.954 44.136C145.701 42.792 146.727 41.7467 148.034 41C149.359 40.2533 150.843 39.88 152.486 39.88C154.577 39.88 156.247 40.468 157.498 41.644C158.749 42.8013 159.374 44.3973 159.374 46.432ZM152.318 42.68C151.142 42.68 150.134 42.9973 149.294 43.632C148.473 44.2667 147.903 45.1347 147.586 46.236H156.154C156.173 45.116 155.827 44.248 155.118 43.632C154.427 42.9973 153.494 42.68 152.318 42.68ZM178.876 48.308L177.532 55H173.92L175.292 48.056L170.168 35.4H173.78L177.644 44.976L185.372 35.4H189.18L178.876 48.308ZM193.032 55.196C191.576 55.196 190.297 54.9253 189.196 54.384C188.113 53.824 187.273 53.0493 186.676 52.06C186.079 51.0707 185.78 49.9227 185.78 48.616C185.78 46.9547 186.153 45.4613 186.9 44.136C187.665 42.8107 188.72 41.7747 190.064 41.028C191.427 40.2627 192.957 39.88 194.656 39.88C196.112 39.88 197.391 40.1507 198.492 40.692C199.593 41.2333 200.443 41.9987 201.04 42.988C201.637 43.9773 201.936 45.1253 201.936 46.432C201.936 48.0933 201.553 49.5867 200.788 50.912C200.023 52.2373 198.959 53.2827 197.596 54.048C196.252 54.8133 194.731 55.196 193.032 55.196ZM193.256 52.2C194.245 52.2 195.123 51.9667 195.888 51.5C196.672 51.0147 197.288 50.352 197.736 49.512C198.184 48.6533 198.408 47.6827 198.408 46.6C198.408 45.424 198.063 44.5093 197.372 43.856C196.681 43.184 195.711 42.848 194.46 42.848C193.471 42.848 192.584 43.0907 191.8 43.576C191.035 44.0427 190.428 44.7053 189.98 45.564C189.532 46.404 189.308 47.3653 189.308 48.448C189.308 49.624 189.653 50.548 190.344 51.22C191.035 51.8733 192.005 52.2 193.256 52.2ZM221.159 40.048L218.163 55H214.831L215.167 53.348C213.823 54.58 212.134 55.196 210.099 55.196C208.456 55.196 207.14 54.7573 206.151 53.88C205.18 52.984 204.695 51.7333 204.695 50.128C204.695 49.5307 204.76 48.9333 204.891 48.336L206.543 40.048H210.043L208.391 48.252C208.316 48.6253 208.279 49.008 208.279 49.4C208.279 50.2773 208.522 50.9493 209.007 51.416C209.511 51.8827 210.258 52.116 211.247 52.116C212.516 52.116 213.571 51.7613 214.411 51.052C215.251 50.324 215.811 49.2413 216.091 47.804L217.659 40.048H221.159ZM228.654 41.98C229.307 41.2147 230.1 40.6733 231.034 40.356C231.986 40.0387 233.115 39.88 234.422 39.88L233.778 43.212C233.46 43.156 233.171 43.128 232.91 43.128C230.054 43.128 228.327 44.6307 227.73 47.636L226.246 55H222.746L225.714 40.048H229.046L228.654 41.98ZM4.068 69.4H7.708L3.788 89H0.148L4.068 69.4ZM19.8694 73.88C21.5494 73.88 22.8747 74.3187 23.8454 75.196C24.8347 76.0733 25.3294 77.3147 25.3294 78.92C25.3294 79.368 25.2641 79.9653 25.1334 80.712L23.4814 89H19.9814L21.6054 80.796C21.6801 80.4227 21.7174 80.04 21.7174 79.648C21.7174 77.8373 20.7187 76.932 18.7214 76.932C17.4334 76.932 16.3694 77.296 15.5294 78.024C14.6894 78.7333 14.1201 79.8067 13.8214 81.244L12.2534 89H8.75341L11.7214 74.048H15.0534L14.7174 75.7C16.0614 74.4867 17.7787 73.88 19.8694 73.88ZM44.6439 74.048L35.2639 89H31.6519L28.2079 74.048H31.6519L34.1439 85.164L41.1159 74.048H44.6439ZM59.0773 80.432C59.0773 81.16 59.0026 81.8693 58.8533 82.56H46.9813C47.0373 85.0053 48.4746 86.228 51.2933 86.228C52.1519 86.228 52.9546 86.0973 53.7013 85.836C54.4479 85.556 55.0826 85.1733 55.6053 84.688L57.0613 87.124C56.2959 87.8147 55.3719 88.3373 54.2893 88.692C53.2253 89.028 52.1053 89.196 50.9293 89.196C49.4359 89.196 48.1293 88.9253 47.0093 88.384C45.9079 87.8427 45.0586 87.0773 44.4613 86.088C43.8639 85.08 43.5653 83.9227 43.5653 82.616C43.5653 80.9547 43.9293 79.4613 44.6573 78.136C45.4039 76.792 46.4306 75.7467 47.7373 75C49.0626 74.2533 50.5466 73.88 52.1893 73.88C54.2799 73.88 55.9506 74.468 57.2013 75.644C58.4519 76.8013 59.0773 78.3973 59.0773 80.432ZM52.0213 76.68C50.8453 76.68 49.8373 76.9973 48.9973 77.632C48.1759 78.2667 47.6066 79.1347 47.2893 80.236H55.8573C55.8759 79.116 55.5306 78.248 54.8213 77.632C54.1306 76.9973 53.1973 76.68 52.0213 76.68ZM71.8772 73.88C73.5572 73.88 74.8826 74.3187 75.8532 75.196C76.8426 76.0733 77.3372 77.3147 77.3372 78.92C77.3372 79.368 77.2719 79.9653 77.1412 80.712L75.4892 89H71.9892L73.6132 80.796C73.6879 80.4227 73.7252 80.04 73.7252 79.648C73.7252 77.8373 72.7266 76.932 70.7292 76.932C69.4412 76.932 68.3772 77.296 67.5372 78.024C66.6972 78.7333 66.1279 79.8067 65.8292 81.244L64.2612 89H60.7612L63.7292 74.048H67.0612L66.7252 75.7C68.0692 74.4867 69.7866 73.88 71.8772 73.88ZM84.8572 83.988C84.8199 84.2867 84.8012 84.5013 84.8012 84.632C84.8012 85.752 85.3892 86.312 86.5652 86.312C87.2932 86.312 87.9465 86.116 88.5252 85.724L89.1412 88.3C88.1892 88.8973 86.9852 89.196 85.5292 89.196C84.2412 89.196 83.2052 88.8413 82.4212 88.132C81.6372 87.4227 81.2452 86.4427 81.2452 85.192C81.2452 84.7813 81.2825 84.3893 81.3572 84.016L82.7852 76.96H80.3492L80.9092 74.16H83.3452L84.0172 70.744H87.5172L86.8172 74.16H90.8492L90.2892 76.96H86.2572L84.8572 83.988ZM98.6962 89.196C97.2402 89.196 95.9615 88.9253 94.8602 88.384C93.7775 87.824 92.9375 87.0493 92.3402 86.06C91.7429 85.0707 91.4442 83.9227 91.4442 82.616C91.4442 80.9547 91.8175 79.4613 92.5642 78.136C93.3295 76.8107 94.3842 75.7747 95.7282 75.028C97.0909 74.2627 98.6215 73.88 100.32 73.88C101.776 73.88 103.055 74.1507 104.156 74.692C105.258 75.2333 106.107 75.9987 106.704 76.988C107.302 77.9773 107.6 79.1253 107.6 80.432C107.6 82.0933 107.218 83.5867 106.452 84.912C105.687 86.2373 104.623 87.2827 103.26 88.048C101.916 88.8133 100.395 89.196 98.6962 89.196ZM98.9202 86.2C99.9095 86.2 100.787 85.9667 101.552 85.5C102.336 85.0147 102.952 84.352 103.4 83.512C103.848 82.6533 104.072 81.6827 104.072 80.6C104.072 79.424 103.727 78.5093 103.036 77.856C102.346 77.184 101.375 76.848 100.124 76.848C99.1349 76.848 98.2482 77.0907 97.4642 77.576C96.6989 78.0427 96.0922 78.7053 95.6442 79.564C95.1962 80.404 94.9722 81.3653 94.9722 82.448C94.9722 83.624 95.3175 84.548 96.0082 85.22C96.6989 85.8733 97.6695 86.2 98.9202 86.2ZM115.259 75.98C115.912 75.2147 116.706 74.6733 117.639 74.356C118.591 74.0387 119.72 73.88 121.027 73.88L120.383 77.212C120.066 77.156 119.776 77.128 119.515 77.128C116.659 77.128 114.932 78.6307 114.335 81.636L112.851 89H109.351L112.319 74.048H115.651L115.259 75.98ZM138.515 74.048L128.211 90.316C127.184 91.94 126.204 93.06 125.271 93.676C124.356 94.3107 123.236 94.628 121.911 94.628C121.164 94.628 120.427 94.5067 119.699 94.264C118.971 94.0213 118.402 93.704 117.991 93.312L119.727 90.764C120.418 91.3987 121.239 91.716 122.191 91.716C122.788 91.716 123.311 91.5573 123.759 91.24C124.207 90.9413 124.664 90.4187 125.131 89.672L125.607 88.944L122.079 74.048H125.579L128.099 85.136L135.015 74.048H138.515Z" fill="#FF5F6D"/>
</svg>
